<?xml version="1.0" encoding="UTF-8"?>
<svg version="1.1" xmlns="http://www.w3.org/2000/svg" width="540" height="540">
<path d="M0 0 C0.92336151 0.00087616 1.84672302 0.00175232 2.79806519 0.00265503 C18.08207827 0.0503428 32.73854206 0.93246431 47.6875 4.375 C48.71504395 4.61105957 49.74258789 4.84711914 50.80126953 5.09033203 C100.59667952 16.98142994 146.84092452 46.38420318 176.6875 88.375 C177.10402832 88.95781738 177.52055664 89.54063477 177.94970703 90.14111328 C204.34649796 127.47328365 218.16870471 171.00459479 218.0625 216.6875 C218.06162384 217.61086151 218.06074768 218.53422302 218.05984497 219.48556519 C218.0121572 234.76957827 217.13003569 249.42604206 213.6875 264.375 C213.45144043 265.40254395 213.21538086 266.43008789 212.97216797 267.48876953 C201.08107006 317.28417952 171.67829682 363.52842452 129.6875 393.375 C129.10468262 393.79152832 128.52186523 394.20805664 127.92138672 394.63720703 C90.58921635 421.03399796 47.05790521 434.85620471 1.375 434.75 C-0.01004227 434.74868576 -0.01004227 434.74868576 -1.42306519 434.74734497 C-16.70707827 434.6996572 -31.36354206 433.81753569 -46.3125 430.375 C-47.34004395 430.13894043 -48.36758789 429.90288086 -49.42626953 429.65966797 C-99.22167952 417.76857006 -145.46592452 388.36579682 -175.3125 346.375 C-175.72902832 345.79218262 -176.14555664 345.20936523 -176.57470703 344.60888672 C-202.97149796 307.27671635 -216.79370471 263.74540521 -216.6875 218.0625 C-216.68662384 217.13913849 -216.68574768 216.21577698 -216.68484497 215.26443481 C-216.6371572 199.98042173 -215.75503569 185.32395794 -212.3125 170.375 C-212.07644043 169.34745605 -211.84038086 168.31991211 -211.59716797 167.26123047 C-199.70607006 117.46582048 -170.30329682 71.22157548 -128.3125 41.375 C-127.72968262 40.95847168 -127.14686523 40.54194336 -126.54638672 40.11279297 C-89.21421635 13.71600204 -45.68290521 -0.10620471 0 0 Z " fill="#F1A857" transform="translate(269.3125,52.625)"/>
<path d="M0 0 C41.58 0 83.16 0 126 0 C126.33 26.73 126.66 53.46 127 81 C154.06 81.33 181.12 81.66 209 82 C209.04030303 113.55727579 209.04030303 113.55727579 209.04882812 126.74023438 C209.05477112 135.85734619 209.06177281 144.97444879 209.07543945 154.09155273 C209.08538628 160.73028827 209.09185342 167.36901637 209.09408849 174.00775915 C209.09539561 177.52504336 209.09848147 181.04230626 209.10573006 184.55958366 C209.11374389 188.47974938 209.11399114 192.39989399 209.11352539 196.32006836 C209.11712067 197.49466614 209.12071594 198.66926392 209.12442017 199.87945557 C209.1230455 200.94101364 209.12167084 202.00257172 209.12025452 203.09629822 C209.12163721 204.48866652 209.12163721 204.48866652 209.12304783 205.90916348 C209 208 209 208 208 209 C205.44406185 209.09506198 202.91535694 209.12555454 200.35913086 209.11352539 C199.13975122 209.11370619 199.13975122 209.11370619 197.89573765 209.11389065 C195.25207896 209.11314147 192.6084899 209.10551303 189.96484375 209.09765625 C188.33760614 209.09618685 186.71036806 209.09516613 185.08312988 209.09460449 C179.0345794 209.08935143 172.98603903 209.07539035 166.9375 209.0625 C146.6734375 209.0315625 146.6734375 209.0315625 126 209 C126 236.06 126 263.12 126 291 C84.42 291 42.84 291 0 291 C0 263.94 0 236.88 0 209 C-27.06 209 -54.12 209 -82 209 C-82 167.09 -82 125.18 -82 82 C-54.94 82 -27.88 82 0 82 C0 54.94 0 27.88 0 0 Z " fill="#5885A1" transform="translate(207,123)"/>
<path d="M0 0 C0.92336151 0.00087616 1.84672302 0.00175232 2.79806519 0.00265503 C18.08207827 0.0503428 32.73854206 0.93246431 47.6875 4.375 C48.71504395 4.61105957 49.74258789 4.84711914 50.80126953 5.09033203 C100.59667952 16.98142994 146.84092452 46.38420318 176.6875 88.375 C177.10402832 88.95781738 177.52055664 89.54063477 177.94970703 90.14111328 C204.34649796 127.47328365 218.16870471 171.00459479 218.0625 216.6875 C218.06162384 217.61086151 218.06074768 218.53422302 218.05984497 219.48556519 C218.0121572 234.76957827 217.13003569 249.42604206 213.6875 264.375 C213.45144043 265.40254395 213.21538086 266.43008789 212.97216797 267.48876953 C201.08107006 317.28417952 171.67829682 363.52842452 129.6875 393.375 C129.10468262 393.79152832 128.52186523 394.20805664 127.92138672 394.63720703 C90.58921635 421.03399796 47.05790521 434.85620471 1.375 434.75 C-0.01004227 434.74868576 -0.01004227 434.74868576 -1.42306519 434.74734497 C-16.70707827 434.6996572 -31.36354206 433.81753569 -46.3125 430.375 C-47.34004395 430.13894043 -48.36758789 429.90288086 -49.42626953 429.65966797 C-99.22167952 417.76857006 -145.46592452 388.36579682 -175.3125 346.375 C-175.72902832 345.79218262 -176.14555664 345.20936523 -176.57470703 344.60888672 C-202.97149796 307.27671635 -216.79370471 263.74540521 -216.6875 218.0625 C-216.68662384 217.13913849 -216.68574768 216.21577698 -216.68484497 215.26443481 C-216.6371572 199.98042173 -215.75503569 185.32395794 -212.3125 170.375 C-212.07644043 169.34745605 -211.84038086 168.31991211 -211.59716797 167.26123047 C-199.70607006 117.46582048 -170.30329682 71.22157548 -128.3125 41.375 C-127.72968262 40.95847168 -127.14686523 40.54194336 -126.54638672 40.11279297 C-89.21421635 13.71600204 -45.68290521 -0.10620471 0 0 Z M-49.3125 29.375 C-50.1979248 29.61605469 -51.08334961 29.85710937 -51.99560547 30.10546875 C-72.3034538 35.74881863 -92.12731132 45.17535402 -109.3125 57.375 C-110.25609375 58.02855469 -111.1996875 58.68210938 -112.171875 59.35546875 C-119.13582647 64.28334966 -126.0871624 69.52991862 -132.3125 75.375 C-132.3125 76.035 -132.3125 76.695 -132.3125 77.375 C-132.90675781 77.64441406 -133.50101563 77.91382813 -134.11328125 78.19140625 C-160.19091255 92.22608171 -178.1916399 136.59543822 -186.3125 163.375 C-194.10368227 190.9222155 -196.38836428 221.04192707 -191.3125 249.375 C-191.17827637 250.12458984 -191.04405273 250.87417969 -190.90576172 251.64648438 C-188.10538848 266.89192719 -184.09145094 281.39341369 -177.3125 295.375 C-176.64318892 296.84254683 -175.97677532 298.31141691 -175.3125 299.78125 C-166.48937143 319.13741578 -154.99631451 335.93703188 -140.3125 351.375 C-139.52214355 352.21417969 -139.52214355 352.21417969 -138.71582031 353.0703125 C-125.55144247 366.96645531 -111.08394658 378.15288249 -94.3125 387.375 C-93.6947168 387.7148291 -93.07693359 388.0546582 -92.44042969 388.40478516 C-76.63381135 396.96295163 -59.8755718 403.40065726 -42.25292969 406.97363281 C-40.35233264 407.36676084 -38.46103964 407.80404405 -36.5703125 408.2421875 C-23.85836281 411.16287616 -11.25506592 411.61238381 1.75 411.625 C2.47638672 411.62600708 3.20277344 411.62701416 3.95117188 411.62805176 C15.44786814 411.61730836 26.44728679 410.88047637 37.6875 408.375 C38.40744141 408.22514648 39.12738281 408.07529297 39.86914062 407.92089844 C52.83107464 405.22192809 65.65069239 401.79268674 77.390625 395.5390625 C79.64310343 394.3975003 81.87531759 393.54015442 84.25 392.6875 C100.78519205 386.22397909 116.3568845 374.77596176 129.2109375 362.69921875 C132.07082007 360.01525955 135.03348585 357.4730882 138.03125 354.9453125 C139.85349263 353.2176202 141.29879007 351.46653264 142.6875 349.375 C142.6875 348.715 142.6875 348.055 142.6875 347.375 C143.29335938 347.10171875 143.89921875 346.8284375 144.5234375 346.546875 C164.01028204 335.99443211 179.36553469 297.74044647 185.5 277.87109375 C192.42334086 253.06159237 192.42334086 253.06159237 194.78515625 227.59765625 C194.7837413 226.78630722 194.78232635 225.97495819 194.78086853 225.13902283 C194.77531357 222.57180953 194.76276967 220.00468652 194.75 217.4375 C194.74497917 215.68685023 194.74041729 213.93619907 194.73632812 212.18554688 C194.72535893 207.9153303 194.70812582 203.64518041 194.6875 199.375 C194.0275 199.375 193.3675 199.375 192.6875 199.375 C192.74550781 198.77558594 192.80351562 198.17617187 192.86328125 197.55859375 C194.71244373 160.41684446 171.87106006 117.85875842 147.80395508 90.93481445 C145.95014027 88.90346798 144.06441268 86.90484881 142.16308594 84.91796875 C141.17160187 83.88120844 140.18533023 82.8394404 139.20410156 81.79296875 C118.71740209 59.99352931 91.14862071 41.64960592 62.1875 33.375 C58.6875 32.375 58.6875 32.375 55.125 30.9375 C49.18403532 28.66662933 42.92746327 27.51560822 36.6875 26.375 C35.84388916 26.20363525 35.00027832 26.03227051 34.13110352 25.85571289 C23.15271546 23.85629295 12.12664592 23.93410926 1 23.9375 C-0.04540955 23.93676483 -1.09081909 23.93602966 -2.16790771 23.93527222 C-18.41352394 23.96529504 -33.61094152 24.8651301 -49.3125 29.375 Z " fill="#ECA659" transform="translate(269.3125,52.625)"/>
<path d="M0 0 C0.86351074 0.16628906 1.72702148 0.33257812 2.61669922 0.50390625 C22.42709773 4.47702239 41.27125459 11.33064127 59 21 C59.8957373 21.47904785 59.8957373 21.47904785 60.80957031 21.96777344 C107.65548147 47.11394373 142.00298513 91.01886732 157.78613281 141.51513672 C166.89469871 172.43372611 169.11449705 205.27803746 163 237 C162.83371094 237.86351074 162.66742188 238.72702148 162.49609375 239.61669922 C158.52297761 259.42709773 151.66935873 278.27125459 142 296 C141.68063477 296.5971582 141.36126953 297.19431641 141.03222656 297.80957031 C115.88605627 344.65548147 71.98113268 379.00298513 21.48486328 394.78613281 C-9.43372611 403.89469871 -42.27803746 406.11449705 -74 400 C-74.86351074 399.83371094 -75.72702148 399.66742188 -76.61669922 399.49609375 C-96.42709773 395.52297761 -115.27125459 388.66935873 -133 379 C-133.5971582 378.68063477 -134.19431641 378.36126953 -134.80957031 378.03222656 C-181.65548147 352.88605627 -216.00298513 308.98113268 -231.78613281 258.48486328 C-240.89469871 227.56627389 -243.11449705 194.72196254 -237 163 C-236.83371094 162.13648926 -236.66742188 161.27297852 -236.49609375 160.38330078 C-232.52297761 140.57290227 -225.66935873 121.72874541 -216 104 C-215.68063477 103.4028418 -215.36126953 102.80568359 -215.03222656 102.19042969 C-189.88605627 55.34451853 -145.98113268 20.99701487 -95.48486328 5.21386719 C-64.56627389 -3.89469871 -31.72196254 -6.11449705 0 0 Z M-87 12 C-87.8854248 12.24105469 -88.77084961 12.48210937 -89.68310547 12.73046875 C-109.9909538 18.37381863 -129.81481132 27.80035402 -147 40 C-147.94359375 40.65355469 -148.8871875 41.30710938 -149.859375 41.98046875 C-156.82332647 46.90834966 -163.7746624 52.15491862 -170 58 C-170 58.66 -170 59.32 -170 60 C-170.59425781 60.26941406 -171.18851563 60.53882813 -171.80078125 60.81640625 C-197.87841255 74.85108171 -215.8791399 119.22043822 -224 146 C-231.79118227 173.5472155 -234.07586428 203.66692707 -229 232 C-228.86577637 232.74958984 -228.73155273 233.49917969 -228.59326172 234.27148438 C-225.79288848 249.51692719 -221.77895094 264.01841369 -215 278 C-214.33068892 279.46754683 -213.66427532 280.93641691 -213 282.40625 C-204.17687143 301.76241578 -192.68381451 318.56203188 -178 334 C-177.20964355 334.83917969 -177.20964355 334.83917969 -176.40332031 335.6953125 C-163.23894247 349.59145531 -148.77144658 360.77788249 -132 370 C-131.3822168 370.3398291 -130.76443359 370.6796582 -130.12792969 371.02978516 C-114.32131135 379.58795163 -97.5630718 386.02565726 -79.94042969 389.59863281 C-78.03983264 389.99176084 -76.14853964 390.42904405 -74.2578125 390.8671875 C-61.54586281 393.78787616 -48.94256592 394.23738381 -35.9375 394.25 C-35.21111328 394.25100708 -34.48472656 394.25201416 -33.73632812 394.25305176 C-22.23963186 394.24230836 -11.24021321 393.50547637 0 391 C0.71994141 390.85014648 1.43988281 390.70029297 2.18164062 390.54589844 C15.14357464 387.84692809 27.96319239 384.41768674 39.703125 378.1640625 C41.95560343 377.0225003 44.18781759 376.16515442 46.5625 375.3125 C63.09769205 368.84897909 78.6693845 357.40096176 91.5234375 345.32421875 C94.38332007 342.64025955 97.34598585 340.0980882 100.34375 337.5703125 C102.16599263 335.8426202 103.61129007 334.09153264 105 332 C105 331.34 105 330.68 105 330 C105.60585938 329.72671875 106.21171875 329.4534375 106.8359375 329.171875 C126.32278204 318.61943211 141.67803469 280.36544647 147.8125 260.49609375 C154.73584086 235.68659237 154.73584086 235.68659237 157.09765625 210.22265625 C157.0962413 209.41130722 157.09482635 208.59995819 157.09336853 207.76402283 C157.08781357 205.19680953 157.07526967 202.62968652 157.0625 200.0625 C157.05747917 198.31185023 157.05291729 196.56119907 157.04882812 194.81054688 C157.03785893 190.5403303 157.02062582 186.27018041 157 182 C156.34 182 155.68 182 155 182 C155.05800781 181.40058594 155.11601562 180.80117187 155.17578125 180.18359375 C157.02494373 143.04184446 134.18356006 100.48375842 110.11645508 73.55981445 C108.26264027 71.52846798 106.37691268 69.52984881 104.47558594 67.54296875 C103.48410187 66.50620844 102.49783023 65.4644404 101.51660156 64.41796875 C81.02990209 42.61852931 53.46112071 24.27460592 24.5 16 C21 15 21 15 17.4375 13.5625 C11.49653532 11.29162933 5.23996327 10.14060822 -1 9 C-1.84361084 8.82863525 -2.68722168 8.65727051 -3.55639648 8.48071289 C-14.53478454 6.48129295 -25.56085408 6.55910926 -36.6875 6.5625 C-37.73290955 6.56176483 -38.77831909 6.56102966 -39.85540771 6.56027222 C-56.10102394 6.59029504 -71.29844152 7.4901301 -87 12 Z " fill="#5984A0" transform="translate(307,70)"/>
</svg>
