<?xml version="1.0" encoding="UTF-8"?>
<svg version="1.1" xmlns="http://www.w3.org/2000/svg" width="540" height="540">
<path d="M0 0 C0.92336151 0.00087616 1.84672302 0.00175232 2.79806519 0.00265503 C18.08207827 0.0503428 32.73854206 0.93246431 47.6875 4.375 C48.71504395 4.61105957 49.74258789 4.84711914 50.80126953 5.09033203 C100.59667952 16.98142994 146.84092452 46.38420318 176.6875 88.375 C177.10402832 88.95781738 177.52055664 89.54063477 177.94970703 90.14111328 C204.34649796 127.47328365 218.16870471 171.00459479 218.0625 216.6875 C218.06162384 217.61086151 218.06074768 218.53422302 218.05984497 219.48556519 C218.0121572 234.76957827 217.13003569 249.42604206 213.6875 264.375 C213.45144043 265.40254395 213.21538086 266.43008789 212.97216797 267.48876953 C201.08107006 317.28417952 171.67829682 363.52842452 129.6875 393.375 C129.10468262 393.79152832 128.52186523 394.20805664 127.92138672 394.63720703 C90.58921635 421.03399796 47.05790521 434.85620471 1.375 434.75 C-0.01004227 434.74868576 -0.01004227 434.74868576 -1.42306519 434.74734497 C-16.70707827 434.6996572 -31.36354206 433.81753569 -46.3125 430.375 C-47.34004395 430.13894043 -48.36758789 429.90288086 -49.42626953 429.65966797 C-99.22167952 417.76857006 -145.46592452 388.36579682 -175.3125 346.375 C-175.72902832 345.79218262 -176.14555664 345.20936523 -176.57470703 344.60888672 C-202.97149796 307.27671635 -216.79370471 263.74540521 -216.6875 218.0625 C-216.68662384 217.13913849 -216.68574768 216.21577698 -216.68484497 215.26443481 C-216.6371572 199.98042173 -215.75503569 185.32395794 -212.3125 170.375 C-212.07644043 169.34745605 -211.84038086 168.31991211 -211.59716797 167.26123047 C-199.70607006 117.46582048 -170.30329682 71.22157548 -128.3125 41.375 C-127.72968262 40.95847168 -127.14686523 40.54194336 -126.54638672 40.11279297 C-89.21421635 13.71600204 -45.68290521 -0.10620471 0 0 Z " fill="#B8383B" transform="translate(269.3125,52.625)"/>
<path d="M0 0 C2.94447543 0.00314142 5.88792482 -0.02029955 8.83227539 -0.0456543 C24.34279576 -0.09753221 39.54553751 0.94630224 54.21313477 6.34692383 C57.76651953 7.62223413 61.38258328 8.52057801 65.04907227 9.40942383 C69.15935165 10.71035809 72.99835536 12.51837779 76.91235352 14.31567383 C77.70988037 14.6735498 78.50740723 15.03142578 79.32910156 15.40014648 C127.25278041 36.97984257 164.43274953 74.26665859 183.91235352 123.31567383 C184.175 123.96793945 184.43764648 124.62020508 184.70825195 125.29223633 C189.59157631 137.60618155 192.50097201 150.31069241 194.91235352 163.31567383 C195.10144287 164.30937988 195.29053223 165.30308594 195.48535156 166.3269043 C197.02939387 175.20875837 197.27034665 183.95746169 197.22485352 192.94067383 C197.22211929 194.06351776 197.22211929 194.06351776 197.21932983 195.20904541 C197.17182048 206.815256 196.53794306 217.98259219 193.91235352 229.31567383 C193.7301123 230.13132812 193.54787109 230.94698242 193.36010742 231.78735352 C184.0829604 272.7866081 163.09230992 313.43428542 129.91235352 340.31567383 C129.42283203 340.71753906 128.93331055 341.1194043 128.42895508 341.53344727 C116.85985452 351.0003323 104.84061822 358.88659377 91.66235352 365.94067383 C90.40998901 366.61658569 90.40998901 366.61658569 89.13232422 367.30615234 C88.35332764 367.71406006 87.57433105 368.12196777 86.77172852 368.54223633 C86.0753125 368.90913574 85.37889648 369.27603516 84.66137695 369.65405273 C83.79561035 369.98155518 83.79561035 369.98155518 82.91235352 370.31567383 C82.25235352 369.98567383 81.59235352 369.65567383 80.91235352 369.31567383 C81.4112207 368.87481445 81.91008789 368.43395508 82.42407227 367.97973633 C94.39122345 356.76456053 103.26275152 342.6390616 110.89038086 328.22729492 C111.89877528 326.34107221 112.94086624 324.4777865 113.99438477 322.61645508 C118.92835589 313.80320037 122.70862907 304.74603506 126.18237305 295.26928711 C126.78540538 293.65541931 127.43470694 292.05892251 128.09594727 290.46801758 C138.24062435 265.56026957 139.08839677 235.62792219 132.49829102 209.85473633 C131.91235352 207.31567383 131.91235352 207.31567383 131.91235352 204.31567383 C131.25235352 204.31567383 130.59235352 204.31567383 129.91235352 204.31567383 C129.26295616 201.94159791 128.61775298 199.56650993 127.97485352 197.19067383 C127.79245117 196.52551758 127.61004883 195.86036133 127.42211914 195.17504883 C125.31508808 187.35987909 124.70402083 180.18559159 124.66235352 172.12817383 C124.63141602 170.66154297 124.63141602 170.66154297 124.59985352 169.1652832 C124.56257699 162.11536013 125.73439456 156.01297975 127.91235352 149.31567383 C119.88709638 158.81570224 116.80043049 167.57444503 114.62329102 179.70239258 C113.91235352 183.31567383 113.91235352 183.31567383 112.88110352 186.86254883 C111.93574404 190.23229792 111.43906596 193.40623055 111.03735352 196.87817383 C108.36886466 216.08721959 101.04507358 231.0398554 85.91235352 243.31567383 C81.78186096 246.1243646 78.13413581 248.09246623 72.95922852 247.74145508 C68.8340103 246.88334671 65.8525307 245.35636989 62.91235352 242.31567383 C54.425378 227.10634147 56.16713345 209.88718471 58.91235352 193.31567383 C59.24235352 192.32567383 59.57235352 191.33567383 59.91235352 190.31567383 C60.04525007 187.87660969 60.12400545 185.46708773 60.15063477 183.02661133 C60.16024734 182.29893051 60.16985992 181.57124969 60.17976379 180.82151794 C60.20462667 178.44452266 60.21705961 176.06778446 60.22485352 173.69067383 C60.22977814 172.47932266 60.22977814 172.47932266 60.23480225 171.24349976 C60.25777973 153.76782585 57.77442877 137.34707775 53.91235352 120.31567383 C53.25235352 120.31567383 52.59235352 120.31567383 51.91235352 120.31567383 C51.60942383 119.40946289 51.30649414 118.50325195 50.99438477 117.56958008 C47.3266328 106.90488591 42.84789336 98.20513479 35.91235352 89.31567383 C34.88941653 87.94223813 33.86856798 86.5672444 32.84985352 85.19067383 C27.23300037 77.71616353 21.08634037 71.23859808 13.97485352 65.15942383 C11.52271471 62.96736035 9.2223421 60.65701973 6.91235352 58.31567383 C-1.06349918 50.23533398 -8.11004313 43.18166361 -18.23999023 37.85083008 C-20.86900956 36.43353982 -23.37529939 34.90878164 -25.90014648 33.31567383 C-32.15261867 29.51593993 -40.71495696 24.31567383 -48.08764648 24.31567383 C-46.98845832 25.30042596 -45.88308629 26.27827856 -44.77514648 27.25317383 C-44.16026367 27.79844727 -43.54538086 28.3437207 -42.91186523 28.90551758 C-41.0352269 30.51648942 -41.0352269 30.51648942 -38.08764648 31.31567383 C-33.08764648 36.78079011 -33.08764648 36.78079011 -33.08764648 39.31567383 C-32.42764648 39.31567383 -31.76764648 39.31567383 -31.08764648 39.31567383 C-25.03520893 47.58932615 -20.08764648 57.92690212 -20.08764648 68.31567383 C-19.42764648 68.31567383 -18.76764648 68.31567383 -18.08764648 68.31567383 C-15.83268671 84.10039228 -17.24344027 97.2513363 -22.08764648 112.31567383 C-22.32338379 113.05060059 -22.55912109 113.78552734 -22.80200195 114.54272461 C-26.73017528 126.46591737 -31.92610919 137.84242362 -37.10375977 149.26220703 C-44.7565604 166.14450701 -51.89882237 183.11135518 -57.81030273 200.68676758 C-59.08764648 204.31567383 -59.08764648 204.31567383 -60.08764648 205.31567383 C-62.33764648 205.75317383 -62.33764648 205.75317383 -65.08764648 205.31567383 C-69.25861631 201.52388308 -70.37264306 199.2148439 -70.80639648 193.51098633 C-72.02490369 183.99986065 -77.98640974 175.51615166 -85.25561523 169.53051758 C-87.47871419 167.99205441 -89.72483849 166.62878177 -92.08764648 165.31567383 C-92.89331055 164.86450195 -93.69897461 164.41333008 -94.52905273 163.94848633 C-100.1914149 160.95337144 -105.89837604 158.93541907 -112.08764648 157.31567383 C-112.08764648 157.97567383 -112.08764648 158.63567383 -112.08764648 159.31567383 C-111.49725586 159.59411133 -110.90686523 159.87254883 -110.29858398 160.15942383 C-101.87588429 164.56422791 -97.00017129 172.12453508 -93.77514648 180.87817383 C-92.07221315 189.39284051 -91.93008336 197.75566733 -91.95727539 206.4152832 C-91.96258086 208.41592833 -91.95682354 210.41659285 -91.95092773 212.41723633 C-91.95864443 220.25740237 -92.28194944 228.01387553 -92.85180664 235.83227539 C-95.80220152 279.41015745 -87.7133543 329.58619432 -58.49731445 363.73168945 C-52.30986976 370.6842598 -46.01379983 377.36776074 -38.08764648 382.31567383 C-42.00205647 384.27287882 -47.0733902 381.56022233 -51.08764648 380.37817383 C-52.17182861 380.05896973 -53.25601074 379.73976563 -54.37304688 379.41088867 C-64.0254816 376.48107912 -73.06373874 372.79754109 -82.08764648 368.31567383 C-83.17166748 367.78586914 -83.17166748 367.78586914 -84.27758789 367.24536133 C-94.60073587 362.16038213 -103.95144328 356.30151289 -113.08764648 349.31567383 C-114.40829102 348.31407227 -114.40829102 348.31407227 -115.75561523 347.29223633 C-140.7128522 327.85019163 -159.60122916 303.68449196 -173.18261719 275.17895508 C-173.79547395 273.91720088 -174.42752038 272.6646194 -175.07666016 271.42114258 C-177.79156895 266.20684578 -179.80539344 260.89322978 -181.65014648 255.31567383 C-181.95460693 254.39939209 -182.25906738 253.48311035 -182.57275391 252.5390625 C-185.15740953 244.53143841 -186.76506943 236.61695534 -188.08764648 228.31567383 C-188.59208968 225.77991577 -189.12011361 223.25074069 -189.65795898 220.72192383 C-194.65220625 192.75413916 -191.67263115 160.8936991 -182.08764648 134.31567383 C-181.57556946 132.56916957 -181.07419854 130.81946033 -180.58764648 129.06567383 C-175.26865558 111.4428633 -165.73135969 95.21770483 -155.08764648 80.31567383 C-154.69496582 79.76459961 -154.30228516 79.21352539 -153.89770508 78.64575195 C-148.99927319 71.85358589 -143.65320994 65.57833126 -137.96264648 59.44067383 C-137.4009375 58.83416992 -136.83922852 58.22766602 -136.26049805 57.6027832 C-112.04185205 31.96282213 -78.51707112 12.84576959 -44.15014648 5.19067383 C-43.06024414 4.93930664 -41.9703418 4.68793945 -40.84741211 4.42895508 C-37.6002892 3.69193728 -34.34678756 2.9973752 -31.08764648 2.31567383 C-30.19231201 2.11337158 -29.29697754 1.91106934 -28.37451172 1.70263672 C-18.99672402 -0.18065231 -9.52508173 -0.02117905 0 0 Z " fill="#F29056" transform="translate(267.087646484375,76.684326171875)"/>
<path d="M0 0 C0.92336151 0.00087616 1.84672302 0.00175232 2.79806519 0.00265503 C18.08207827 0.0503428 32.73854206 0.93246431 47.6875 4.375 C48.71504395 4.61105957 49.74258789 4.84711914 50.80126953 5.09033203 C100.59667952 16.98142994 146.84092452 46.38420318 176.6875 88.375 C177.10402832 88.95781738 177.52055664 89.54063477 177.94970703 90.14111328 C204.34649796 127.47328365 218.16870471 171.00459479 218.0625 216.6875 C218.06162384 217.61086151 218.06074768 218.53422302 218.05984497 219.48556519 C218.0121572 234.76957827 217.13003569 249.42604206 213.6875 264.375 C213.45144043 265.40254395 213.21538086 266.43008789 212.97216797 267.48876953 C201.08107006 317.28417952 171.67829682 363.52842452 129.6875 393.375 C129.10468262 393.79152832 128.52186523 394.20805664 127.92138672 394.63720703 C90.58921635 421.03399796 47.05790521 434.85620471 1.375 434.75 C-0.01004227 434.74868576 -0.01004227 434.74868576 -1.42306519 434.74734497 C-16.70707827 434.6996572 -31.36354206 433.81753569 -46.3125 430.375 C-47.34004395 430.13894043 -48.36758789 429.90288086 -49.42626953 429.65966797 C-99.22167952 417.76857006 -145.46592452 388.36579682 -175.3125 346.375 C-175.72902832 345.79218262 -176.14555664 345.20936523 -176.57470703 344.60888672 C-202.97149796 307.27671635 -216.79370471 263.74540521 -216.6875 218.0625 C-216.68662384 217.13913849 -216.68574768 216.21577698 -216.68484497 215.26443481 C-216.6371572 199.98042173 -215.75503569 185.32395794 -212.3125 170.375 C-212.07644043 169.34745605 -211.84038086 168.31991211 -211.59716797 167.26123047 C-199.70607006 117.46582048 -170.30329682 71.22157548 -128.3125 41.375 C-127.72968262 40.95847168 -127.14686523 40.54194336 -126.54638672 40.11279297 C-89.21421635 13.71600204 -45.68290521 -0.10620471 0 0 Z M-60.3125 22.375 C-62.08186163 22.88018325 -63.85250201 23.38093363 -65.625 23.875 C-87.59574176 30.55853657 -108.63709381 42.8515939 -126.3125 57.375 C-126.8782373 57.83777344 -127.44397461 58.30054688 -128.02685547 58.77734375 C-156.21931384 81.99188688 -178.12177982 110.81664575 -190.3125 145.375 C-190.82366369 146.74987662 -191.33801852 148.12357079 -191.85546875 149.49609375 C-208.38246239 193.39608683 -208.56267795 248.74061815 -189.69921875 292.203125 C-188.7260096 294.31858707 -187.73255605 296.42502348 -186.70703125 298.515625 C-185.71405272 300.5516482 -184.78983001 302.62181613 -183.9140625 304.7109375 C-171.37269836 333.40313156 -149.98370641 359.30499925 -125.3125 378.375 C-124.78237305 378.79217285 -124.25224609 379.2093457 -123.70605469 379.63916016 C-110.33699043 390.11017131 -95.46053574 399.83329297 -79.296875 405.3125 C-76.82602071 406.19217587 -74.54173479 407.17583371 -72.16796875 408.27734375 C-66.87528685 410.65844403 -61.44461991 412.33026554 -55.875 413.9375 C-54.8238501 414.24123535 -53.7727002 414.5449707 -52.68969727 414.85791016 C-38.73243426 418.78388749 -24.81392214 420.94634344 -10.3125 421.375 C-9.31911621 421.41286621 -8.32573242 421.45073242 -7.30224609 421.48974609 C19.91943684 422.42924498 47.17549561 418.90979611 72.55078125 408.625 C74.5260442 407.83784664 76.52273673 407.10077727 78.54296875 406.4375 C110.54164812 395.61628214 141.32253261 369.89930194 161.6875 343.375 C162.46609375 342.36308594 163.2446875 341.35117187 164.046875 340.30859375 C169.25115898 333.36537584 173.74651851 326.08722512 178.0625 318.5625 C178.56241455 317.69125488 179.0623291 316.82000977 179.57739258 315.92236328 C182.26500759 311.15154035 184.68237733 306.35018635 186.84716797 301.32055664 C187.84535359 299.00953362 188.95880972 296.7621737 190.0625 294.5 C197.53435539 277.86022388 200.73241068 260.27403481 203.6875 242.375 C203.996875 240.6734375 203.996875 240.6734375 204.3125 238.9375 C206.0971737 221.98309982 205.21168483 204.22210879 202.6875 187.375 C202.58034668 186.64394043 202.47319336 185.91288086 202.36279297 185.15966797 C200.87974066 175.31798603 198.61660837 165.89756688 195.6875 156.375 C195.31818359 155.05435547 195.31818359 155.05435547 194.94140625 153.70703125 C188.48140936 130.75031915 175.77943395 108.72109825 160.6875 90.375 C160.2140918 89.79862793 159.74068359 89.22225586 159.25292969 88.62841797 C149.41131503 76.73078282 138.97272964 65.80741793 126.6875 56.375 C125.67558594 55.59640625 124.66367187 54.8178125 123.62109375 54.015625 C116.67787584 48.81134102 109.39972512 44.31598149 101.875 40 C101.00375488 39.50008545 100.13250977 39.0001709 99.23486328 38.48510742 C94.46404035 35.79749241 89.66268635 33.38012267 84.63305664 31.21533203 C82.32203362 30.21714641 80.0746737 29.10369028 77.8125 28 C61.19715316 20.53911423 43.57922562 17.24867101 25.6875 14.375 C24.00829468 14.10453857 24.00829468 14.10453857 22.29516602 13.82861328 C-5.21214749 10.36995533 -34.12010637 13.72241756 -60.3125 22.375 Z " fill="#F28F55" transform="translate(269.3125,52.625)"/>
<path d="M0 0 C1.40907283 2.81814566 0.50872691 4.17277204 -0.4375 7.125 C-0.72496094 8.03507813 -1.01242187 8.94515625 -1.30859375 9.8828125 C-1.65083984 10.93082031 -1.65083984 10.93082031 -2 12 C-2.66 10.68 -3.32 9.36 -4 8 C-4.99 8.66 -5.98 9.32 -7 10 C-5.33248852 6.05860922 -2.77289351 3.2107188 0 0 Z " fill="#BF433E" transform="translate(395,225)"/>
</svg>
