<?xml version="1.0" encoding="UTF-8"?>
<svg version="1.1" xmlns="http://www.w3.org/2000/svg" width="540" height="540">
<path d="M0 0 C0.92336151 0.00087616 1.84672302 0.00175232 2.79806519 0.00265503 C18.08207827 0.0503428 32.73854206 0.93246431 47.6875 4.375 C48.71504395 4.61105957 49.74258789 4.84711914 50.80126953 5.09033203 C100.59667952 16.98142994 146.84092452 46.38420318 176.6875 88.375 C177.10402832 88.95781738 177.52055664 89.54063477 177.94970703 90.14111328 C204.34649796 127.47328365 218.16870471 171.00459479 218.0625 216.6875 C218.06162384 217.61086151 218.06074768 218.53422302 218.05984497 219.48556519 C218.0121572 234.76957827 217.13003569 249.42604206 213.6875 264.375 C213.45144043 265.40254395 213.21538086 266.43008789 212.97216797 267.48876953 C201.08107006 317.28417952 171.67829682 363.52842452 129.6875 393.375 C129.10468262 393.79152832 128.52186523 394.20805664 127.92138672 394.63720703 C90.58921635 421.03399796 47.05790521 434.85620471 1.375 434.75 C-0.01004227 434.74868576 -0.01004227 434.74868576 -1.42306519 434.74734497 C-16.70707827 434.6996572 -31.36354206 433.81753569 -46.3125 430.375 C-47.34004395 430.13894043 -48.36758789 429.90288086 -49.42626953 429.65966797 C-99.22167952 417.76857006 -145.46592452 388.36579682 -175.3125 346.375 C-175.72902832 345.79218262 -176.14555664 345.20936523 -176.57470703 344.60888672 C-202.97149796 307.27671635 -216.79370471 263.74540521 -216.6875 218.0625 C-216.68662384 217.13913849 -216.68574768 216.21577698 -216.68484497 215.26443481 C-216.6371572 199.98042173 -215.75503569 185.32395794 -212.3125 170.375 C-212.07644043 169.34745605 -211.84038086 168.31991211 -211.59716797 167.26123047 C-199.70607006 117.46582048 -170.30329682 71.22157548 -128.3125 41.375 C-127.72968262 40.95847168 -127.14686523 40.54194336 -126.54638672 40.11279297 C-89.21421635 13.71600204 -45.68290521 -0.10620471 0 0 Z " fill="#F29056" transform="translate(269.3125,52.625)"/>
<path d="M0 0 C0.92336151 0.00087616 1.84672302 0.00175232 2.79806519 0.00265503 C18.08207827 0.0503428 32.73854206 0.93246431 47.6875 4.375 C48.71504395 4.61105957 49.74258789 4.84711914 50.80126953 5.09033203 C100.59667952 16.98142994 146.84092452 46.38420318 176.6875 88.375 C177.10402832 88.95781738 177.52055664 89.54063477 177.94970703 90.14111328 C204.34649796 127.47328365 218.16870471 171.00459479 218.0625 216.6875 C218.06162384 217.61086151 218.06074768 218.53422302 218.05984497 219.48556519 C218.0121572 234.76957827 217.13003569 249.42604206 213.6875 264.375 C213.45144043 265.40254395 213.21538086 266.43008789 212.97216797 267.48876953 C201.08107006 317.28417952 171.67829682 363.52842452 129.6875 393.375 C129.10468262 393.79152832 128.52186523 394.20805664 127.92138672 394.63720703 C90.58921635 421.03399796 47.05790521 434.85620471 1.375 434.75 C-0.01004227 434.74868576 -0.01004227 434.74868576 -1.42306519 434.74734497 C-16.70707827 434.6996572 -31.36354206 433.81753569 -46.3125 430.375 C-47.34004395 430.13894043 -48.36758789 429.90288086 -49.42626953 429.65966797 C-99.22167952 417.76857006 -145.46592452 388.36579682 -175.3125 346.375 C-175.72902832 345.79218262 -176.14555664 345.20936523 -176.57470703 344.60888672 C-202.97149796 307.27671635 -216.79370471 263.74540521 -216.6875 218.0625 C-216.68662384 217.13913849 -216.68574768 216.21577698 -216.68484497 215.26443481 C-216.6371572 199.98042173 -215.75503569 185.32395794 -212.3125 170.375 C-212.07644043 169.34745605 -211.84038086 168.31991211 -211.59716797 167.26123047 C-199.70607006 117.46582048 -170.30329682 71.22157548 -128.3125 41.375 C-127.72968262 40.95847168 -127.14686523 40.54194336 -126.54638672 40.11279297 C-89.21421635 13.71600204 -45.68290521 -0.10620471 0 0 Z M-60.3125 22.375 C-62.08186163 22.88018325 -63.85250201 23.38093363 -65.625 23.875 C-87.59574176 30.55853657 -108.63709381 42.8515939 -126.3125 57.375 C-126.8782373 57.83777344 -127.44397461 58.30054688 -128.02685547 58.77734375 C-156.21931384 81.99188688 -178.12177982 110.81664575 -190.3125 145.375 C-190.82366369 146.74987662 -191.33801852 148.12357079 -191.85546875 149.49609375 C-208.43424217 193.5336274 -208.65417134 249.3682756 -189.375 292.859375 C-188.68774596 294.36469565 -188.00024611 295.8699041 -187.3125 297.375 C-186.66642898 298.86448026 -186.02059581 300.35406371 -185.375 301.84375 C-172.09675451 331.65521944 -151.12384577 358.42371042 -125.3125 378.375 C-124.78237305 378.79217285 -124.25224609 379.2093457 -123.70605469 379.63916016 C-110.33699043 390.11017131 -95.46053574 399.83329297 -79.296875 405.3125 C-76.82602071 406.19217587 -74.54173479 407.17583371 -72.16796875 408.27734375 C-66.87528685 410.65844403 -61.44461991 412.33026554 -55.875 413.9375 C-54.8238501 414.24123535 -53.7727002 414.5449707 -52.68969727 414.85791016 C-38.73243426 418.78388749 -24.81392214 420.94634344 -10.3125 421.375 C-9.31911621 421.41286621 -8.32573242 421.45073242 -7.30224609 421.48974609 C16.59878965 422.31463986 38.78321438 419.16132052 61.6875 412.375 C63.37424008 411.91387788 65.06157579 411.45491691 66.75 411 C73.01284831 409.09568677 78.81396126 406.23414551 84.6875 403.375 C85.31462891 403.07432617 85.94175781 402.77365234 86.58789062 402.46386719 C115.72348592 388.47703854 141.88859788 369.1620316 161.6875 343.375 C162.46609375 342.36308594 163.2446875 341.35117187 164.046875 340.30859375 C169.25115898 333.36537584 173.74651851 326.08722512 178.0625 318.5625 C178.56241455 317.69125488 179.0623291 316.82000977 179.57739258 315.92236328 C182.61536261 310.52962025 185.27752517 305.07397596 187.6875 299.375 C188.46480469 297.58255859 188.46480469 297.58255859 189.2578125 295.75390625 C195.00978561 282.15976215 198.78811244 268.83496927 201.6875 254.375 C201.93741699 253.20227539 201.93741699 253.20227539 202.19238281 252.00585938 C206.62289375 230.96322565 205.86256674 208.56627499 202.6875 187.375 C202.58034668 186.64394043 202.47319336 185.91288086 202.36279297 185.15966797 C200.87974066 175.31798603 198.61660837 165.89756688 195.6875 156.375 C195.31818359 155.05435547 195.31818359 155.05435547 194.94140625 153.70703125 C188.48140936 130.75031915 175.77943395 108.72109825 160.6875 90.375 C160.2140918 89.79862793 159.74068359 89.22225586 159.25292969 88.62841797 C149.41131503 76.73078282 138.97272964 65.80741793 126.6875 56.375 C125.67558594 55.59640625 124.66367187 54.8178125 123.62109375 54.015625 C116.67787584 48.81134102 109.39972512 44.31598149 101.875 40 C101.00375488 39.50008545 100.13250977 39.0001709 99.23486328 38.48510742 C94.46404035 35.79749241 89.66268635 33.38012267 84.63305664 31.21533203 C82.32203362 30.21714641 80.0746737 29.10369028 77.8125 28 C61.19715316 20.53911423 43.57922562 17.24867101 25.6875 14.375 C24.00829468 14.10453857 24.00829468 14.10453857 22.29516602 13.82861328 C-5.21214749 10.36995533 -34.12010637 13.72241756 -60.3125 22.375 Z " fill="#F28F55" transform="translate(269.3125,52.625)"/>
<path d="M0 0 C1.22662354 0.27166992 1.22662354 0.27166992 2.47802734 0.54882812 C10.19220918 2.30322399 17.53708347 4.78063636 24.86328125 7.75 C26.8385442 8.53715336 28.83523673 9.27422273 30.85546875 9.9375 C62.93720057 20.78680429 93.51247745 46.49491989 114 73 C114.41717285 73.53012695 114.8343457 74.06025391 115.26416016 74.60644531 C125.73517131 87.97550957 135.45829297 102.85196426 140.9375 119.015625 C141.8177067 121.4879703 142.80152434 123.77636222 143.90234375 126.15234375 C163.90165092 170.62509675 160.46984425 225.10177115 144.9375 270.125 C144.69201416 270.83688477 144.44652832 271.54876953 144.19360352 272.28222656 C142.80799688 276.15728325 141.14879819 279.50610996 139 283 C138.27244077 284.6969664 137.54591337 286.39443855 136.83544922 288.09863281 C124.58498688 315.97899538 103.01381031 341.56255101 79 360 C77.98808594 360.77859375 76.97617187 361.5571875 75.93359375 362.359375 C60.33041241 374.06293488 43.17573611 383.02925343 25 390 C24.06148193 390.36520752 24.06148193 390.36520752 23.10400391 390.73779297 C21.07701535 391.51467481 19.04142814 392.26186918 17 393 C16.11441406 393.32403809 15.22882813 393.64807617 14.31640625 393.98193359 C6.70638199 396.65575991 -0.87430696 398.31060204 -8.8125 399.6875 C-9.98748047 399.89955078 -11.16246094 400.11160156 -12.37304688 400.33007812 C-15.57932009 400.90398474 -18.78886346 401.45412323 -22 402 C-23.13824219 402.21011719 -24.27648437 402.42023438 -25.44921875 402.63671875 C-31.29065285 403.23435722 -37.13250458 403.14740642 -43 403.125 C-44.30710937 403.12016602 -45.61421875 403.11533203 -46.9609375 403.11035156 C-68.0618664 402.97873399 -87.81586143 400.26313557 -108 394 C-108.87527344 393.75507813 -109.75054687 393.51015625 -110.65234375 393.2578125 C-133.61486985 386.80073565 -155.65031827 374.0948818 -174 359 C-174.57637207 358.5265918 -175.15274414 358.05318359 -175.74658203 357.56542969 C-187.64421718 347.72381503 -198.56758207 337.28522964 -208 325 C-209.16789062 323.48212891 -209.16789062 323.48212891 -210.359375 321.93359375 C-215.56365898 314.99037584 -220.05901851 307.71222512 -224.375 300.1875 C-224.87491455 299.31625488 -225.3748291 298.44500977 -225.88989258 297.54736328 C-228.92786261 292.15462025 -231.59002517 286.69897596 -234 281 C-234.51820313 279.80503906 -235.03640625 278.61007812 -235.5703125 277.37890625 C-241.31796661 263.79496962 -245.0885288 250.44876281 -248 236 C-248.2371875 234.83082031 -248.474375 233.66164063 -248.71875 232.45703125 C-254.4091828 201.45254078 -251.22154852 167.97936625 -242 138 C-241.75378906 137.11957031 -241.50757813 136.23914063 -241.25390625 135.33203125 C-234.75482649 112.23643143 -221.97031707 90.56986783 -207 72 C-206.29359375 71.08863281 -205.5871875 70.17726563 -204.859375 69.23828125 C-195.6160669 57.51297376 -184.85312304 47.06320428 -173 38 C-172.21133545 37.3807666 -172.21133545 37.3807666 -171.40673828 36.74902344 C-158.0335161 26.27223413 -143.1549432 16.54404854 -126.984375 11.0625 C-124.50632904 10.18026374 -122.20721815 9.1945304 -119.82421875 8.09375 C-82.80143397 -8.54224233 -38.97775173 -8.78775871 0 0 Z M-94.3125 10.8125 C-95.42987549 11.07748291 -96.54725098 11.34246582 -97.69848633 11.61547852 C-105.44770757 13.50422023 -112.7317547 15.67849005 -120 19 C-121.71703125 19.75023437 -121.71703125 19.75023437 -123.46875 20.515625 C-143.17832036 29.27659706 -161.0254717 40.25873113 -176.84375 54.99609375 C-178.84701924 56.85782767 -180.90573297 58.6173116 -183 60.375 C-211.54221803 85.49898832 -230.56303216 124.09921168 -238 161 C-238.22429687 162.08063721 -238.22429687 162.08063721 -238.453125 163.18310547 C-240.83775039 175.19103054 -241.28780864 187.11129859 -241.3125 199.3125 C-241.31608521 200.02162537 -241.31967041 200.73075073 -241.32336426 201.46136475 C-241.35876594 214.47148433 -240.5060845 227.44630454 -237.125 240.0625 C-236.86674438 241.0376355 -236.86674438 241.0376355 -236.60327148 242.0324707 C-236.24885413 243.36745884 -235.89045172 244.70139616 -235.52783203 246.03417969 C-235.00568931 247.97881112 -234.51266347 249.92869709 -234.02734375 251.8828125 C-227.6334782 277.09586937 -214.78957369 301.11932263 -198 321 C-196.39581672 322.99998667 -194.79165027 324.99998685 -193.1875 327 C-190.84258885 329.92180079 -189.12992385 331.9133841 -186 334 C-180.23456488 327.77718172 -174.67387294 321.47457214 -169.33984375 314.875 C-166.80447373 311.75975403 -164.22356266 308.68751009 -161.625 305.625 C-161.16504639 305.08262695 -160.70509277 304.54025391 -160.23120117 303.98144531 C-158.34993903 301.76465269 -156.46692 299.54935553 -154.58398438 297.33398438 C-145.54608923 286.69601928 -136.69449139 275.92141834 -128 265 C-124.55220914 266.50006391 -122.17639467 268.50409262 -119.4375 271.0625 C-115.85571761 274.34931208 -112.2169923 277.5049332 -108.4375 280.5625 C-103.4906241 284.56510044 -98.71480811 288.72756895 -94 293 C-94.59793238 296.21190226 -95.60180119 298.06250444 -97.703125 300.546875 C-98.26499512 301.21904053 -98.82686523 301.89120605 -99.40576172 302.58374023 C-100.01436035 303.29860596 -100.62295898 304.01347168 -101.25 304.75 C-102.5291906 306.27688752 -103.80782326 307.80424262 -105.0859375 309.33203125 C-105.73788086 310.10756348 -106.38982422 310.8830957 -107.06152344 311.68212891 C-110.03541974 315.2380699 -112.95715065 318.83553677 -115.875 322.4375 C-116.41930664 323.10813477 -116.96361328 323.77876953 -117.52441406 324.46972656 C-120.9797129 328.73006131 -124.41156119 333.00852448 -127.83203125 337.296875 C-130.76957429 340.95954128 -133.72753657 344.60544168 -136.6875 348.25 C-137.50831055 349.26126953 -137.50831055 349.26126953 -138.34570312 350.29296875 C-138.87486328 350.94394531 -139.40402344 351.59492188 -139.94921875 352.265625 C-140.45888184 352.89791016 -140.96854492 353.53019531 -141.49365234 354.18164062 C-142.47993776 355.3722166 -143.49548908 356.53927794 -144.54150391 357.67773438 C-147.23776682 360.41310716 -147.23776682 360.41310716 -147.90649414 363.99975586 C-146.65679335 366.75731002 -145.20725124 367.37639479 -142.5390625 368.76953125 C-141.13406494 369.50901001 -141.13406494 369.50901001 -139.70068359 370.26342773 C-138.68570801 370.77462158 -137.67073242 371.28581543 -136.625 371.8125 C-135.06193115 372.60926147 -135.06193115 372.60926147 -133.46728516 373.42211914 C-117.52411397 381.39613621 -101.41011586 386.34013566 -84 390 C-82.88367188 390.23589844 -81.76734375 390.47179687 -80.6171875 390.71484375 C-49.76961561 396.73495393 -14.36300567 394.21600667 15 383 C15.7532959 382.72317383 16.5065918 382.44634766 17.28271484 382.16113281 C41.93509803 373.06340512 63.32796618 360.36857899 83 343 C83.84433594 342.278125 84.68867188 341.55625 85.55859375 340.8125 C90.50977237 336.53762065 94.8468499 332.04717458 99 327 C99.63977783 326.24468994 99.63977783 326.24468994 100.29248047 325.47412109 C112.10478031 311.51265582 121.24685833 296.32598309 129.10668945 279.84375 C130.06460373 277.866661 131.06748115 275.915581 132.0703125 273.9609375 C138.11446813 261.88428605 141.07104753 248.10906931 144 235 C144.16806152 234.27458008 144.33612305 233.54916016 144.50927734 232.80175781 C149.8182727 209.06807289 148.55414531 182.52639202 143 159 C142.81808105 158.18611816 142.63616211 157.37223633 142.44873047 156.53369141 C131.44404996 107.7846286 101.0350893 63.43913948 58.69238281 36.53369141 C37.51661641 23.57454083 15.25542446 12.85689663 -9.39599609 8.47094727 C-11.07811476 8.1667276 -12.75636796 7.83987626 -14.42871094 7.48583984 C-23.15561112 5.77702059 -31.72398502 5.69499925 -40.57910156 5.73925781 C-43.09985913 5.74989392 -45.61989018 5.73935311 -48.140625 5.7265625 C-63.83793666 5.710747 -79.02482966 7.12850959 -94.3125 10.8125 Z " fill="#B93A3B" transform="translate(317,71)"/>
<path d="M0 0 C4.47735863 0.69599872 7.16452433 3.45242579 10.4375 6.375 C11.6844997 7.46659852 12.93190535 8.55773346 14.1796875 9.6484375 C15.12859863 10.4832666 15.12859863 10.4832666 16.09667969 11.33496094 C19.0564384 13.92418034 22.05769455 16.4633456 25.0625 19 C25.84741821 19.66588135 25.84741821 19.66588135 26.64819336 20.34521484 C29.72493048 22.94948676 32.84112534 25.49608467 36 28 C34.57566631 32.64332784 32.68905519 36.92684499 30.5 41.25 C30.19191406 41.87390625 29.88382813 42.4978125 29.56640625 43.140625 C27.26529716 47.72309118 25.70388098 49.9115261 20.875 51.625 C20.15054688 51.88539063 19.42609375 52.14578125 18.6796875 52.4140625 C17.84824219 52.70410156 17.84824219 52.70410156 17 53 C17.01804687 54.08152344 17.03609375 55.16304687 17.0546875 56.27734375 C16.70827491 71.04072919 10.52532388 81.48470043 2.93457031 93.83886719 C0.50020907 97.81666998 -1.83957302 101.8451744 -4.17626953 105.88085938 C-5.88839027 108.83560871 -7.61514825 111.78143015 -9.34375 114.7265625 C-11.97603169 119.22649701 -14.57635535 123.74336905 -17.15625 128.2734375 C-17.50809357 128.89105453 -17.85993713 129.50867157 -18.22244263 130.14500427 C-19.92503414 133.13549859 -21.62430285 136.1278015 -23.31982422 139.12231445 C-27.71619533 146.8565449 -32.29211891 154.45265389 -37 162 C-40.27911362 159.856152 -43.47027296 157.74587075 -46.41015625 155.15234375 C-47.00062744 154.63534912 -47.59109863 154.11835449 -48.19946289 153.58569336 C-48.81426514 153.04178955 -49.42906738 152.49788574 -50.0625 151.9375 C-51.39527389 150.77019428 -52.72861695 149.60353812 -54.0625 148.4375 C-54.72507812 147.85742188 -55.38765625 147.27734375 -56.0703125 146.6796875 C-58.87685638 144.23674444 -61.71622535 141.83392355 -64.5625 139.4375 C-69.10610996 135.60935315 -73.62208157 131.75091428 -78.125 127.875 C-82.18620876 124.38176144 -86.27518971 120.93551293 -90.4375 117.5625 C-95.75447278 113.25337131 -100.91124586 108.77045664 -106.05053711 104.25219727 C-106.97104858 103.44673462 -106.97104858 103.44673462 -107.91015625 102.625 C-108.45808838 102.14289063 -109.00602051 101.66078125 -109.57055664 101.1640625 C-111.01417226 99.90207419 -111.01417226 99.90207419 -113 99 C-111.42775175 94.95572287 -108.54829891 92.49423658 -105.375 89.6875 C-104.83375488 89.20039551 -104.29250977 88.71329102 -103.73486328 88.21142578 C-100.18257165 85.02271294 -96.59849469 81.86964892 -92.9921875 78.7421875 C-90.63979365 76.68499601 -88.31965034 74.59403085 -86 72.5 C-82.37567842 69.22927077 -78.72116822 65.9983078 -75.0390625 62.79296875 C-72.79710187 60.82158957 -70.58614197 58.81837309 -68.375 56.8125 C-65.54159763 54.25162335 -62.6886877 51.72158729 -59.77734375 49.25 C-59.21354004 48.77103271 -58.64973633 48.29206543 -58.06884766 47.79858398 C-56.89090875 46.80190424 -55.70954012 45.80926484 -54.52490234 44.82055664 C-51.25943287 42.06249359 -48.20294708 39.22491411 -45.26171875 36.12109375 C-35.37358319 25.84425748 -35.37358319 25.84425748 -29.94140625 25.1171875 C-26.50722588 25.12410428 -23.36691131 25.34633155 -20 26 C-19.9690625 25.20078125 -19.938125 24.4015625 -19.90625 23.578125 C-19.13920655 17.29426901 -18.11622076 13.60902822 -13.2734375 9.5 C-9.80578055 6.8372788 -6.21319247 4.37060549 -2.53466797 2.00878906 C-1.01947732 1.08696901 -1.01947732 1.08696901 0 0 Z " fill="#B8383B" transform="translate(367,122)"/>
<path d="M0 0 C4.51231566 2.87889823 8.53779925 6.04110132 12.5625 9.5625 C13.79917442 10.63316459 15.03616075 11.70346901 16.2734375 12.7734375 C17.20494629 13.58119629 17.20494629 13.58119629 18.15527344 14.40527344 C20.98409829 16.85073187 23.83303727 19.27205347 26.6875 21.6875 C27.2252002 22.1427002 27.76290039 22.59790039 28.31689453 23.06689453 C31.6628927 25.89170284 35.03942938 28.67532563 38.4375 31.4375 C42.6839257 34.89274304 46.85292359 38.42702204 51 42 C56.02292052 46.32682218 61.09969484 50.57389521 66.24609375 54.75390625 C71.19911594 58.7936052 76.09626851 62.9007201 81 67 C79.35575077 71.06168708 76.46975146 73.93543612 73.5 77.0625 C70.78869481 79.93844517 68.20153517 82.69769724 66 86 C63.18648214 84.71104283 61.0674293 83.33731495 58.828125 81.20703125 C58.25030273 80.66272461 57.67248047 80.11841797 57.07714844 79.55761719 C56.47418945 78.98172852 55.87123047 78.40583984 55.25 77.8125 C53.99036407 76.62547304 52.7299535 75.43926755 51.46875 74.25390625 C50.86675781 73.68687988 50.26476562 73.11985352 49.64453125 72.53564453 C47.12515402 70.1830788 44.5307256 67.9239597 41.921875 65.671875 C39.58894926 63.64241927 37.29488755 61.572353 35 59.5 C32.01937279 56.81016569 29.02754767 54.13689636 26 51.5 C22.10348353 48.10625985 18.26935055 44.64569997 14.43359375 41.18359375 C12.32488854 39.29151315 10.20080199 37.42094242 8.0625 35.5625 C3.88020922 31.92094985 -0.2095005 28.18070805 -4.30078125 24.4375 C-7.35502283 21.67940051 -10.47597677 19.01000734 -13.63671875 16.375 C-15 15 -15 15 -15 13 C-13.49609375 11.484375 -13.49609375 11.484375 -11.4375 9.75 C-10.71433594 9.13511719 -9.99117187 8.52023438 -9.24609375 7.88671875 C-8.50488281 7.26410156 -7.76367188 6.64148438 -7 6 C-5.66572325 4.85526537 -4.33230167 3.70953272 -3 2.5625 C-2.01 1.716875 -1.02 0.87125 0 0 Z " fill="#B8393B" transform="translate(244,227)"/>
<path d="M0 0 C9.32532575 7.96538241 18.4761636 16.10877804 27.578125 24.328125 C32.12014362 28.4243013 36.68110769 32.4926484 41.30859375 36.4921875 C42.9342534 37.94138986 44.47675861 39.444151 46 41 C44.82989572 44.51031284 44.02863674 44.93505103 41.02734375 46.92578125 C40.20943359 47.47556641 39.39152344 48.02535156 38.54882812 48.59179688 C37.68708984 49.15962891 36.82535156 49.72746094 35.9375 50.3125 C34.2579128 51.43179247 32.57951593 52.5528733 30.90234375 53.67578125 C30.08233887 54.22314941 29.26233398 54.77051758 28.41748047 55.33447266 C25.38878597 57.42109696 22.48333908 59.64557662 19.59594727 61.92260742 C18 63 18 63 16 63 C16 62.34 16 61.68 16 61 C15.45859375 60.77699219 14.9171875 60.55398438 14.359375 60.32421875 C11.25024202 58.57919213 8.82147899 56.24685521 6.25 53.8125 C5.17641393 52.81182079 4.10219492 51.81182021 3.02734375 50.8125 C2.50769043 50.3278125 1.98803711 49.843125 1.45263672 49.34375 C-0.99895561 47.07592408 -3.52038821 44.8911317 -6.04296875 42.703125 C-9.72318902 39.50037841 -13.35785163 36.24589612 -17 33 C-15.66320853 28.63080477 -13.95252258 24.77646333 -11.77734375 20.76171875 C-11.15666016 19.61251953 -10.53597656 18.46332031 -9.89648438 17.27929688 C-9.57510498 16.69011475 -9.25372559 16.10093262 -8.92260742 15.49389648 C-7.93216711 13.67772106 -6.94893092 11.85778775 -5.96679688 10.03710938 C-1.14959206 1.14959206 -1.14959206 1.14959206 0 0 Z " fill="#B8383B" transform="translate(215,291)"/>
<path d="M0 0 C5.32163507 3.93204832 10.51223554 7.98834786 15.625 12.1875 C20.68794464 16.32572744 25.77853166 20.41965148 30.9375 24.4375 C37.07566952 29.2195313 43.08175914 34.15305517 49.05249023 39.14233398 C53.24708668 42.62920224 57.52293375 45.88298126 62 49 C61.67 49.99 61.34 50.98 61 52 C59.11401367 52.81542969 59.11401367 52.81542969 56.66796875 53.421875 C55.78689453 53.64230469 54.90582031 53.86273438 53.99804688 54.08984375 C53.07056641 54.30769531 52.14308594 54.52554688 51.1875 54.75 C49.81368164 55.09998047 49.81368164 55.09998047 48.41210938 55.45703125 C40.61360741 57.35411767 40.61360741 57.35411767 37 56 C35.39111328 54.88354492 35.39111328 54.88354492 33.8203125 53.48046875 C32.93206787 52.69772583 32.93206787 52.69772583 32.02587891 51.89916992 C31.39858887 51.33431885 30.77129883 50.76946777 30.125 50.1875 C28.78167023 48.99952465 27.43791006 47.81203582 26.09375 46.625 C25.0728125 45.71814453 25.0728125 45.71814453 24.03125 44.79296875 C21.51129231 42.56862148 18.96177856 40.38121019 16.40014648 38.20507812 C15.21920893 37.19549102 14.04672573 36.17592786 12.88305664 35.14648438 C10.3478133 32.91309928 8.01279436 31.0075564 5.08984375 29.28125 C2.19776798 27.45749898 0.82681663 25.88420447 -1 23 C-1.39892578 20.30395508 -1.39892578 20.30395508 -1.3203125 17.39453125 C-1.29525635 16.35272705 -1.2702002 15.31092285 -1.24438477 14.23754883 C-0.97673954 9.47346387 -0.56023066 4.73835051 0 0 Z " fill="#B8393B" transform="translate(228,261)"/>
</svg>
