<?xml version="1.0" encoding="UTF-8"?>
<svg version="1.1" xmlns="http://www.w3.org/2000/svg" width="540" height="540">
<path d="M0 0 C0.92336151 0.00087616 1.84672302 0.00175232 2.79806519 0.00265503 C18.08207827 0.0503428 32.73854206 0.93246431 47.6875 4.375 C48.71504395 4.61105957 49.74258789 4.84711914 50.80126953 5.09033203 C100.59667952 16.98142994 146.84092452 46.38420318 176.6875 88.375 C177.10402832 88.95781738 177.52055664 89.54063477 177.94970703 90.14111328 C204.34649796 127.47328365 218.16870471 171.00459479 218.0625 216.6875 C218.06162384 217.61086151 218.06074768 218.53422302 218.05984497 219.48556519 C218.0121572 234.76957827 217.13003569 249.42604206 213.6875 264.375 C213.45144043 265.40254395 213.21538086 266.43008789 212.97216797 267.48876953 C201.08107006 317.28417952 171.67829682 363.52842452 129.6875 393.375 C129.10468262 393.79152832 128.52186523 394.20805664 127.92138672 394.63720703 C90.58921635 421.03399796 47.05790521 434.85620471 1.375 434.75 C-0.01004227 434.74868576 -0.01004227 434.74868576 -1.42306519 434.74734497 C-16.70707827 434.6996572 -31.36354206 433.81753569 -46.3125 430.375 C-47.34004395 430.13894043 -48.36758789 429.90288086 -49.42626953 429.65966797 C-99.22167952 417.76857006 -145.46592452 388.36579682 -175.3125 346.375 C-175.72902832 345.79218262 -176.14555664 345.20936523 -176.57470703 344.60888672 C-202.97149796 307.27671635 -216.79370471 263.74540521 -216.6875 218.0625 C-216.68662384 217.13913849 -216.68574768 216.21577698 -216.68484497 215.26443481 C-216.6371572 199.98042173 -215.75503569 185.32395794 -212.3125 170.375 C-212.07644043 169.34745605 -211.84038086 168.31991211 -211.59716797 167.26123047 C-199.70607006 117.46582048 -170.30329682 71.22157548 -128.3125 41.375 C-127.72968262 40.95847168 -127.14686523 40.54194336 -126.54638672 40.11279297 C-89.21421635 13.71600204 -45.68290521 -0.10620471 0 0 Z " fill="#F29056" transform="translate(269.3125,52.625)"/>
<path d="M0 0 C0.92336151 0.00087616 1.84672302 0.00175232 2.79806519 0.00265503 C18.08207827 0.0503428 32.73854206 0.93246431 47.6875 4.375 C48.71504395 4.61105957 49.74258789 4.84711914 50.80126953 5.09033203 C100.59667952 16.98142994 146.84092452 46.38420318 176.6875 88.375 C177.10402832 88.95781738 177.52055664 89.54063477 177.94970703 90.14111328 C204.34649796 127.47328365 218.16870471 171.00459479 218.0625 216.6875 C218.06162384 217.61086151 218.06074768 218.53422302 218.05984497 219.48556519 C218.0121572 234.76957827 217.13003569 249.42604206 213.6875 264.375 C213.45144043 265.40254395 213.21538086 266.43008789 212.97216797 267.48876953 C201.08107006 317.28417952 171.67829682 363.52842452 129.6875 393.375 C129.10468262 393.79152832 128.52186523 394.20805664 127.92138672 394.63720703 C90.58921635 421.03399796 47.05790521 434.85620471 1.375 434.75 C-0.01004227 434.74868576 -0.01004227 434.74868576 -1.42306519 434.74734497 C-16.70707827 434.6996572 -31.36354206 433.81753569 -46.3125 430.375 C-47.34004395 430.13894043 -48.36758789 429.90288086 -49.42626953 429.65966797 C-99.22167952 417.76857006 -145.46592452 388.36579682 -175.3125 346.375 C-175.72902832 345.79218262 -176.14555664 345.20936523 -176.57470703 344.60888672 C-202.97149796 307.27671635 -216.79370471 263.74540521 -216.6875 218.0625 C-216.68662384 217.13913849 -216.68574768 216.21577698 -216.68484497 215.26443481 C-216.6371572 199.98042173 -215.75503569 185.32395794 -212.3125 170.375 C-212.07644043 169.34745605 -211.84038086 168.31991211 -211.59716797 167.26123047 C-199.70607006 117.46582048 -170.30329682 71.22157548 -128.3125 41.375 C-127.72968262 40.95847168 -127.14686523 40.54194336 -126.54638672 40.11279297 C-89.21421635 13.71600204 -45.68290521 -0.10620471 0 0 Z M-60.3125 22.375 C-62.08186163 22.88018325 -63.85250201 23.38093363 -65.625 23.875 C-87.59574176 30.55853657 -108.63709381 42.8515939 -126.3125 57.375 C-126.8782373 57.83777344 -127.44397461 58.30054688 -128.02685547 58.77734375 C-154.83786737 80.85436108 -176.90669871 108.67971079 -189.3125 141.375 C-189.66393066 142.28209717 -189.66393066 142.28209717 -190.02246094 143.20751953 C-196.22791234 159.34250014 -200.48362349 176.17080117 -202.3125 193.375 C-202.42335938 194.36628906 -202.53421875 195.35757813 -202.6484375 196.37890625 C-205.86366384 230.39947681 -201.57039523 266.17235239 -187.3125 297.375 C-186.66642898 298.86448026 -186.02059581 300.35406371 -185.375 301.84375 C-172.09675451 331.65521944 -151.12384577 358.42371042 -125.3125 378.375 C-124.78237305 378.79217285 -124.25224609 379.2093457 -123.70605469 379.63916016 C-109.03886419 391.12689874 -92.76538815 400.78787802 -75.3125 407.375 C-74.68520996 407.61911621 -74.05791992 407.86323242 -73.41162109 408.11474609 C-53.27340765 415.91257011 -31.90296809 420.62344629 -10.3125 421.375 C-9.31041504 421.41431641 -8.30833008 421.45363281 -7.27587891 421.49414062 C16.59907778 422.31537511 38.81322815 419.18907217 61.6875 412.375 C63.45796959 411.87371352 65.22872708 411.37344052 67 410.875 C71.77070726 409.42070376 76.17860958 407.49300904 80.6875 405.375 C81.92394724 404.82432494 83.16097869 404.27496062 84.3984375 403.7265625 C114.36618015 390.26443531 141.63329993 369.4945438 161.6875 343.375 C162.46609375 342.36308594 163.2446875 341.35117187 164.046875 340.30859375 C169.25115898 333.36537584 173.74651851 326.08722512 178.0625 318.5625 C178.56241455 317.69125488 179.0623291 316.82000977 179.57739258 315.92236328 C182.61536261 310.52962025 185.27752517 305.07397596 187.6875 299.375 C188.46480469 297.58255859 188.46480469 297.58255859 189.2578125 295.75390625 C195.00978561 282.15976215 198.78811244 268.83496927 201.6875 254.375 C201.93741699 253.20227539 201.93741699 253.20227539 202.19238281 252.00585938 C206.62289375 230.96322565 205.86256674 208.56627499 202.6875 187.375 C202.58034668 186.64394043 202.47319336 185.91288086 202.36279297 185.15966797 C200.87974066 175.31798603 198.61660837 165.89756688 195.6875 156.375 C195.31818359 155.05435547 195.31818359 155.05435547 194.94140625 153.70703125 C188.48140936 130.75031915 175.77943395 108.72109825 160.6875 90.375 C160.2140918 89.79862793 159.74068359 89.22225586 159.25292969 88.62841797 C149.41131503 76.73078282 138.97272964 65.80741793 126.6875 56.375 C125.67558594 55.59640625 124.66367187 54.8178125 123.62109375 54.015625 C116.67787584 48.81134102 109.39972512 44.31598149 101.875 40 C101.00375488 39.50008545 100.13250977 39.0001709 99.23486328 38.48510742 C94.46404035 35.79749241 89.66268635 33.38012267 84.63305664 31.21533203 C82.32203362 30.21714641 80.0746737 29.10369028 77.8125 28 C61.19715316 20.53911423 43.57922562 17.24867101 25.6875 14.375 C24.00829468 14.10453857 24.00829468 14.10453857 22.29516602 13.82861328 C-5.21214749 10.36995533 -34.12010637 13.72241756 -60.3125 22.375 Z " fill="#F28F55" transform="translate(269.3125,52.625)"/>
<path d="M0 0 C34.97089781 11.77551714 69.37052267 27.71944829 97.30078125 52.29248047 C98.14511719 52.98212891 98.98945313 53.67177734 99.859375 54.38232422 C104.79456674 58.5362984 108.7505921 62.8996606 112.42578125 68.16748047 C112.81652832 68.72725586 113.20727539 69.28703125 113.60986328 69.86376953 C115.42033055 72.57576552 116.30078125 73.9629035 116.30078125 77.29248047 C116.96078125 77.29248047 117.62078125 77.29248047 118.30078125 77.29248047 C118.30078125 77.95248047 118.30078125 78.61248047 118.30078125 79.29248047 C117.02203125 79.60185547 115.74328125 79.91123047 114.42578125 80.22998047 C105.87532549 83.13848196 99.97420905 89.33374292 95.86328125 97.22998047 C94.97012592 99.23388705 94.11327755 101.25453596 93.30078125 103.29248047 C92.79224609 104.54544922 92.79224609 104.54544922 92.2734375 105.82373047 C89.54152413 113.57883938 88.89537031 122.1465182 91.55078125 129.97998047 C93.33600373 132.33902446 94.52478887 133.33524172 97.30078125 134.29248047 C97.30078125 134.95248047 97.30078125 135.61248047 97.30078125 136.29248047 C96.64078125 136.29248047 95.98078125 136.29248047 95.30078125 136.29248047 C94.96433594 137.13552734 94.96433594 137.13552734 94.62109375 137.99560547 C92.91406202 140.96523464 90.75271581 142.79592214 88.17578125 145.04248047 C87.26570312 145.84169922 86.355625 146.64091797 85.41796875 147.46435547 C84.71929687 148.06763672 84.020625 148.67091797 83.30078125 149.29248047 C80.42773002 146.5064914 77.7533251 143.66697834 75.17578125 140.60498047 C38.57279846 98.76182706 -31.8220972 68.79100575 -86.57421875 64.54248047 C-88.28188242 64.44639709 -89.99007058 64.35697663 -91.69921875 64.29248047 C-91.72648035 62.25088952 -91.7457322 60.20919084 -91.76171875 58.16748047 C-91.77912109 56.46205078 -91.77912109 56.46205078 -91.796875 54.72216797 C-91.70454575 51.47956487 -91.31311781 48.47315435 -90.69921875 45.29248047 C-90.01859375 45.60185547 -89.33796875 45.91123047 -88.63671875 46.22998047 C-82.78514579 48.42829558 -82.78514579 48.42829558 -76.75390625 47.55419922 C-65.68698031 41.23954148 -60.16713343 30.74070242 -55.69921875 19.29248047 C-54.72576337 15.60006349 -54.53603926 12.10593685 -54.51171875 8.29248047 C-54.49753906 7.28185547 -54.48335937 6.27123047 -54.46875 5.22998047 C-54.89068172 -0.14786107 -56.73422977 -3.13902945 -60.69921875 -6.70751953 C-44.68431477 -14.71497152 -15.9010937 -5.27018992 0 0 Z " fill="#B8383B" transform="translate(253.69921875,204.70751953125)"/>
<path d="M0 0 C1.22662354 0.27166992 1.22662354 0.27166992 2.47802734 0.54882812 C10.19220918 2.30322399 17.53708347 4.78063636 24.86328125 7.75 C26.8385442 8.53715336 28.83523673 9.27422273 30.85546875 9.9375 C62.93720057 20.78680429 93.51247745 46.49491989 114 73 C114.41717285 73.53012695 114.8343457 74.06025391 115.26416016 74.60644531 C126.75189874 89.27363581 136.41287802 105.54711185 143 123 C143.24411621 123.62729004 143.48823242 124.25458008 143.73974609 124.90087891 C161.83854484 171.64179939 161.19508866 222.99952281 144.9375 270.125 C144.69201416 270.83688477 144.44652832 271.54876953 144.19360352 272.28222656 C142.80799688 276.15728325 141.14879819 279.50610996 139 283 C138.27244077 284.6969664 137.54591337 286.39443855 136.83544922 288.09863281 C124.58498688 315.97899538 103.01381031 341.56255101 79 360 C77.98808594 360.77859375 76.97617187 361.5571875 75.93359375 362.359375 C65.88052144 369.89502382 54.9994392 375.96804947 44 382 C42.36224609 382.91458984 42.36224609 382.91458984 40.69140625 383.84765625 C24.9026431 392.24593452 7.41915253 396.52855587 -10 400 C-10.77601563 400.16516113 -11.55203125 400.33032227 -12.3515625 400.50048828 C-27.47379763 403.68498335 -42.61090371 403.38068265 -58 403 C-58.79986328 402.98453125 -59.59972656 402.9690625 -60.42382812 402.953125 C-76.57055901 402.5801495 -92.63469506 398.76785212 -108 394 C-108.87527344 393.75507813 -109.75054687 393.51015625 -110.65234375 393.2578125 C-133.61486985 386.80073565 -155.65031827 374.0948818 -174 359 C-174.57637207 358.5265918 -175.15274414 358.05318359 -175.74658203 357.56542969 C-187.64421718 347.72381503 -198.56758207 337.28522964 -208 325 C-209.16789062 323.48212891 -209.16789062 323.48212891 -210.359375 321.93359375 C-215.56365898 314.99037584 -220.05901851 307.71222512 -224.375 300.1875 C-224.87491455 299.31625488 -225.3748291 298.44500977 -225.88989258 297.54736328 C-228.92786261 292.15462025 -231.59002517 286.69897596 -234 281 C-234.51820313 279.80503906 -235.03640625 278.61007812 -235.5703125 277.37890625 C-241.31796661 263.79496962 -245.0885288 250.44876281 -248 236 C-248.2371875 234.83082031 -248.474375 233.66164063 -248.71875 232.45703125 C-254.4091828 201.45254078 -251.22154852 167.97936625 -242 138 C-241.75378906 137.11957031 -241.50757813 136.23914063 -241.25390625 135.33203125 C-234.75482649 112.23643143 -221.97031707 90.56986783 -207 72 C-206.29359375 71.08863281 -205.5871875 70.17726563 -204.859375 69.23828125 C-195.6160669 57.51297376 -184.85312304 47.06320428 -173 38 C-172.21133545 37.3807666 -172.21133545 37.3807666 -171.40673828 36.74902344 C-158.0335161 26.27223413 -143.1549432 16.54404854 -126.984375 11.0625 C-124.50632904 10.18026374 -122.20721815 9.1945304 -119.82421875 8.09375 C-82.80143397 -8.54224233 -38.97775173 -8.78775871 0 0 Z M-94.3125 10.8125 C-95.42987549 11.07748291 -96.54725098 11.34246582 -97.69848633 11.61547852 C-105.44770757 13.50422023 -112.7317547 15.67849005 -120 19 C-121.71703125 19.75023437 -121.71703125 19.75023437 -123.46875 20.515625 C-143.17832036 29.27659706 -161.0254717 40.25873113 -176.84375 54.99609375 C-178.84701924 56.85782767 -180.90573297 58.6173116 -183 60.375 C-211.54221803 85.49898832 -230.56303216 124.09921168 -238 161 C-238.22429687 162.08063721 -238.22429687 162.08063721 -238.453125 163.18310547 C-240.83775039 175.19103054 -241.28780864 187.11129859 -241.3125 199.3125 C-241.31608521 200.02162537 -241.31967041 200.73075073 -241.32336426 201.46136475 C-241.35876594 214.47148433 -240.5060845 227.44630454 -237.125 240.0625 C-236.86674438 241.0376355 -236.86674438 241.0376355 -236.60327148 242.0324707 C-236.24885413 243.36745884 -235.89045172 244.70139616 -235.52783203 246.03417969 C-235.00568931 247.97881112 -234.51266347 249.92869709 -234.02734375 251.8828125 C-227.66353585 276.97734243 -214.87366954 301.29901328 -198 321 C-197.05018063 322.13361162 -196.1010079 323.26776521 -195.15234375 324.40234375 C-185.90550753 335.40069866 -176.26271993 344.99463302 -164.78222656 353.64892578 C-163.12934184 354.90194825 -161.49728202 356.18231302 -159.8671875 357.46484375 C-152.45121613 363.08604072 -144.61160835 367.54836986 -136.375 371.875 C-135.33819092 372.42269043 -134.30138184 372.97038086 -133.2331543 373.53466797 C-126.32868433 377.07679495 -119.41021818 379.72279754 -112 382 C-110.51933385 382.49554192 -109.03984401 382.99464003 -107.5625 383.5 C-106.04184366 384.00053804 -104.52099567 384.50049403 -103 385 C-102.06027344 385.3196875 -101.12054688 385.639375 -100.15234375 385.96875 C-93.95077004 387.99751761 -87.79066218 389.54757431 -81.375 390.6875 C-80.70726562 390.80673828 -80.03953125 390.92597656 -79.3515625 391.04882812 C-48.52556406 396.21636469 -14.30008252 394.19197145 15 383 C15.7532959 382.72317383 16.5065918 382.44634766 17.28271484 382.16113281 C41.93509803 373.06340512 63.32796618 360.36857899 83 343 C83.84433594 342.278125 84.68867188 341.55625 85.55859375 340.8125 C90.50977237 336.53762065 94.8468499 332.04717458 99 327 C99.63977783 326.24468994 99.63977783 326.24468994 100.29248047 325.47412109 C112.10478031 311.51265582 121.24685833 296.32598309 129.10668945 279.84375 C130.06460373 277.866661 131.06748115 275.915581 132.0703125 273.9609375 C138.11446813 261.88428605 141.07104753 248.10906931 144 235 C144.16806152 234.27458008 144.33612305 233.54916016 144.50927734 232.80175781 C149.8182727 209.06807289 148.55414531 182.52639202 143 159 C142.81808105 158.18611816 142.63616211 157.37223633 142.44873047 156.53369141 C131.44404996 107.7846286 101.0350893 63.43913948 58.69238281 36.53369141 C37.51661641 23.57454083 15.25542446 12.85689663 -9.39599609 8.47094727 C-11.07811476 8.1667276 -12.75636796 7.83987626 -14.42871094 7.48583984 C-23.15561112 5.77702059 -31.72398502 5.69499925 -40.57910156 5.73925781 C-43.09985913 5.74989392 -45.61989018 5.73935311 -48.140625 5.7265625 C-63.83793666 5.710747 -79.02482966 7.12850959 -94.3125 10.8125 Z " fill="#B93A3B" transform="translate(317,71)"/>
<path d="M0 0 C52.63114628 -1.52800102 113.8891016 30.81037426 151.6953125 65.765625 C161.90195238 75.66087586 161.90195238 75.66087586 162.1484375 79.02734375 C160.29907713 82.20396615 157.16311149 83.28065987 153.9375 84.75 C153.27427734 85.06582031 152.61105469 85.38164062 151.92773438 85.70703125 C150.29115358 86.48411278 148.64631405 87.24375767 147 88 C146.30826891 85.50655071 146.00661001 83.68932963 146.0625 81.0625 C145.99589342 77.79877768 145.58133889 75.84641 144 73 C142.68694451 72.29423268 141.35073117 71.63067228 140 71 C138.9275 70.29875 137.855 69.5975 136.75 68.875 C129.41463156 65.26205733 120.12683205 65.70665175 112.47265625 68.10546875 C107.37243569 70.45699195 102.64704364 73.08826061 99.6953125 78.0078125 C97.81869038 83.38465117 98.55537532 89.58265746 100 95 C91.42857143 95.14285714 91.42857143 95.14285714 88 94 C88.0825 92.80375 88.165 91.6075 88.25 90.375 C88.2259789 85.81899876 86.94781725 83.55249771 84 80 C83.57203125 79.45730469 83.1440625 78.91460937 82.703125 78.35546875 C75.23445033 69.8280902 61.38608005 62.76808375 50.10253906 61.84472656 C47.96274321 61.72402013 45.83037078 61.65981591 43.6875 61.625 C43.00502197 61.61082031 42.32254395 61.59664063 41.61938477 61.58203125 C37.24428928 61.62513033 34.5293547 62.41954337 31 65 C29.68 63.35 28.36 61.7 27 60 C27.68707031 59.62488281 28.37414062 59.24976563 29.08203125 58.86328125 C29.98308594 58.35152344 30.88414062 57.83976562 31.8125 57.3125 C32.70582031 56.81363281 33.59914062 56.31476563 34.51953125 55.80078125 C37.39510125 53.71316271 38.57706407 52.25439218 40 49 C41.25989253 39.9951867 40.78030207 32.0888318 35.76953125 24.2734375 C30.32635136 17.28021301 24.32302207 13.77425776 15.5625 12.5 C10.67717639 13.18565945 7.12171623 15.38303731 3 18 C2.49095343 16.12743583 1.99317545 14.25180659 1.5 12.375 C1.08234375 10.80878906 1.08234375 10.80878906 0.65625 9.2109375 C0.00881404 6.04312582 -0.1161292 3.22258533 0 0 Z " fill="#B8393B" transform="translate(163,282)"/>
<path d="M0 0 C24.42287579 0.09577598 45.38977111 14.01739971 62.8828125 29.80078125 C65 32 65 32 66 35 C65.071875 35.680625 64.14375 36.36125 63.1875 37.0625 C59.25452286 40.38182113 57.45910951 43.95627397 56.68359375 49.09765625 C56.27888481 56.49991325 58.8468313 63.44937975 63.25 69.375 C67.62194411 73.54821938 72.04793442 76.17106602 78.1875 76.4375 C82.04044285 75.99535902 83.88430917 75.19931117 87 73 C87.66 73 88.32 73 89 73 C92.44859625 81.82753882 92.68543448 90.6498111 93 100 C88.34130587 95.3648743 88.34130587 95.3648743 86.47265625 93.3671875 C47.62451328 52.25918026 -21.48283046 23.50440605 -77 20 C-73.88277968 16.56875995 -70.44622117 14.25319662 -66.4375 12 C-65.82632324 11.65259766 -65.21514648 11.30519531 -64.58544922 10.94726562 C-59.26869124 8.00072858 -53.80858184 5.8018458 -48 4 C-47.97421875 4.59167969 -47.9484375 5.18335938 -47.921875 5.79296875 C-47.54585085 11.03166882 -47.07907881 14.33928824 -43 18 C-35.78515175 23.13364202 -27.53157112 23.02206716 -19 22 C-12.23281681 20.48809647 -6.84785125 17.97215512 -2 13 C-0.1383259 9.97557382 0.2287878 7.77878521 0.125 4.25 C0.10695313 3.45078125 0.08890625 2.6515625 0.0703125 1.828125 C0.04710937 1.22484375 0.02390625 0.6215625 0 0 Z " fill="#B8393B" transform="translate(283,164)"/>
<path d="M0 0 C6.1399034 4.2115715 12.23916442 9.95850468 14.02734375 17.390625 C15.06226827 26.30067833 15.27106559 34.81636012 10.02734375 42.390625 C9.42921875 43.2775 8.83109375 44.164375 8.21484375 45.078125 C3.11478572 50.46961492 -2.39372643 54.08436832 -9.8984375 54.7265625 C-20.65755197 54.95109205 -27.08958663 54.12510656 -35.22265625 46.703125 C-41.9048338 39.50794563 -43.57680815 32.93821581 -43.44360352 23.20532227 C-43.06036815 14.60844832 -39.9948338 9.71484983 -33.83984375 3.9296875 C-24.57319108 -3.70851574 -10.84662902 -5.73639226 0 0 Z " fill="#B8383B" transform="translate(285.97265625,231.609375)"/>
<path d="M0 0 C1.01766449 -0.00807175 2.03532898 -0.01614349 3.08383179 -0.02445984 C5.22351414 -0.03822008 7.3632177 -0.04897784 9.50292969 -0.05688477 C11.68691457 -0.06846008 13.87086997 -0.08899816 16.0546875 -0.1184082 C19.22415215 -0.16102646 22.39278468 -0.17723922 25.5625 -0.1875 C26.53450348 -0.20500809 27.50650696 -0.22251617 28.50796509 -0.24055481 C34.37820668 -0.2217795 37.66229429 0.35652875 42.1484375 4.23828125 C45.09556777 8.53121088 44.69829475 13.2345803 44.1484375 18.23828125 C41.55604278 29.43271302 36.21879809 39.94885904 27.1484375 47.23828125 C23.19805377 49.6209292 20.64503368 49.30111307 16.1484375 48.23828125 C13.81424645 46.2439597 12.07931187 43.90140466 10.28515625 41.421875 C9.73456543 40.66616211 9.18397461 39.91044922 8.61669922 39.13183594 C8.02904785 38.32133789 7.44139648 37.51083984 6.8359375 36.67578125 C1.30165025 29.08748658 -4.37022574 21.62962736 -10.23168945 14.29077148 C-13.53812509 10.10651247 -16.32857029 5.93966185 -18.8515625 1.23828125 C-12.54248267 0.31691262 -6.37187377 0.04862685 0 0 Z " fill="#B8393B" transform="translate(151.8515625,199.76171875)"/>
<path d="M0 0 C8.43848383 3.57012778 16.8439928 8.47470163 21.65625 16.546875 C22.84962645 19.58456051 22.90812853 21.51813663 21.65625 24.546875 C18.77802869 28.08981255 15.27536417 30.80236244 11.65625 33.546875 C11.06682617 33.99546875 10.47740234 34.4440625 9.87011719 34.90625 C7.25485956 36.88639306 4.63132141 38.85436183 1.99121094 40.80126953 C-3.87006976 45.13178322 -9.51993569 49.69096347 -15.11572266 54.35839844 C-15.74269043 54.87692383 -16.3696582 55.39544922 -17.015625 55.9296875 C-17.83691895 56.61635498 -17.83691895 56.61635498 -18.67480469 57.31689453 C-20.47805151 58.64585262 -22.31711368 59.60092731 -24.34375 60.546875 C-26.36405301 58.52657199 -25.60067396 54.43309227 -25.66015625 51.65625 C-25.68116394 50.8478064 -25.70217163 50.03936279 -25.72381592 49.2064209 C-25.79043528 46.57000836 -25.84921798 43.93351145 -25.90625 41.296875 C-25.92609955 40.40883179 -25.9459491 39.52078857 -25.96640015 38.60583496 C-26.06461655 34.18393863 -26.15719212 29.7619755 -26.24414062 25.33984375 C-26.32366 21.35604049 -26.43139341 17.37356138 -26.546875 13.390625 C-26.58501211 11.52607525 -26.62166266 9.66149398 -26.65625 7.796875 C-26.685979 6.9728418 -26.71570801 6.14880859 -26.74633789 5.29980469 C-26.80050966 0.07422479 -26.80050966 0.07422479 -24.625 -2.4375 C-16.69750807 -5.96686284 -7.70257874 -2.89424864 0 0 Z " fill="#B8393B" transform="translate(225.34375,349.453125)"/>
<path d="M0 0 C5.76373594 3.01720431 8.81592191 7.37153315 12.5 12.625 C13.72031746 14.32719996 14.94304394 16.02767503 16.16796875 17.7265625 C16.79364746 18.59571289 17.41932617 19.46486328 18.06396484 20.36035156 C21.79118435 25.44215451 25.71774063 30.370943 29.64453125 35.29931641 C30.20140625 36.00491699 30.75828125 36.71051758 31.33203125 37.4375 C31.82421143 38.05496094 32.3163916 38.67242187 32.82348633 39.30859375 C34 41 34 41 35 44 C24.53245421 45.18887081 14.05176204 45.32383564 3.53100586 45.55224609 C1.17553475 45.60464866 -1.1798014 45.66138485 -3.53515625 45.71875 C-4.28439362 45.73413818 -5.03363098 45.74952637 -5.80557251 45.76538086 C-9.89708273 45.86814389 -13.81977767 46.2141887 -17.87109375 46.84375 C-21.35940139 47.23897143 -21.66025294 47.26413418 -24.59765625 44.98046875 C-28.06203551 37.61745657 -26.74131993 27.90740066 -24.10546875 20.37109375 C-19.48312533 10.45673877 -11.83303153 -0.98608596 0 0 Z " fill="#B8383B" transform="translate(374,289)"/>
<path d="M0 0 C7.88182425 2.9363659 12.61433437 7.73904526 16.0859375 15.2421875 C18.04590967 21.15560782 17.83113755 26.67281487 15.75 32.5 C13.93346361 35.09505198 12.70747325 36.3865482 10 38 C-5.489471 40.28330847 -22.86372286 36.11308592 -38 33 C-36.41060574 29.06785699 -33.83657498 26.66979654 -30.8125 23.75 C-24.38686467 17.45641981 -18.56511589 11.00474206 -13.359375 3.6640625 C-9.62023723 -0.91315788 -5.41803197 -0.59579733 0 0 Z " fill="#B8393B" transform="translate(183,299)"/>
<path d="M0 0 C2.63206809 2.04040573 4.53772656 3.9890984 6 7 C6.29544456 10.92427447 5.76288917 14.47422166 4 18 C3.63558649 20.39894768 3.31486483 22.78700034 3.02734375 25.1953125 C2.8962899 26.25647781 2.8962899 26.25647781 2.7625885 27.33908081 C2.48409409 29.6006445 2.2107397 31.86279602 1.9375 34.125 C1.74968692 35.65759354 1.56154004 37.19014621 1.37304688 38.72265625 C0.91148864 42.48130743 0.45453952 46.24049384 0 50 C-4.67592893 49.12817264 -7.16728675 46.26496364 -10.41015625 42.98828125 C-11.0188707 42.38243698 -11.62758514 41.77659271 -12.25474548 41.15238953 C-13.54014093 39.8690343 -14.82176059 38.58188774 -16.09985352 37.29125977 C-18.048414 35.32670165 -20.01236255 33.37857325 -21.97851562 31.43164062 C-23.227525 30.18064773 -24.47560284 28.92872396 -25.72265625 27.67578125 C-26.59930687 26.80823967 -26.59930687 26.80823967 -27.4936676 25.923172 C-31.54325474 21.80363273 -34.50404951 17.91370913 -35.5 12.0625 C-34.69841183 7.15277244 -32.24597103 3.66442496 -28.25 0.703125 C-19.92313922 -4.2499215 -8.48686829 -5.18436954 0 0 Z " fill="#B8393B" transform="translate(300,356)"/>
<path d="M0 0 C30.96614583 25.6953125 30.96614583 25.6953125 32.3125 37.8125 C31.9048526 41.97050343 31.06862196 43.15056532 28 46 C19.36121879 51.09429789 11.51255433 53.48381711 1.48828125 51.50390625 C-2.18552727 50.42908954 -4.63011713 49.31575367 -7.5625 46.8125 C-10.54059401 40.98579432 -8.90989831 34.73336039 -7.25 28.6875 C-5.33386858 21.51737606 -3.75965663 14.30973329 -2.30761719 7.03198242 C-1.10287004 1.10287004 -1.10287004 1.10287004 0 0 Z " fill="#B9393B" transform="translate(248,131)"/>
<path d="M0 0 C8.15713444 6.63952803 13.46901179 14.62891051 15.16796875 25.16796875 C15.67605809 35.5632021 12.12438924 44.79439432 5.4375 52.6875 C-1.99754682 60.29545489 -10.41841657 64.10443994 -21.0625 64.625 C-27.68582173 64.51710128 -32.60364648 62.39524343 -38.3125 59.1875 C-39.385 58.589375 -40.4575 57.99125 -41.5625 57.375 C-48.4430635 51.90182449 -54.32805658 45.19369174 -55.58398438 36.25537109 C-56.72640374 24.71850762 -55.12640038 15.82483977 -48.3125 6.1875 C-34.68652185 -9.63940747 -17.27067933 -9.44999435 0 0 Z M-46.8359375 13.9921875 C-50.87302689 20.43435143 -50.13842856 28.9207777 -49.3125 36.1875 C-47.24704532 43.23380779 -43.00889056 48.64724791 -37.3125 53.1875 C-36.77496094 53.62191406 -36.23742187 54.05632812 -35.68359375 54.50390625 C-29.0341659 58.77322569 -19.88548174 58.11580099 -12.3125 57.1875 C-9.16781144 56.32650913 -6.8894134 55.16034891 -4.3125 53.1875 C-3.76464844 52.80207031 -3.21679688 52.41664063 -2.65234375 52.01953125 C2.42615868 48.16386233 5.73332371 43.20802611 7.6875 37.1875 C8.48239756 28.85362666 9.17748667 20.20713756 4.23046875 13.04296875 C3.72128906 12.43066406 3.21210938 11.81835938 2.6875 11.1875 C1.90826172 10.22263672 1.90826172 10.22263672 1.11328125 9.23828125 C-3.88859138 3.67675853 -9.23827238 0.59866059 -16.71875 -0.15625 C-30.45706003 -0.50851436 -37.91437984 3.42357304 -46.8359375 13.9921875 Z " fill="#EF8C55" transform="translate(292.3125,228.8125)"/>
<path d="M0 0 C1.3756311 0.18344971 1.3756311 0.18344971 2.77905273 0.37060547 C3.80651611 0.50039795 4.83397949 0.63019043 5.89257812 0.76391602 C7.53601196 0.99848511 7.53601196 0.99848511 9.21264648 1.23779297 C10.32696045 1.38450439 11.44127441 1.53121582 12.58935547 1.68237305 C21.97811609 2.9447557 31.32734972 4.43397516 40.65014648 6.11279297 C38.54842984 10.73200615 35.3441731 13.94817788 31.90014648 17.61279297 C30.98749023 18.60859375 30.98749023 18.60859375 30.05639648 19.62451172 C26.49673019 23.43518013 23.06493751 26.35354858 18.65014648 29.11279297 C16.96443408 30.76019373 15.29382789 32.42345375 13.65014648 34.11279297 C10.43524531 35.72024356 8.22003939 35.51584539 4.65014648 35.11279297 C-1.64958891 31.72243258 -5.24010625 27.01582541 -8.59985352 20.80029297 C-10.12596681 15.33172033 -10.24957172 10.78813032 -7.53735352 5.73779297 C-6.81547852 4.87154297 -6.09360352 4.00529297 -5.34985352 3.11279297 C-4.91552002 2.55833496 -4.48118652 2.00387695 -4.03369141 1.43261719 C-2.34985352 0.11279297 -2.34985352 0.11279297 0 0 Z " fill="#B9393B" transform="translate(352.349853515625,201.88720703125)"/>
<path d="M0 0 C0.66 0 1.32 0 2 0 C2.43571762 4.17601349 2.86249556 8.35282567 3.28173828 12.53051758 C3.42491502 13.94546894 3.5703461 15.36019438 3.71826172 16.7746582 C4.667418 25.86912506 5.21267418 34.84417958 5 44 C4.31010986 43.61134766 3.62021973 43.22269531 2.90942383 42.82226562 C-9.65865895 35.78165668 -22.24710991 30.23315908 -36 26 C-32.31553724 22.07118632 -28.48840782 19.10528853 -23.984375 16.171875 C-23.32794006 15.73740051 -22.67150513 15.30292603 -21.99517822 14.85528564 C-19.91704762 13.48131244 -17.83377314 12.11539693 -15.75 10.75 C-13.65306235 9.36869155 -11.55721266 7.98575336 -9.4619751 6.60186768 C-8.16221556 5.7441732 -6.86126373 4.8882823 -5.559021 4.03436279 C-2.63475213 2.20248094 -2.63475213 2.20248094 0 0 Z " fill="#B9393B" transform="translate(330,135)"/>
</svg>
