<?xml version="1.0" encoding="UTF-8"?>
<svg version="1.1" xmlns="http://www.w3.org/2000/svg" width="540" height="540">
<path d="M0 0 C0.92336151 0.00087616 1.84672302 0.00175232 2.79806519 0.00265503 C18.08207827 0.0503428 32.73854206 0.93246431 47.6875 4.375 C48.71504395 4.61105957 49.74258789 4.84711914 50.80126953 5.09033203 C100.59667952 16.98142994 146.84092452 46.38420318 176.6875 88.375 C177.10402832 88.95781738 177.52055664 89.54063477 177.94970703 90.14111328 C204.34649796 127.47328365 218.16870471 171.00459479 218.0625 216.6875 C218.06162384 217.61086151 218.06074768 218.53422302 218.05984497 219.48556519 C218.0121572 234.76957827 217.13003569 249.42604206 213.6875 264.375 C213.45144043 265.40254395 213.21538086 266.43008789 212.97216797 267.48876953 C201.08107006 317.28417952 171.67829682 363.52842452 129.6875 393.375 C129.10468262 393.79152832 128.52186523 394.20805664 127.92138672 394.63720703 C90.58921635 421.03399796 47.05790521 434.85620471 1.375 434.75 C-0.01004227 434.74868576 -0.01004227 434.74868576 -1.42306519 434.74734497 C-16.70707827 434.6996572 -31.36354206 433.81753569 -46.3125 430.375 C-47.34004395 430.13894043 -48.36758789 429.90288086 -49.42626953 429.65966797 C-99.22167952 417.76857006 -145.46592452 388.36579682 -175.3125 346.375 C-175.72902832 345.79218262 -176.14555664 345.20936523 -176.57470703 344.60888672 C-202.97149796 307.27671635 -216.79370471 263.74540521 -216.6875 218.0625 C-216.68662384 217.13913849 -216.68574768 216.21577698 -216.68484497 215.26443481 C-216.6371572 199.98042173 -215.75503569 185.32395794 -212.3125 170.375 C-212.07644043 169.34745605 -211.84038086 168.31991211 -211.59716797 167.26123047 C-199.70607006 117.46582048 -170.30329682 71.22157548 -128.3125 41.375 C-127.72968262 40.95847168 -127.14686523 40.54194336 -126.54638672 40.11279297 C-89.21421635 13.71600204 -45.68290521 -0.10620471 0 0 Z " fill="#F29056" transform="translate(269.3125,52.625)"/>
<path d="M0 0 C0.92336151 0.00087616 1.84672302 0.00175232 2.79806519 0.00265503 C18.08207827 0.0503428 32.73854206 0.93246431 47.6875 4.375 C48.71504395 4.61105957 49.74258789 4.84711914 50.80126953 5.09033203 C100.59667952 16.98142994 146.84092452 46.38420318 176.6875 88.375 C177.10402832 88.95781738 177.52055664 89.54063477 177.94970703 90.14111328 C204.34649796 127.47328365 218.16870471 171.00459479 218.0625 216.6875 C218.06162384 217.61086151 218.06074768 218.53422302 218.05984497 219.48556519 C218.0121572 234.76957827 217.13003569 249.42604206 213.6875 264.375 C213.45144043 265.40254395 213.21538086 266.43008789 212.97216797 267.48876953 C201.08107006 317.28417952 171.67829682 363.52842452 129.6875 393.375 C129.10468262 393.79152832 128.52186523 394.20805664 127.92138672 394.63720703 C90.58921635 421.03399796 47.05790521 434.85620471 1.375 434.75 C-0.01004227 434.74868576 -0.01004227 434.74868576 -1.42306519 434.74734497 C-16.70707827 434.6996572 -31.36354206 433.81753569 -46.3125 430.375 C-47.34004395 430.13894043 -48.36758789 429.90288086 -49.42626953 429.65966797 C-99.22167952 417.76857006 -145.46592452 388.36579682 -175.3125 346.375 C-175.72902832 345.79218262 -176.14555664 345.20936523 -176.57470703 344.60888672 C-202.97149796 307.27671635 -216.79370471 263.74540521 -216.6875 218.0625 C-216.68662384 217.13913849 -216.68574768 216.21577698 -216.68484497 215.26443481 C-216.6371572 199.98042173 -215.75503569 185.32395794 -212.3125 170.375 C-212.07644043 169.34745605 -211.84038086 168.31991211 -211.59716797 167.26123047 C-199.70607006 117.46582048 -170.30329682 71.22157548 -128.3125 41.375 C-127.72968262 40.95847168 -127.14686523 40.54194336 -126.54638672 40.11279297 C-89.21421635 13.71600204 -45.68290521 -0.10620471 0 0 Z M-46.625 29.1875 C-47.74237549 29.45248291 -48.85975098 29.71746582 -50.01098633 29.99047852 C-57.76020757 31.87922023 -65.0442547 34.05349005 -72.3125 37.375 C-74.02953125 38.12523437 -74.02953125 38.12523437 -75.78125 38.890625 C-95.49082036 47.65159706 -113.3379717 58.63373113 -129.15625 73.37109375 C-131.15951924 75.23282767 -133.21823297 76.9923116 -135.3125 78.75 C-163.85471803 103.87398832 -182.87553216 142.47421168 -190.3125 179.375 C-190.53679687 180.45563721 -190.53679687 180.45563721 -190.765625 181.55810547 C-193.15025039 193.56603054 -193.60030864 205.48629859 -193.625 217.6875 C-193.62858521 218.39662537 -193.63217041 219.10575073 -193.63586426 219.83636475 C-193.67126594 232.84648433 -192.8185845 245.82130454 -189.4375 258.4375 C-189.17924438 259.4126355 -189.17924438 259.4126355 -188.91577148 260.4074707 C-188.56135413 261.74245884 -188.20295172 263.07639616 -187.84033203 264.40917969 C-187.31818931 266.35381112 -186.82516347 268.30369709 -186.33984375 270.2578125 C-179.97603585 295.35234243 -167.18616954 319.67401328 -150.3125 339.375 C-149.36268063 340.50861162 -148.4135079 341.64276521 -147.46484375 342.77734375 C-138.21800753 353.77569866 -128.57521993 363.36963302 -117.09472656 372.02392578 C-115.44184184 373.27694825 -113.80978202 374.55731302 -112.1796875 375.83984375 C-104.76371613 381.46104072 -96.92410835 385.92336986 -88.6875 390.25 C-87.65069092 390.79769043 -86.61388184 391.34538086 -85.5456543 391.90966797 C-78.64118433 395.45179495 -71.72271818 398.09779754 -64.3125 400.375 C-62.83183385 400.87054192 -61.35234401 401.36964003 -59.875 401.875 C-58.35434366 402.37553804 -56.83349567 402.87549403 -55.3125 403.375 C-54.37277344 403.6946875 -53.43304688 404.014375 -52.46484375 404.34375 C-46.26327004 406.37251761 -40.10316218 407.92257431 -33.6875 409.0625 C-33.01976562 409.18173828 -32.35203125 409.30097656 -31.6640625 409.42382812 C-0.83806406 414.59136469 33.38741748 412.56697145 62.6875 401.375 C63.4407959 401.09817383 64.1940918 400.82134766 64.97021484 400.53613281 C89.62259803 391.43840512 111.01546618 378.74357899 130.6875 361.375 C131.53183594 360.653125 132.37617188 359.93125 133.24609375 359.1875 C138.19727237 354.91262065 142.5343499 350.42217458 146.6875 345.375 C147.32727783 344.61968994 147.32727783 344.61968994 147.97998047 343.84912109 C159.79228031 329.88765582 168.93435833 314.70098309 176.79418945 298.21875 C177.75210373 296.241661 178.75498115 294.290581 179.7578125 292.3359375 C185.80196813 280.25928605 188.75854753 266.48406931 191.6875 253.375 C191.85556152 252.64958008 192.02362305 251.92416016 192.19677734 251.17675781 C197.5057727 227.44307289 196.24164531 200.90139202 190.6875 177.375 C190.50558105 176.56111816 190.32366211 175.74723633 190.13623047 174.90869141 C179.13154996 126.1596286 148.7225893 81.81413948 106.37988281 54.90869141 C85.20411641 41.94954083 62.94292446 31.23189663 38.29150391 26.84594727 C36.60938524 26.5417276 34.93113204 26.21487626 33.25878906 25.86083984 C24.53188888 24.15202059 15.96351498 24.06999925 7.10839844 24.11425781 C4.58764087 24.12489392 2.06760982 24.11435311 -0.453125 24.1015625 C-16.15043666 24.085747 -31.33732966 25.50350959 -46.625 29.1875 Z " fill="#F28F55" transform="translate(269.3125,52.625)"/>
<path d="M0 0 C3.33534994 -0.06266837 6.66448437 -0.05189628 10 0 C10.69480469 0.00386719 11.38960938 0.00773437 12.10546875 0.01171875 C29.53082532 0.98915655 45.76666298 11.99447999 57.1953125 24.37890625 C69.73326594 39.22899179 74.2983121 56.69235279 73.20214844 75.78320312 C72.64608754 81.88106897 71.06182838 87.76018875 69.16015625 93.5625 C68.74102071 96.1234001 68.74102071 96.1234001 70.5546875 98.2890625 C71.32039062 99.05992187 72.08609375 99.83078125 72.875 100.625 C76.17420883 104.0716311 79.32271202 107.53059404 82.3125 111.25 C85.76842033 115.51731033 89.29377899 119.71311775 92.875 123.875 C98.15995661 130.01704453 103.40532727 136.19092278 108.63232422 142.38232422 C110.02459417 144.02908979 111.42005473 145.67310067 112.81640625 147.31640625 C117.04853633 152.30026248 121.25737398 157.29559272 125.375 162.375 C129.53784111 167.49275807 133.81855996 172.5038137 138.21801758 177.41967773 C140.7770947 180.30146787 143.14962786 183.08795388 145.12890625 186.40234375 C147.23108714 189.70213072 148.74486672 191.80446873 152 194 C157.8352124 195.1014575 163.83574665 194.41173989 169.72265625 194.06591797 C181.17111705 193.73454099 194.1555413 201.1468379 202.5 208.5 C204.01970186 209.9800359 205.52209589 211.4782249 207 213 C207.56074219 213.54011719 208.12148438 214.08023438 208.69921875 214.63671875 C218.62345565 224.97772151 222.91136 240.01661755 223.375 254 C223.18428933 260.72936207 222.20866796 267.62849283 220 274 C219.01 274.33 218.02 274.66 217 275 C216.50113281 274.37996094 216.00226563 273.75992187 215.48828125 273.12109375 C210.38684868 266.82902162 205.15053183 260.67901709 199.82202148 254.57910156 C195.69182647 249.83767904 191.70984247 245.00355587 187.8046875 240.07421875 C185.98683406 237.80083228 185.98683406 237.80083228 183 236 C182.00033203 236.92619141 182.00033203 236.92619141 180.98046875 237.87109375 C175.44716919 242.95553824 169.82709807 247.84160674 163.9765625 252.5625 C159.84547462 255.94543811 155.80622285 259.4317239 151.77026367 262.92724609 C148.91579048 265.3919338 146.06013692 267.78948341 143 270 C144.65185269 273.91725066 147.30421439 276.89091773 150.0625 280.0625 C151.06587484 281.23110957 152.06846857 282.40039022 153.0703125 283.5703125 C153.56821289 284.15071289 154.06611328 284.73111328 154.57910156 285.32910156 C156.56882016 287.66890123 158.50420597 290.05097953 160.4375 292.4375 C165.83122974 299.06688419 171.41755418 305.52965248 177 312 C174.09403714 314.90596286 170.92090514 314.72276428 167 315 C166.25492188 315.05414063 165.50984375 315.10828125 164.7421875 315.1640625 C148.97582029 315.73643887 133.37808939 309.84426011 121.4375 299.625 C109.69913603 288.14267417 102.0695249 273.23654807 101.70166016 256.70678711 C101.66286623 250.66095494 102.00737354 245.69849493 103.8125 239.875 C104.42475513 236.81791786 104.54914553 234.94793595 102.96386719 232.21142578 C99.88188342 228.06687312 96.3024635 224.40156076 92.67724609 220.73388672 C90.46020547 218.4419766 88.47889421 215.99867881 86.5 213.5 C82.92458474 209.08331056 79.23400652 204.78219615 75.5 200.5 C71.00252023 195.34148689 66.61004548 190.11842906 62.30078125 184.80078125 C59.11964796 180.92833207 55.85246445 177.13271217 52.58398438 173.33398438 C47.81906286 167.79604644 43.09825783 162.22177723 38.38525391 156.63964844 C36.93911869 154.92793816 35.49127909 153.21768266 34.04296875 151.5078125 C33.31025757 150.64265015 33.31025757 150.64265015 32.56274414 149.76000977 C31.63888944 148.66923685 30.71490915 147.57857029 29.79077148 146.48803711 C26.03589176 142.05292037 26.03589176 142.05292037 24.81542969 140.25341797 C23.51240076 138.30232706 23.51240076 138.30232706 21 136 C17.64895259 136.01253648 17.64895259 136.01253648 14 137 C-7.60632175 138.37067677 -25.0818463 133.77546605 -41.91796875 119.53125 C-54.92210347 107.33426847 -62.80389458 90.84512126 -64 73 C-63.98239878 65.28890725 -63.38910055 57.58662609 -62 50 C-58.29983605 51.23338798 -57.45296966 52.63820444 -55.0625 55.6875 C-51.49487699 60.15714763 -47.86054562 64.54477962 -44.125 68.875 C-40.08569763 73.56790907 -36.06075536 78.27204589 -32.0625 83 C-31.62631348 83.51546387 -31.19012695 84.03092773 -30.74072266 84.56201172 C-27.81133821 88.02831838 -24.9022904 91.5110212 -22 95 C-18.60256975 93.48133302 -15.98381716 91.49720998 -13.125 89.125 C-12.15820312 88.32320313 -11.19140625 87.52140625 -10.1953125 86.6953125 C-6.1664019 83.30982119 -2.17808041 79.87696601 1.80834961 76.44165039 C5.31045833 73.42885254 8.84696916 70.47013642 12.4375 67.5625 C16.9837984 63.86736593 21.44240305 60.08003492 25.875 56.25 C26.50591553 55.70674072 27.13683105 55.16348145 27.78686523 54.60375977 C31.33439587 51.52563694 34.72258014 48.36465157 38 45 C37.34 45 36.68 45 36 45 C34.64617851 43.51261765 33.36860114 41.95569449 32.125 40.375 C28.53444185 35.88680231 24.87887017 31.4774275 21.125 27.125 C20.10660323 25.94155046 19.08837505 24.75795581 18.0703125 23.57421875 C17.5640332 22.98560059 17.05775391 22.39698242 16.53613281 21.79052734 C14.01268193 18.84917503 11.50462796 15.89488436 9 12.9375 C8.55543457 12.41365723 8.11086914 11.88981445 7.65283203 11.35009766 C6.42981165 9.90462496 5.21471287 8.45246095 4 7 C3.236875 6.09378906 2.47375 5.18757813 1.6875 4.25390625 C0 2 0 2 0 0 Z " fill="#B8383B" transform="translate(190,108)"/>
<path d="M0 0 C1.22662354 0.27166992 1.22662354 0.27166992 2.47802734 0.54882812 C10.19220918 2.30322399 17.53708347 4.78063636 24.86328125 7.75 C26.8385442 8.53715336 28.83523673 9.27422273 30.85546875 9.9375 C62.93720057 20.78680429 93.51247745 46.49491989 114 73 C114.41717285 73.53012695 114.8343457 74.06025391 115.26416016 74.60644531 C126.75189874 89.27363581 136.41287802 105.54711185 143 123 C143.24411621 123.62729004 143.48823242 124.25458008 143.73974609 124.90087891 C161.83854484 171.64179939 161.19508866 222.99952281 144.9375 270.125 C144.69201416 270.83688477 144.44652832 271.54876953 144.19360352 272.28222656 C142.80799688 276.15728325 141.14879819 279.50610996 139 283 C138.27244077 284.6969664 137.54591337 286.39443855 136.83544922 288.09863281 C124.58498688 315.97899538 103.01381031 341.56255101 79 360 C77.98808594 360.77859375 76.97617187 361.5571875 75.93359375 362.359375 C65.88052144 369.89502382 54.9994392 375.96804947 44 382 C42.36224609 382.91458984 42.36224609 382.91458984 40.69140625 383.84765625 C24.9026431 392.24593452 7.41915253 396.52855587 -10 400 C-10.77601563 400.16516113 -11.55203125 400.33032227 -12.3515625 400.50048828 C-27.47379763 403.68498335 -42.61090371 403.38068265 -58 403 C-58.79986328 402.98453125 -59.59972656 402.9690625 -60.42382812 402.953125 C-76.57055901 402.5801495 -92.63469506 398.76785212 -108 394 C-108.87527344 393.75507813 -109.75054687 393.51015625 -110.65234375 393.2578125 C-133.61486985 386.80073565 -155.65031827 374.0948818 -174 359 C-174.57637207 358.5265918 -175.15274414 358.05318359 -175.74658203 357.56542969 C-187.64421718 347.72381503 -198.56758207 337.28522964 -208 325 C-209.16789062 323.48212891 -209.16789062 323.48212891 -210.359375 321.93359375 C-215.56365898 314.99037584 -220.05901851 307.71222512 -224.375 300.1875 C-224.87491455 299.31625488 -225.3748291 298.44500977 -225.88989258 297.54736328 C-228.92786261 292.15462025 -231.59002517 286.69897596 -234 281 C-234.51820313 279.80503906 -235.03640625 278.61007812 -235.5703125 277.37890625 C-241.31796661 263.79496962 -245.0885288 250.44876281 -248 236 C-248.2371875 234.83082031 -248.474375 233.66164063 -248.71875 232.45703125 C-254.4091828 201.45254078 -251.22154852 167.97936625 -242 138 C-241.75378906 137.11957031 -241.50757813 136.23914063 -241.25390625 135.33203125 C-234.75482649 112.23643143 -221.97031707 90.56986783 -207 72 C-206.29359375 71.08863281 -205.5871875 70.17726563 -204.859375 69.23828125 C-195.6160669 57.51297376 -184.85312304 47.06320428 -173 38 C-172.21133545 37.3807666 -172.21133545 37.3807666 -171.40673828 36.74902344 C-158.0335161 26.27223413 -143.1549432 16.54404854 -126.984375 11.0625 C-124.50632904 10.18026374 -122.20721815 9.1945304 -119.82421875 8.09375 C-82.80143397 -8.54224233 -38.97775173 -8.78775871 0 0 Z M-94.3125 10.8125 C-95.42987549 11.07748291 -96.54725098 11.34246582 -97.69848633 11.61547852 C-105.44770757 13.50422023 -112.7317547 15.67849005 -120 19 C-121.71703125 19.75023437 -121.71703125 19.75023437 -123.46875 20.515625 C-143.17832036 29.27659706 -161.0254717 40.25873113 -176.84375 54.99609375 C-178.84701924 56.85782767 -180.90573297 58.6173116 -183 60.375 C-211.54221803 85.49898832 -230.56303216 124.09921168 -238 161 C-238.22429687 162.08063721 -238.22429687 162.08063721 -238.453125 163.18310547 C-240.83775039 175.19103054 -241.28780864 187.11129859 -241.3125 199.3125 C-241.31608521 200.02162537 -241.31967041 200.73075073 -241.32336426 201.46136475 C-241.35876594 214.47148433 -240.5060845 227.44630454 -237.125 240.0625 C-236.86674438 241.0376355 -236.86674438 241.0376355 -236.60327148 242.0324707 C-236.24885413 243.36745884 -235.89045172 244.70139616 -235.52783203 246.03417969 C-235.00568931 247.97881112 -234.51266347 249.92869709 -234.02734375 251.8828125 C-227.66353585 276.97734243 -214.87366954 301.29901328 -198 321 C-197.05018063 322.13361162 -196.1010079 323.26776521 -195.15234375 324.40234375 C-185.90550753 335.40069866 -176.26271993 344.99463302 -164.78222656 353.64892578 C-163.12934184 354.90194825 -161.49728202 356.18231302 -159.8671875 357.46484375 C-152.45121613 363.08604072 -144.61160835 367.54836986 -136.375 371.875 C-135.33819092 372.42269043 -134.30138184 372.97038086 -133.2331543 373.53466797 C-126.32868433 377.07679495 -119.41021818 379.72279754 -112 382 C-110.51933385 382.49554192 -109.03984401 382.99464003 -107.5625 383.5 C-106.04184366 384.00053804 -104.52099567 384.50049403 -103 385 C-102.06027344 385.3196875 -101.12054688 385.639375 -100.15234375 385.96875 C-93.95077004 387.99751761 -87.79066218 389.54757431 -81.375 390.6875 C-80.70726562 390.80673828 -80.03953125 390.92597656 -79.3515625 391.04882812 C-48.52556406 396.21636469 -14.30008252 394.19197145 15 383 C15.7532959 382.72317383 16.5065918 382.44634766 17.28271484 382.16113281 C41.93509803 373.06340512 63.32796618 360.36857899 83 343 C83.84433594 342.278125 84.68867188 341.55625 85.55859375 340.8125 C90.50977237 336.53762065 94.8468499 332.04717458 99 327 C99.63977783 326.24468994 99.63977783 326.24468994 100.29248047 325.47412109 C112.10478031 311.51265582 121.24685833 296.32598309 129.10668945 279.84375 C130.06460373 277.866661 131.06748115 275.915581 132.0703125 273.9609375 C138.11446813 261.88428605 141.07104753 248.10906931 144 235 C144.16806152 234.27458008 144.33612305 233.54916016 144.50927734 232.80175781 C149.8182727 209.06807289 148.55414531 182.52639202 143 159 C142.81808105 158.18611816 142.63616211 157.37223633 142.44873047 156.53369141 C131.44404996 107.7846286 101.0350893 63.43913948 58.69238281 36.53369141 C37.51661641 23.57454083 15.25542446 12.85689663 -9.39599609 8.47094727 C-11.07811476 8.1667276 -12.75636796 7.83987626 -14.42871094 7.48583984 C-23.15561112 5.77702059 -31.72398502 5.69499925 -40.57910156 5.73925781 C-43.09985913 5.74989392 -45.61989018 5.73935311 -48.140625 5.7265625 C-63.83793666 5.710747 -79.02482966 7.12850959 -94.3125 10.8125 Z " fill="#B93A3B" transform="translate(317,71)"/>
</svg>
