<?xml version="1.0" encoding="UTF-8"?>
<svg version="1.1" xmlns="http://www.w3.org/2000/svg" width="540" height="540">
<path d="M0 0 C0.92336151 0.00087616 1.84672302 0.00175232 2.79806519 0.00265503 C18.08207827 0.0503428 32.73854206 0.93246431 47.6875 4.375 C48.71504395 4.61105957 49.74258789 4.84711914 50.80126953 5.09033203 C100.59667952 16.98142994 146.84092452 46.38420318 176.6875 88.375 C177.10402832 88.95781738 177.52055664 89.54063477 177.94970703 90.14111328 C204.34649796 127.47328365 218.16870471 171.00459479 218.0625 216.6875 C218.06162384 217.61086151 218.06074768 218.53422302 218.05984497 219.48556519 C218.0121572 234.76957827 217.13003569 249.42604206 213.6875 264.375 C213.45144043 265.40254395 213.21538086 266.43008789 212.97216797 267.48876953 C201.08107006 317.28417952 171.67829682 363.52842452 129.6875 393.375 C129.10468262 393.79152832 128.52186523 394.20805664 127.92138672 394.63720703 C90.58921635 421.03399796 47.05790521 434.85620471 1.375 434.75 C-0.01004227 434.74868576 -0.01004227 434.74868576 -1.42306519 434.74734497 C-16.70707827 434.6996572 -31.36354206 433.81753569 -46.3125 430.375 C-47.34004395 430.13894043 -48.36758789 429.90288086 -49.42626953 429.65966797 C-99.22167952 417.76857006 -145.46592452 388.36579682 -175.3125 346.375 C-175.72902832 345.79218262 -176.14555664 345.20936523 -176.57470703 344.60888672 C-202.97149796 307.27671635 -216.79370471 263.74540521 -216.6875 218.0625 C-216.68662384 217.13913849 -216.68574768 216.21577698 -216.68484497 215.26443481 C-216.6371572 199.98042173 -215.75503569 185.32395794 -212.3125 170.375 C-212.07644043 169.34745605 -211.84038086 168.31991211 -211.59716797 167.26123047 C-199.70607006 117.46582048 -170.30329682 71.22157548 -128.3125 41.375 C-127.72968262 40.95847168 -127.14686523 40.54194336 -126.54638672 40.11279297 C-89.21421635 13.71600204 -45.68290521 -0.10620471 0 0 Z " fill="#F1A857" transform="translate(269.3125,52.625)"/>
<path d="M0 0 C0.98323242 0.5762915 1.96646484 1.15258301 2.97949219 1.74633789 C10.47853608 6.48300993 13.78569109 10.55863912 16.140625 19.02734375 C16.38296875 20.15269531 16.6253125 21.27804688 16.875 22.4375 C17.52181941 24.44400669 18.18194614 26.44649001 18.875 28.4375 C19.42736328 28.41429687 19.97972656 28.39109375 20.54882812 28.3671875 C30.5844566 28.13438087 39.17984614 28.74360708 47.07836914 35.43945312 C52.48891643 40.72536806 56.61473884 45.45252509 57.00268555 53.24780273 C56.8990948 56.72759815 56.45179361 59.99721622 55.875 63.4375 C55.67925433 64.93660969 55.4902688 66.43662012 55.30859375 67.9375 C55.16550781 69.0925 55.02242187 70.2475 54.875 71.4375 C55.56464844 71.49808594 56.25429688 71.55867188 56.96484375 71.62109375 C58.92645403 71.79599727 60.88737482 71.9787524 62.84765625 72.16796875 C64.70664941 72.33347911 66.56907383 72.46822999 68.43359375 72.55078125 C69.19800781 72.59589844 69.96242188 72.64101562 70.75 72.6875 C71.42804688 72.71328125 72.10609375 72.7390625 72.8046875 72.765625 C78.41507572 74.58635476 82.45768757 81.43705432 86.0625 85.9375 C86.86204102 86.91396484 86.86204102 86.91396484 87.67773438 87.91015625 C88.19013672 88.54824219 88.70253906 89.18632812 89.23046875 89.84375 C89.69090576 90.41416016 90.15134277 90.98457031 90.62573242 91.57226562 C92.92939457 95.01177683 94.03095598 97.29421988 93.45947266 101.48364258 C93.1557373 102.58861084 92.85200195 103.6935791 92.5390625 104.83203125 C92.21679688 106.03408203 91.89453125 107.23613281 91.5625 108.47460938 C91.211875 109.72048828 90.86125 110.96636719 90.5 112.25 C90.15710938 113.51521484 89.81421875 114.78042969 89.4609375 116.08398438 C88.61272513 119.20587713 87.75033403 122.32312363 86.875 125.4375 C87.535 125.1075 88.195 124.7775 88.875 124.4375 C92.34921463 123.78702561 95.41294956 123.67352433 98.875 124.4375 C101.86845546 126.85865541 103.72645775 129.81577176 105.75 133.0625 C106.29140625 133.87074219 106.8328125 134.67898438 107.390625 135.51171875 C108.44305552 137.09036453 109.47480736 138.68303049 110.48339844 140.29003906 C111.95924644 142.64977164 111.95924644 142.64977164 114.3203125 145.4609375 C116.56355519 149.75578908 115.75651052 152.80254848 114.875 157.4375 C114.59684441 159.27591902 114.31953318 161.11446594 114.04296875 162.953125 C113.71949551 164.86515304 113.39263333 166.77661063 113.0625 168.6875 C112.90974609 169.65429688 112.75699219 170.62109375 112.59960938 171.6171875 C111.20233702 179.63631581 108.57365498 183.46534201 101.9375 188.25 C100.8753125 189.02859375 99.813125 189.8071875 98.71875 190.609375 C97.81382812 191.27163086 97.81382812 191.27163086 96.890625 191.94726562 C92.87150502 194.91876615 88.9093704 197.96582085 84.9375 201 C83.1068199 202.39589768 81.27608995 203.79173 79.4453125 205.1875 C75.81434178 207.95733585 72.18432783 210.72842114 68.5546875 213.5 C59.02569178 220.77271089 49.47777949 228.01773845 39.86694336 235.18212891 C36.16721279 237.94456465 32.48818244 240.72262143 28.875 243.59765625 C28.27623047 244.07154785 27.67746094 244.54543945 27.06054688 245.03369141 C25.50261315 246.27344921 23.95399646 247.52489103 22.40625 248.77734375 C19.875 250.4375 19.875 250.4375 15.875 250.4375 C13.62011719 249.58300781 13.62011719 249.58300781 11.171875 248.390625 C10.27339844 247.9575 9.37492188 247.524375 8.44921875 247.078125 C7.51722656 246.61921875 6.58523438 246.1603125 5.625 245.6875 C4.70847656 245.2440625 3.79195312 244.800625 2.84765625 244.34375 C-2.49794051 241.75102119 -7.81609328 239.10441558 -13.125 236.4375 C-11.78425383 233.47545237 -10.28593147 231.32279116 -8.04296875 228.9765625 C-7.44033203 228.33976563 -6.83769531 227.70296875 -6.21679688 227.046875 C-5.27416992 226.06460938 -5.27416992 226.06460938 -4.3125 225.0625 C-3.07526594 223.76450314 -1.83956459 222.46504345 -0.60546875 221.1640625 C-0.0129834 220.54047852 0.57950195 219.91689453 1.18994141 219.27441406 C2.76890687 217.55315412 4.24049375 215.78420992 5.69921875 213.9609375 C6.41722656 213.12820313 7.13523437 212.29546875 7.875 211.4375 C8.535 211.4375 9.195 211.4375 9.875 211.4375 C10.1428833 210.84291992 10.4107666 210.24833984 10.68676758 209.63574219 C11.88710673 207.41510243 13.08202998 206.0131393 14.88671875 204.265625 C15.47630371 203.6876416 16.06588867 203.1096582 16.67333984 202.51416016 C17.2967627 201.9113623 17.92018555 201.30856445 18.5625 200.6875 C22.98808567 196.34260366 27.29258382 191.99757252 31.27734375 187.23828125 C33.77698338 184.42083903 36.57503016 181.91470242 39.37109375 179.39453125 C41.26342748 176.93203983 41.17346301 175.46925582 40.875 172.4375 C35.72388305 175.01305847 32.33167719 178.94337881 28.5 183.125 C27.80463135 183.87378418 27.1092627 184.62256836 26.39282227 185.39404297 C24.94110405 186.95738138 23.49166953 188.5228433 22.04443359 190.09033203 C18.64996963 193.76289297 15.23130918 197.4126199 11.8125 201.0625 C11.21840332 201.70018311 10.62430664 202.33786621 10.01220703 202.99487305 C7.10873505 206.10223365 4.17035891 209.15970123 1.15234375 212.15625 C-1.1718496 214.46457966 -3.39165146 216.80256127 -5.5 219.3125 C-8.20717098 222.41599106 -10.93485577 225.49376155 -13.75 228.5 C-14.46414063 229.27472656 -15.17828125 230.04945313 -15.9140625 230.84765625 C-18.125 232.4375 -18.125 232.4375 -20.26733398 232.26879883 C-24.08691395 231.15767796 -27.50097216 229.48960742 -31.05859375 227.7265625 C-31.81415054 227.3577597 -32.56970734 226.98895691 -33.34815979 226.60897827 C-35.75563501 225.43223204 -38.15906729 224.24747734 -40.5625 223.0625 C-42.17487286 222.27291176 -43.7875006 221.48384378 -45.40039062 220.6953125 C-51.65450351 217.6343506 -57.90059596 214.55853053 -64.125 211.4375 C-60.32619812 205.97020474 -56.11057632 201.29989828 -51.34765625 196.65625 C-49.33764929 194.64977557 -47.46988546 192.59486026 -45.625 190.4375 C-43.07808392 187.46609791 -40.41121141 184.6860599 -37.625 181.9375 C-34.30154741 178.65314685 -31.18129605 175.27964273 -28.13671875 171.73828125 C-21.90376 164.60971289 -15.44355342 157.66950553 -8.69140625 151.03125 C-6.35891332 148.65804023 -4.19807239 146.14860168 -2.03515625 143.62109375 C-0.61754805 142.00055595 0.83950827 140.41434962 2.31640625 138.84765625 C3.55197266 137.53087891 3.55197266 137.53087891 4.8125 136.1875 C5.58464844 135.37796875 6.35679687 134.5684375 7.15234375 133.734375 C9.275 131.38268229 9.275 131.38268229 8.875 127.4375 C7.885 127.1075 6.895 126.7775 5.875 126.4375 C5.63136719 127.00984375 5.38773438 127.5821875 5.13671875 128.171875 C3.64982702 130.84183538 1.89416092 132.57579007 -0.3125 134.6875 C-3.85265966 138.08506129 -7.08761205 141.64999686 -10.29760742 145.35400391 C-13.18258283 148.64329984 -16.18374377 151.81945769 -19.1875 155 C-20.50664877 156.40221361 -21.8256558 157.80456057 -23.14453125 159.20703125 C-23.80662598 159.91037598 -24.4687207 160.6137207 -25.15087891 161.33837891 C-28.23241958 164.61504063 -31.3051464 167.89989009 -34.375 171.1875 C-34.95652832 171.81027832 -35.53805664 172.43305664 -36.13720703 173.07470703 C-39.63262689 176.82326055 -43.10539973 180.59108376 -46.5625 184.375 C-51.06225553 189.29053026 -55.58324786 194.18573177 -60.125 199.0625 C-60.77267334 199.76238037 -61.42034668 200.46226074 -62.08764648 201.18334961 C-62.69809814 201.83698486 -63.3085498 202.49062012 -63.9375 203.1640625 C-64.75154297 204.03925537 -64.75154297 204.03925537 -65.58203125 204.93212891 C-67.125 206.4375 -67.125 206.4375 -70.125 208.4375 C-79.51634406 204.47256656 -86.38369625 200.34119885 -92.79199219 192.14013672 C-94.323493 190.183967 -95.90161228 188.2689888 -97.4765625 186.34765625 C-98.61260904 184.92184163 -99.74545171 183.49346811 -100.875 182.0625 C-101.42559082 181.38453369 -101.97618164 180.70656738 -102.54345703 180.00805664 C-103.93198578 178.18953044 -105.14164625 176.50321862 -106.125 174.4375 C-105.49796721 170.00948495 -102.59826404 167.62119133 -99.4375 164.625 C-95.6793215 160.9856145 -92.16842976 157.27279613 -88.76953125 153.30078125 C-86.61100037 150.85512987 -84.29465267 148.59452888 -81.96728516 146.31103516 C-80.1933474 144.50700675 -78.53544191 142.64893374 -76.88671875 140.73046875 C-73.17784026 136.46501351 -69.32768209 132.34979268 -65.4375 128.25 C-60.59757564 123.12898301 -55.77026199 117.9985225 -51 112.8125 C-44.41311596 105.65190121 -37.76981991 98.54431183 -31.125 91.4375 C-31.455 90.4475 -31.785 89.4575 -32.125 88.4375 C-33.115 88.1075 -34.105 87.7775 -35.125 87.4375 C-35.3928833 88.03208008 -35.6607666 88.62666016 -35.93676758 89.23925781 C-37.13710673 91.45989757 -38.33202998 92.8618607 -40.13671875 94.609375 C-41.02713867 95.48335937 -41.02713867 95.48335937 -41.93554688 96.375 C-42.86463867 97.2721875 -42.86463867 97.2721875 -43.8125 98.1875 C-48.2078538 102.45538382 -52.38866363 106.80533362 -56.38989258 111.44628906 C-59.2163806 114.68996942 -62.17187189 117.80944239 -65.125 120.9375 C-66.44272138 122.3385294 -67.76042932 123.73957144 -69.078125 125.140625 C-69.74650391 125.85025391 -70.41488281 126.55988281 -71.10351562 127.29101562 C-83.90947583 140.88884197 -96.5726006 154.60535489 -109.125 168.4375 C-111.88278723 165.0822619 -113.70422198 161.42859381 -115.515625 157.51171875 C-115.82449646 156.84590286 -116.13336792 156.18008698 -116.45159912 155.49409485 C-117.09981518 154.08925332 -117.74512591 152.68306801 -118.38769531 151.27563477 C-119.37038283 149.13505752 -120.37626639 147.00639341 -121.3828125 144.87695312 C-122.0118873 143.50588213 -122.63953916 142.1341572 -123.265625 140.76171875 C-123.56760803 140.13230881 -123.86959106 139.50289886 -124.1807251 138.85441589 C-126.2056639 134.31201513 -126.29248139 131.23851242 -125.125 126.4375 C-124.17626953 123.98828125 -124.17626953 123.98828125 -123.0078125 121.75 C-122.57130371 120.89825195 -122.13479492 120.04650391 -121.68505859 119.16894531 C-121.21148926 118.26756836 -120.73791992 117.36619141 -120.25 116.4375 C-119.24289948 114.47492816 -118.23775141 112.51135342 -117.234375 110.546875 C-116.71810547 109.53947266 -116.20183594 108.53207031 -115.66992188 107.49414062 C-113.19557725 102.59862945 -110.84776712 97.644639 -108.5 92.6875 C-103.83689607 82.87136159 -99.02850215 73.13553758 -94.125 63.4375 C-94.455 63.1075 -94.785 62.7775 -95.125 62.4375 C-99.48590928 65.44735305 -101.62540216 68.66360722 -103.8125 73.375 C-104.14572266 74.0659375 -104.47894531 74.756875 -104.82226562 75.46875 C-105.9358568 77.78583697 -107.03079388 80.1112019 -108.125 82.4375 C-108.94312492 84.15797344 -109.76216074 85.87801397 -110.58203125 87.59765625 C-111.85756624 90.27465641 -113.13194792 92.95216105 -114.40185547 95.63183594 C-117.02378047 101.15880935 -119.69543494 106.65666292 -122.4375 112.125 C-122.76097412 112.77388184 -123.08444824 113.42276367 -123.41772461 114.09130859 C-124.82285045 116.89864582 -126.2577277 119.67988606 -127.765625 122.43359375 C-128.23484375 123.30113281 -128.7040625 124.16867187 -129.1875 125.0625 C-129.59097656 125.77664063 -129.99445313 126.49078125 -130.41015625 127.2265625 C-132.16967477 132.6685706 -129.20229154 137.9788118 -126.9296875 142.8828125 C-126.29013263 144.303281 -125.65081673 145.72385712 -125.01171875 147.14453125 C-124.00389494 149.36272927 -122.99236892 151.5791268 -121.97607422 153.79345703 C-120.99230391 155.94388107 -120.02280121 158.10030463 -119.0546875 160.2578125 C-118.74643036 160.91830597 -118.43817322 161.57879944 -118.12057495 162.25930786 C-116.95995361 164.85996174 -116.09472866 166.90461341 -116.25805664 169.77978516 C-117.80102126 172.73014556 -120.73150759 173.42474596 -123.6875 174.6875 C-125.48380859 175.46867187 -125.48380859 175.46867187 -127.31640625 176.265625 C-128.70666016 176.84570312 -128.70666016 176.84570312 -130.125 177.4375 C-130.87265625 176.40109375 -131.6203125 175.3646875 -132.390625 174.296875 C-133.3852298 172.92694764 -134.38003188 171.5571635 -135.375 170.1875 C-135.86613281 169.50558594 -136.35726562 168.82367188 -136.86328125 168.12109375 C-141.05797952 162.36037479 -144.41171439 158.56191024 -151.01464844 155.70166016 C-153.22273507 154.73456783 -155.37541538 153.7071007 -157.51953125 152.60546875 C-158.47629761 152.12243286 -158.47629761 152.12243286 -159.45239258 151.62963867 C-162.13626637 149.71672731 -163.21132919 147.53770522 -163.75 144.328125 C-163.87375 143.37421875 -163.9975 142.4203125 -164.125 141.4375 C-164.4647861 139.99133723 -164.82054242 138.54888308 -165.1875 137.109375 C-165.5850841 135.5108511 -165.98089688 133.91188567 -166.375 132.3125 C-166.65778809 131.16612061 -166.65778809 131.16612061 -166.94628906 129.99658203 C-169.09757635 120.42770593 -166.14864048 113.45630621 -162.375 104.6875 C-161.94445312 103.6665625 -161.51390625 102.645625 -161.0703125 101.59375 C-160.20211154 99.54541959 -159.32289424 97.50172292 -158.43261719 95.46289062 C-157.56420487 93.45367377 -156.72589196 91.43116603 -155.91894531 89.39648438 C-153.38351277 83.24460493 -151.18588504 79.70949185 -145.375 76.4375 C-144.03378137 75.61339972 -142.69263841 74.78917627 -141.3515625 73.96484375 C-140.30983887 73.34585205 -140.30983887 73.34585205 -139.24707031 72.71435547 C-135.68630613 70.57183399 -132.22731585 68.27444802 -128.75 66 C-127.31457796 65.07171581 -125.87837514 64.14463788 -124.44140625 63.21875 C-123.72742676 62.75855469 -123.01344727 62.29835938 -122.27783203 61.82421875 C-120.85444961 60.90736548 -119.430949 59.99069566 -118.00732422 59.07421875 C-114.48552076 56.80640933 -110.9686823 54.53169055 -107.4609375 52.2421875 C-104.49176486 50.30741883 -101.49501446 48.42714446 -98.4765625 46.5703125 C-88.7784943 40.50674262 -81.64483955 34.21702068 -74.59765625 25.24609375 C-71.99031289 22.04397179 -69.14673082 19.06316304 -66.3125 16.0625 C-65.28417154 14.97228214 -64.256802 13.88115887 -63.23046875 12.7890625 C-62.71282959 12.25442383 -62.19519043 11.71978516 -61.66186523 11.16894531 C-60.0652283 9.45406381 -60.0652283 9.45406381 -58.77758789 7.38574219 C-54.18165062 0.82942739 -48.28154293 -0.34619315 -40.81445312 -1.75390625 C-39.27214833 -2.02351139 -37.72983052 -2.29304207 -36.1875 -2.5625 C-34.64855282 -2.86052812 -33.11013232 -3.16128948 -31.57226562 -3.46484375 C-30.08119417 -3.74983954 -28.58966861 -4.03247179 -27.09765625 -4.3125 C-26.41719742 -4.44052002 -25.73673859 -4.56854004 -25.03565979 -4.70043945 C-14.95659387 -6.45293118 -8.80130953 -5.16125262 0 0 Z " fill="#5885A1" transform="translate(285.125,149.5625)"/>
<path d="M0 0 C0.92336151 0.00087616 1.84672302 0.00175232 2.79806519 0.00265503 C18.08207827 0.0503428 32.73854206 0.93246431 47.6875 4.375 C48.71504395 4.61105957 49.74258789 4.84711914 50.80126953 5.09033203 C100.59667952 16.98142994 146.84092452 46.38420318 176.6875 88.375 C177.10402832 88.95781738 177.52055664 89.54063477 177.94970703 90.14111328 C204.34649796 127.47328365 218.16870471 171.00459479 218.0625 216.6875 C218.06162384 217.61086151 218.06074768 218.53422302 218.05984497 219.48556519 C218.0121572 234.76957827 217.13003569 249.42604206 213.6875 264.375 C213.45144043 265.40254395 213.21538086 266.43008789 212.97216797 267.48876953 C201.08107006 317.28417952 171.67829682 363.52842452 129.6875 393.375 C129.10468262 393.79152832 128.52186523 394.20805664 127.92138672 394.63720703 C90.58921635 421.03399796 47.05790521 434.85620471 1.375 434.75 C-0.01004227 434.74868576 -0.01004227 434.74868576 -1.42306519 434.74734497 C-16.70707827 434.6996572 -31.36354206 433.81753569 -46.3125 430.375 C-47.34004395 430.13894043 -48.36758789 429.90288086 -49.42626953 429.65966797 C-99.22167952 417.76857006 -145.46592452 388.36579682 -175.3125 346.375 C-175.72902832 345.79218262 -176.14555664 345.20936523 -176.57470703 344.60888672 C-202.97149796 307.27671635 -216.79370471 263.74540521 -216.6875 218.0625 C-216.68662384 217.13913849 -216.68574768 216.21577698 -216.68484497 215.26443481 C-216.6371572 199.98042173 -215.75503569 185.32395794 -212.3125 170.375 C-212.07644043 169.34745605 -211.84038086 168.31991211 -211.59716797 167.26123047 C-199.70607006 117.46582048 -170.30329682 71.22157548 -128.3125 41.375 C-127.72968262 40.95847168 -127.14686523 40.54194336 -126.54638672 40.11279297 C-89.21421635 13.71600204 -45.68290521 -0.10620471 0 0 Z M-49.3125 29.375 C-50.1979248 29.61605469 -51.08334961 29.85710937 -51.99560547 30.10546875 C-72.3034538 35.74881863 -92.12731132 45.17535402 -109.3125 57.375 C-110.25609375 58.02855469 -111.1996875 58.68210938 -112.171875 59.35546875 C-119.13582647 64.28334966 -126.0871624 69.52991862 -132.3125 75.375 C-132.3125 76.035 -132.3125 76.695 -132.3125 77.375 C-132.90675781 77.64441406 -133.50101563 77.91382813 -134.11328125 78.19140625 C-160.19091255 92.22608171 -178.1916399 136.59543822 -186.3125 163.375 C-194.10368227 190.9222155 -196.38836428 221.04192707 -191.3125 249.375 C-191.17827637 250.12458984 -191.04405273 250.87417969 -190.90576172 251.64648438 C-188.10538848 266.89192719 -184.09145094 281.39341369 -177.3125 295.375 C-176.64318892 296.84254683 -175.97677532 298.31141691 -175.3125 299.78125 C-166.48937143 319.13741578 -154.99631451 335.93703188 -140.3125 351.375 C-139.52214355 352.21417969 -139.52214355 352.21417969 -138.71582031 353.0703125 C-125.55144247 366.96645531 -111.08394658 378.15288249 -94.3125 387.375 C-93.6947168 387.7148291 -93.07693359 388.0546582 -92.44042969 388.40478516 C-76.63381135 396.96295163 -59.8755718 403.40065726 -42.25292969 406.97363281 C-40.35233264 407.36676084 -38.46103964 407.80404405 -36.5703125 408.2421875 C-23.85836281 411.16287616 -11.25506592 411.61238381 1.75 411.625 C2.47638672 411.62600708 3.20277344 411.62701416 3.95117188 411.62805176 C15.44786814 411.61730836 26.44728679 410.88047637 37.6875 408.375 C38.40744141 408.22514648 39.12738281 408.07529297 39.86914062 407.92089844 C52.83107464 405.22192809 65.65069239 401.79268674 77.390625 395.5390625 C79.64310343 394.3975003 81.87531759 393.54015442 84.25 392.6875 C100.78519205 386.22397909 116.3568845 374.77596176 129.2109375 362.69921875 C132.07082007 360.01525955 135.03348585 357.4730882 138.03125 354.9453125 C139.85349263 353.2176202 141.29879007 351.46653264 142.6875 349.375 C142.6875 348.715 142.6875 348.055 142.6875 347.375 C143.29335938 347.10171875 143.89921875 346.8284375 144.5234375 346.546875 C164.01028204 335.99443211 179.36553469 297.74044647 185.5 277.87109375 C192.42334086 253.06159237 192.42334086 253.06159237 194.78515625 227.59765625 C194.7837413 226.78630722 194.78232635 225.97495819 194.78086853 225.13902283 C194.77531357 222.57180953 194.76276967 220.00468652 194.75 217.4375 C194.74497917 215.68685023 194.74041729 213.93619907 194.73632812 212.18554688 C194.72535893 207.9153303 194.70812582 203.64518041 194.6875 199.375 C194.0275 199.375 193.3675 199.375 192.6875 199.375 C192.74550781 198.77558594 192.80351562 198.17617187 192.86328125 197.55859375 C194.71244373 160.41684446 171.87106006 117.85875842 147.80395508 90.93481445 C145.95014027 88.90346798 144.06441268 86.90484881 142.16308594 84.91796875 C141.17160187 83.88120844 140.18533023 82.8394404 139.20410156 81.79296875 C118.71740209 59.99352931 91.14862071 41.64960592 62.1875 33.375 C58.6875 32.375 58.6875 32.375 55.125 30.9375 C49.18403532 28.66662933 42.92746327 27.51560822 36.6875 26.375 C35.84388916 26.20363525 35.00027832 26.03227051 34.13110352 25.85571289 C23.15271546 23.85629295 12.12664592 23.93410926 1 23.9375 C-0.04540955 23.93676483 -1.09081909 23.93602966 -2.16790771 23.93527222 C-18.41352394 23.96529504 -33.61094152 24.8651301 -49.3125 29.375 Z " fill="#ECA659" transform="translate(269.3125,52.625)"/>
<path d="M0 0 C0.86351074 0.16628906 1.72702148 0.33257812 2.61669922 0.50390625 C22.42709773 4.47702239 41.27125459 11.33064127 59 21 C59.8957373 21.47904785 59.8957373 21.47904785 60.80957031 21.96777344 C107.65548147 47.11394373 142.00298513 91.01886732 157.78613281 141.51513672 C166.89469871 172.43372611 169.11449705 205.27803746 163 237 C162.83371094 237.86351074 162.66742188 238.72702148 162.49609375 239.61669922 C158.52297761 259.42709773 151.66935873 278.27125459 142 296 C141.68063477 296.5971582 141.36126953 297.19431641 141.03222656 297.80957031 C115.88605627 344.65548147 71.98113268 379.00298513 21.48486328 394.78613281 C-9.43372611 403.89469871 -42.27803746 406.11449705 -74 400 C-74.86351074 399.83371094 -75.72702148 399.66742188 -76.61669922 399.49609375 C-96.42709773 395.52297761 -115.27125459 388.66935873 -133 379 C-133.5971582 378.68063477 -134.19431641 378.36126953 -134.80957031 378.03222656 C-181.65548147 352.88605627 -216.00298513 308.98113268 -231.78613281 258.48486328 C-240.89469871 227.56627389 -243.11449705 194.72196254 -237 163 C-236.83371094 162.13648926 -236.66742188 161.27297852 -236.49609375 160.38330078 C-232.52297761 140.57290227 -225.66935873 121.72874541 -216 104 C-215.68063477 103.4028418 -215.36126953 102.80568359 -215.03222656 102.19042969 C-189.88605627 55.34451853 -145.98113268 20.99701487 -95.48486328 5.21386719 C-64.56627389 -3.89469871 -31.72196254 -6.11449705 0 0 Z M-87 12 C-87.8854248 12.24105469 -88.77084961 12.48210937 -89.68310547 12.73046875 C-109.9909538 18.37381863 -129.81481132 27.80035402 -147 40 C-147.94359375 40.65355469 -148.8871875 41.30710938 -149.859375 41.98046875 C-156.82332647 46.90834966 -163.7746624 52.15491862 -170 58 C-170 58.66 -170 59.32 -170 60 C-170.59425781 60.26941406 -171.18851563 60.53882813 -171.80078125 60.81640625 C-197.87841255 74.85108171 -215.8791399 119.22043822 -224 146 C-231.79118227 173.5472155 -234.07586428 203.66692707 -229 232 C-228.86577637 232.74958984 -228.73155273 233.49917969 -228.59326172 234.27148438 C-225.79288848 249.51692719 -221.77895094 264.01841369 -215 278 C-214.33068892 279.46754683 -213.66427532 280.93641691 -213 282.40625 C-204.17687143 301.76241578 -192.68381451 318.56203188 -178 334 C-177.20964355 334.83917969 -177.20964355 334.83917969 -176.40332031 335.6953125 C-163.23894247 349.59145531 -148.77144658 360.77788249 -132 370 C-131.3822168 370.3398291 -130.76443359 370.6796582 -130.12792969 371.02978516 C-114.32131135 379.58795163 -97.5630718 386.02565726 -79.94042969 389.59863281 C-78.03983264 389.99176084 -76.14853964 390.42904405 -74.2578125 390.8671875 C-61.54586281 393.78787616 -48.94256592 394.23738381 -35.9375 394.25 C-35.21111328 394.25100708 -34.48472656 394.25201416 -33.73632812 394.25305176 C-22.23963186 394.24230836 -11.24021321 393.50547637 0 391 C0.71994141 390.85014648 1.43988281 390.70029297 2.18164062 390.54589844 C15.14357464 387.84692809 27.96319239 384.41768674 39.703125 378.1640625 C41.95560343 377.0225003 44.18781759 376.16515442 46.5625 375.3125 C63.09769205 368.84897909 78.6693845 357.40096176 91.5234375 345.32421875 C94.38332007 342.64025955 97.34598585 340.0980882 100.34375 337.5703125 C102.16599263 335.8426202 103.61129007 334.09153264 105 332 C105 331.34 105 330.68 105 330 C105.60585938 329.72671875 106.21171875 329.4534375 106.8359375 329.171875 C126.32278204 318.61943211 141.67803469 280.36544647 147.8125 260.49609375 C154.73584086 235.68659237 154.73584086 235.68659237 157.09765625 210.22265625 C157.0962413 209.41130722 157.09482635 208.59995819 157.09336853 207.76402283 C157.08781357 205.19680953 157.07526967 202.62968652 157.0625 200.0625 C157.05747917 198.31185023 157.05291729 196.56119907 157.04882812 194.81054688 C157.03785893 190.5403303 157.02062582 186.27018041 157 182 C156.34 182 155.68 182 155 182 C155.05800781 181.40058594 155.11601562 180.80117187 155.17578125 180.18359375 C157.02494373 143.04184446 134.18356006 100.48375842 110.11645508 73.55981445 C108.26264027 71.52846798 106.37691268 69.52984881 104.47558594 67.54296875 C103.48410187 66.50620844 102.49783023 65.4644404 101.51660156 64.41796875 C81.02990209 42.61852931 53.46112071 24.27460592 24.5 16 C21 15 21 15 17.4375 13.5625 C11.49653532 11.29162933 5.23996327 10.14060822 -1 9 C-1.84361084 8.82863525 -2.68722168 8.65727051 -3.55639648 8.48071289 C-14.53478454 6.48129295 -25.56085408 6.55910926 -36.6875 6.5625 C-37.73290955 6.56176483 -38.77831909 6.56102966 -39.85540771 6.56027222 C-56.10102394 6.59029504 -71.29844152 7.4901301 -87 12 Z " fill="#5984A0" transform="translate(307,70)"/>
<path d="M0 0 C3.62387102 1.36859176 6.93833684 2.99181604 10.30859375 4.8984375 C11.30310547 5.46046875 12.29761719 6.0225 13.32226562 6.6015625 C14.35029297 7.18679688 15.37832031 7.77203125 16.4375 8.375 C17.46166016 8.9525 18.48582031 9.53 19.54101562 10.125 C24.48196555 12.92647064 29.33790471 15.75332644 34 19 C29.59156563 24.29012124 24.92440206 29.18808428 20 34 C17.16294606 31.48713502 15.56429149 28.68770976 13.75 25.37890625 C13.1415625 24.27869141 12.533125 23.17847656 11.90625 22.04492188 C11.2771875 20.89572266 10.648125 19.74652344 10 18.5625 C8.75267416 16.29149794 7.50277506 14.02190686 6.25 11.75390625 C5.69828125 10.74658447 5.1465625 9.7392627 4.578125 8.70141602 C3.07986922 6.01037761 3.07986922 6.01037761 1.296875 3.76538086 C0 2 0 2 0 0 Z " fill="#5A85A0" transform="translate(372,370)"/>
<path d="M0 0 C-0.591409 4.1141699 -1.95093157 7.0283862 -4.0546875 10.59765625 C-4.66957031 11.64630859 -5.28445312 12.69496094 -5.91796875 13.77539062 C-6.56378906 14.86013672 -7.20960938 15.94488281 -7.875 17.0625 C-8.51308594 18.15111328 -9.15117187 19.23972656 -9.80859375 20.36132812 C-14.95966379 29.09879035 -14.95966379 29.09879035 -18 33 C-20.34138543 30.71643754 -22.67166982 28.42186626 -25 26.125 C-25.66773438 25.47402344 -26.33546875 24.82304687 -27.0234375 24.15234375 C-27.97089844 23.21455078 -27.97089844 23.21455078 -28.9375 22.2578125 C-29.52402344 21.6817627 -30.11054688 21.10571289 -30.71484375 20.51220703 C-32 19 -32 19 -32 17 C-31.37544922 16.66266846 -30.75089844 16.32533691 -30.10742188 15.9777832 C-27.23682885 14.42535757 -24.36840837 12.86895823 -21.5 11.3125 C-20.51773438 10.78205078 -19.53546875 10.25160156 -18.5234375 9.70507812 C-13.40753172 6.92543599 -8.39874054 4.08466439 -3.54101562 0.87182617 C-2 0 -2 0 0 0 Z " fill="#5984A1" transform="translate(168,371)"/>
<path d="M0 0 C3.16854747 0.57691478 4.78226459 1.41646887 7.015625 3.72265625 C7.80839844 4.52993164 7.80839844 4.52993164 8.6171875 5.35351562 C9.15601563 5.91748047 9.69484375 6.48144531 10.25 7.0625 C10.80429687 7.63033203 11.35859375 8.19816406 11.9296875 8.78320312 C13.29334214 10.18212469 14.64760417 11.59019114 16 13 C13.70880079 15.51132047 11.35443683 17.08525036 8.39453125 18.7421875 C7.49283203 19.25136719 6.59113281 19.76054687 5.66210938 20.28515625 C4.72173828 20.80980469 3.78136719 21.33445313 2.8125 21.875 C0.96394705 22.91246638 -0.88372244 23.9515086 -2.73046875 24.9921875 C-3.62040527 25.49202148 -4.5103418 25.99185547 -5.42724609 26.50683594 C-8.50946119 28.29567894 -11.48313703 30.22340405 -14.43481445 32.21923828 C-15.2095813 32.60571533 -15.2095813 32.60571533 -16 33 C-16.66 32.67 -17.32 32.34 -18 32 C-17.63237549 31.35039307 -17.26475098 30.70078613 -16.88598633 30.03149414 C-15.19446501 27.04203251 -13.50347934 24.05226822 -11.8125 21.0625 C-11.23435547 20.04091797 -10.65621094 19.01933594 -10.06054688 17.96679688 C-6.68168512 11.99174755 -3.32196589 6.00688145 0 0 Z " fill="#5884A1" transform="translate(390,134)"/>
<path d="M0 0 C3.04633323 2.82664772 5.10730437 5.58735412 7.12890625 9.2109375 C7.68900391 10.20867187 8.24910156 11.20640625 8.82617188 12.234375 C9.39916016 13.27078125 9.97214844 14.3071875 10.5625 15.375 C11.13935547 16.40367187 11.71621094 17.43234375 12.31054688 18.4921875 C14.98369468 23.27733789 17.61656469 28.06348986 20 33 C16.01009247 31.51205745 12.38943676 29.63798882 8.67578125 27.55859375 C8.08830612 27.23085464 7.50083099 26.90311554 6.89555359 26.56544495 C5.03294771 25.52560784 3.17266806 24.48169073 1.3125 23.4375 C-0.5588709 22.39063805 -2.43070541 21.34460999 -4.3026886 20.29884338 C-5.99382869 19.35353017 -7.68383282 18.40618563 -9.3737793 17.45874023 C-10.9004218 16.6107632 -12.43802628 15.78098686 -14 15 C-14 14.34 -14 13.68 -14 13 C-13.34 13 -12.68 13 -12 13 C-12 12.34 -12 11.68 -12 11 C-11.34 11 -10.68 11 -10 11 C-10 10.34 -10 9.68 -10 9 C-8.57421875 7.59765625 -8.57421875 7.59765625 -6.6875 6.0625 C-4.33649789 4.13536829 -2.11764865 2.18280707 0 0 Z " fill="#5985A0" transform="translate(149,134)"/>
<path d="M0 0 C0.33 0.99 0.66 1.98 1 3 C0.34 3.66 -0.32 4.32 -1 5 C-1.66 5 -2.32 5 -3 5 C-4.36161311 5.96113866 -5.69855198 6.95884159 -7 8 C-5.50902342 4.2047869 -3.24299151 2.38957269 0 0 Z " fill="#DEA25F" transform="translate(191,210)"/>
</svg>
