<?xml version="1.0" encoding="UTF-8"?>
<svg version="1.1" xmlns="http://www.w3.org/2000/svg" width="540" height="540">
<path d="M0 0 C0.92336151 0.00087616 1.84672302 0.00175232 2.79806519 0.00265503 C18.08207827 0.0503428 32.73854206 0.93246431 47.6875 4.375 C48.71504395 4.61105957 49.74258789 4.84711914 50.80126953 5.09033203 C100.59667952 16.98142994 146.84092452 46.38420318 176.6875 88.375 C177.10402832 88.95781738 177.52055664 89.54063477 177.94970703 90.14111328 C204.34649796 127.47328365 218.16870471 171.00459479 218.0625 216.6875 C218.06162384 217.61086151 218.06074768 218.53422302 218.05984497 219.48556519 C218.0121572 234.76957827 217.13003569 249.42604206 213.6875 264.375 C213.45144043 265.40254395 213.21538086 266.43008789 212.97216797 267.48876953 C201.08107006 317.28417952 171.67829682 363.52842452 129.6875 393.375 C129.10468262 393.79152832 128.52186523 394.20805664 127.92138672 394.63720703 C90.58921635 421.03399796 47.05790521 434.85620471 1.375 434.75 C-0.01004227 434.74868576 -0.01004227 434.74868576 -1.42306519 434.74734497 C-16.70707827 434.6996572 -31.36354206 433.81753569 -46.3125 430.375 C-47.34004395 430.13894043 -48.36758789 429.90288086 -49.42626953 429.65966797 C-99.22167952 417.76857006 -145.46592452 388.36579682 -175.3125 346.375 C-175.72902832 345.79218262 -176.14555664 345.20936523 -176.57470703 344.60888672 C-202.97149796 307.27671635 -216.79370471 263.74540521 -216.6875 218.0625 C-216.68662384 217.13913849 -216.68574768 216.21577698 -216.68484497 215.26443481 C-216.6371572 199.98042173 -215.75503569 185.32395794 -212.3125 170.375 C-212.07644043 169.34745605 -211.84038086 168.31991211 -211.59716797 167.26123047 C-199.70607006 117.46582048 -170.30329682 71.22157548 -128.3125 41.375 C-127.72968262 40.95847168 -127.14686523 40.54194336 -126.54638672 40.11279297 C-89.21421635 13.71600204 -45.68290521 -0.10620471 0 0 Z " fill="#F29056" transform="translate(269.3125,52.625)"/>
<path d="M0 0 C0.92336151 0.00087616 1.84672302 0.00175232 2.79806519 0.00265503 C18.08207827 0.0503428 32.73854206 0.93246431 47.6875 4.375 C48.71504395 4.61105957 49.74258789 4.84711914 50.80126953 5.09033203 C100.59667952 16.98142994 146.84092452 46.38420318 176.6875 88.375 C177.10402832 88.95781738 177.52055664 89.54063477 177.94970703 90.14111328 C204.34649796 127.47328365 218.16870471 171.00459479 218.0625 216.6875 C218.06162384 217.61086151 218.06074768 218.53422302 218.05984497 219.48556519 C218.0121572 234.76957827 217.13003569 249.42604206 213.6875 264.375 C213.45144043 265.40254395 213.21538086 266.43008789 212.97216797 267.48876953 C201.08107006 317.28417952 171.67829682 363.52842452 129.6875 393.375 C129.10468262 393.79152832 128.52186523 394.20805664 127.92138672 394.63720703 C90.58921635 421.03399796 47.05790521 434.85620471 1.375 434.75 C-0.01004227 434.74868576 -0.01004227 434.74868576 -1.42306519 434.74734497 C-16.70707827 434.6996572 -31.36354206 433.81753569 -46.3125 430.375 C-47.34004395 430.13894043 -48.36758789 429.90288086 -49.42626953 429.65966797 C-99.22167952 417.76857006 -145.46592452 388.36579682 -175.3125 346.375 C-175.72902832 345.79218262 -176.14555664 345.20936523 -176.57470703 344.60888672 C-202.97149796 307.27671635 -216.79370471 263.74540521 -216.6875 218.0625 C-216.68662384 217.13913849 -216.68574768 216.21577698 -216.68484497 215.26443481 C-216.6371572 199.98042173 -215.75503569 185.32395794 -212.3125 170.375 C-212.07644043 169.34745605 -211.84038086 168.31991211 -211.59716797 167.26123047 C-199.70607006 117.46582048 -170.30329682 71.22157548 -128.3125 41.375 C-127.72968262 40.95847168 -127.14686523 40.54194336 -126.54638672 40.11279297 C-89.21421635 13.71600204 -45.68290521 -0.10620471 0 0 Z M-60.3125 22.375 C-62.08186163 22.88018325 -63.85250201 23.38093363 -65.625 23.875 C-87.59574176 30.55853657 -108.63709381 42.8515939 -126.3125 57.375 C-126.8782373 57.83777344 -127.44397461 58.30054688 -128.02685547 58.77734375 C-154.83786737 80.85436108 -176.90669871 108.67971079 -189.3125 141.375 C-189.66393066 142.28209717 -189.66393066 142.28209717 -190.02246094 143.20751953 C-196.22791234 159.34250014 -200.48362349 176.17080117 -202.3125 193.375 C-202.42335938 194.36628906 -202.53421875 195.35757813 -202.6484375 196.37890625 C-205.86366384 230.39947681 -201.57039523 266.17235239 -187.3125 297.375 C-186.66642898 298.86448026 -186.02059581 300.35406371 -185.375 301.84375 C-172.09675451 331.65521944 -151.12384577 358.42371042 -125.3125 378.375 C-124.78237305 378.79217285 -124.25224609 379.2093457 -123.70605469 379.63916016 C-109.03886419 391.12689874 -92.76538815 400.78787802 -75.3125 407.375 C-74.68520996 407.61911621 -74.05791992 407.86323242 -73.41162109 408.11474609 C-53.27340765 415.91257011 -31.90296809 420.62344629 -10.3125 421.375 C-9.31041504 421.41431641 -8.30833008 421.45363281 -7.27587891 421.49414062 C16.59907778 422.31537511 38.81322815 419.18907217 61.6875 412.375 C63.45796959 411.87371352 65.22872708 411.37344052 67 410.875 C71.77070726 409.42070376 76.17860958 407.49300904 80.6875 405.375 C81.92394724 404.82432494 83.16097869 404.27496062 84.3984375 403.7265625 C114.36618015 390.26443531 141.63329993 369.4945438 161.6875 343.375 C162.46609375 342.36308594 163.2446875 341.35117187 164.046875 340.30859375 C169.25115898 333.36537584 173.74651851 326.08722512 178.0625 318.5625 C178.56241455 317.69125488 179.0623291 316.82000977 179.57739258 315.92236328 C182.61536261 310.52962025 185.27752517 305.07397596 187.6875 299.375 C188.46480469 297.58255859 188.46480469 297.58255859 189.2578125 295.75390625 C195.00978561 282.15976215 198.78811244 268.83496927 201.6875 254.375 C201.93741699 253.20227539 201.93741699 253.20227539 202.19238281 252.00585938 C206.62289375 230.96322565 205.86256674 208.56627499 202.6875 187.375 C202.58034668 186.64394043 202.47319336 185.91288086 202.36279297 185.15966797 C200.87974066 175.31798603 198.61660837 165.89756688 195.6875 156.375 C195.31818359 155.05435547 195.31818359 155.05435547 194.94140625 153.70703125 C188.48140936 130.75031915 175.77943395 108.72109825 160.6875 90.375 C160.2140918 89.79862793 159.74068359 89.22225586 159.25292969 88.62841797 C149.41131503 76.73078282 138.97272964 65.80741793 126.6875 56.375 C125.67558594 55.59640625 124.66367187 54.8178125 123.62109375 54.015625 C116.67787584 48.81134102 109.39972512 44.31598149 101.875 40 C101.00375488 39.50008545 100.13250977 39.0001709 99.23486328 38.48510742 C94.46404035 35.79749241 89.66268635 33.38012267 84.63305664 31.21533203 C82.32203362 30.21714641 80.0746737 29.10369028 77.8125 28 C61.19715316 20.53911423 43.57922562 17.24867101 25.6875 14.375 C24.00829468 14.10453857 24.00829468 14.10453857 22.29516602 13.82861328 C-5.21214749 10.36995533 -34.12010637 13.72241756 -60.3125 22.375 Z " fill="#F28F55" transform="translate(269.3125,52.625)"/>
<path d="M0 0 C1.22662354 0.27166992 1.22662354 0.27166992 2.47802734 0.54882812 C10.19220918 2.30322399 17.53708347 4.78063636 24.86328125 7.75 C26.8385442 8.53715336 28.83523673 9.27422273 30.85546875 9.9375 C62.93720057 20.78680429 93.51247745 46.49491989 114 73 C114.41717285 73.53012695 114.8343457 74.06025391 115.26416016 74.60644531 C126.75189874 89.27363581 136.41287802 105.54711185 143 123 C143.24411621 123.62729004 143.48823242 124.25458008 143.73974609 124.90087891 C161.83854484 171.64179939 161.19508866 222.99952281 144.9375 270.125 C144.69201416 270.83688477 144.44652832 271.54876953 144.19360352 272.28222656 C142.80799688 276.15728325 141.14879819 279.50610996 139 283 C138.27244077 284.6969664 137.54591337 286.39443855 136.83544922 288.09863281 C124.58498688 315.97899538 103.01381031 341.56255101 79 360 C77.98808594 360.77859375 76.97617187 361.5571875 75.93359375 362.359375 C65.88052144 369.89502382 54.9994392 375.96804947 44 382 C42.36224609 382.91458984 42.36224609 382.91458984 40.69140625 383.84765625 C24.9026431 392.24593452 7.41915253 396.52855587 -10 400 C-10.77601563 400.16516113 -11.55203125 400.33032227 -12.3515625 400.50048828 C-27.47379763 403.68498335 -42.61090371 403.38068265 -58 403 C-58.79986328 402.98453125 -59.59972656 402.9690625 -60.42382812 402.953125 C-76.57055901 402.5801495 -92.63469506 398.76785212 -108 394 C-108.87527344 393.75507813 -109.75054687 393.51015625 -110.65234375 393.2578125 C-133.61486985 386.80073565 -155.65031827 374.0948818 -174 359 C-174.57637207 358.5265918 -175.15274414 358.05318359 -175.74658203 357.56542969 C-187.64421718 347.72381503 -198.56758207 337.28522964 -208 325 C-209.16789062 323.48212891 -209.16789062 323.48212891 -210.359375 321.93359375 C-215.56365898 314.99037584 -220.05901851 307.71222512 -224.375 300.1875 C-224.87491455 299.31625488 -225.3748291 298.44500977 -225.88989258 297.54736328 C-228.92786261 292.15462025 -231.59002517 286.69897596 -234 281 C-234.51820313 279.80503906 -235.03640625 278.61007812 -235.5703125 277.37890625 C-241.31796661 263.79496962 -245.0885288 250.44876281 -248 236 C-248.2371875 234.83082031 -248.474375 233.66164063 -248.71875 232.45703125 C-254.4091828 201.45254078 -251.22154852 167.97936625 -242 138 C-241.75378906 137.11957031 -241.50757813 136.23914063 -241.25390625 135.33203125 C-234.75482649 112.23643143 -221.97031707 90.56986783 -207 72 C-206.29359375 71.08863281 -205.5871875 70.17726563 -204.859375 69.23828125 C-195.6160669 57.51297376 -184.85312304 47.06320428 -173 38 C-172.21133545 37.3807666 -172.21133545 37.3807666 -171.40673828 36.74902344 C-158.0335161 26.27223413 -143.1549432 16.54404854 -126.984375 11.0625 C-124.50632904 10.18026374 -122.20721815 9.1945304 -119.82421875 8.09375 C-82.80143397 -8.54224233 -38.97775173 -8.78775871 0 0 Z M-94.3125 10.8125 C-95.42987549 11.07748291 -96.54725098 11.34246582 -97.69848633 11.61547852 C-105.44770757 13.50422023 -112.7317547 15.67849005 -120 19 C-121.71703125 19.75023437 -121.71703125 19.75023437 -123.46875 20.515625 C-143.17832036 29.27659706 -161.0254717 40.25873113 -176.84375 54.99609375 C-178.84701924 56.85782767 -180.90573297 58.6173116 -183 60.375 C-211.54221803 85.49898832 -230.56303216 124.09921168 -238 161 C-238.22429687 162.08063721 -238.22429687 162.08063721 -238.453125 163.18310547 C-240.83775039 175.19103054 -241.28780864 187.11129859 -241.3125 199.3125 C-241.31608521 200.02162537 -241.31967041 200.73075073 -241.32336426 201.46136475 C-241.35876594 214.47148433 -240.5060845 227.44630454 -237.125 240.0625 C-236.86674438 241.0376355 -236.86674438 241.0376355 -236.60327148 242.0324707 C-236.24885413 243.36745884 -235.89045172 244.70139616 -235.52783203 246.03417969 C-235.00568931 247.97881112 -234.51266347 249.92869709 -234.02734375 251.8828125 C-227.66353585 276.97734243 -214.87366954 301.29901328 -198 321 C-197.05018063 322.13361162 -196.1010079 323.26776521 -195.15234375 324.40234375 C-185.90550753 335.40069866 -176.26271993 344.99463302 -164.78222656 353.64892578 C-163.12934184 354.90194825 -161.49728202 356.18231302 -159.8671875 357.46484375 C-152.45121613 363.08604072 -144.61160835 367.54836986 -136.375 371.875 C-135.33819092 372.42269043 -134.30138184 372.97038086 -133.2331543 373.53466797 C-126.32868433 377.07679495 -119.41021818 379.72279754 -112 382 C-110.51933385 382.49554192 -109.03984401 382.99464003 -107.5625 383.5 C-106.04184366 384.00053804 -104.52099567 384.50049403 -103 385 C-102.06027344 385.3196875 -101.12054688 385.639375 -100.15234375 385.96875 C-93.95077004 387.99751761 -87.79066218 389.54757431 -81.375 390.6875 C-80.70726562 390.80673828 -80.03953125 390.92597656 -79.3515625 391.04882812 C-48.52556406 396.21636469 -14.30008252 394.19197145 15 383 C15.7532959 382.72317383 16.5065918 382.44634766 17.28271484 382.16113281 C41.93509803 373.06340512 63.32796618 360.36857899 83 343 C83.84433594 342.278125 84.68867188 341.55625 85.55859375 340.8125 C90.50977237 336.53762065 94.8468499 332.04717458 99 327 C99.63977783 326.24468994 99.63977783 326.24468994 100.29248047 325.47412109 C112.10478031 311.51265582 121.24685833 296.32598309 129.10668945 279.84375 C130.06460373 277.866661 131.06748115 275.915581 132.0703125 273.9609375 C138.11446813 261.88428605 141.07104753 248.10906931 144 235 C144.16806152 234.27458008 144.33612305 233.54916016 144.50927734 232.80175781 C149.8182727 209.06807289 148.55414531 182.52639202 143 159 C142.81808105 158.18611816 142.63616211 157.37223633 142.44873047 156.53369141 C131.44404996 107.7846286 101.0350893 63.43913948 58.69238281 36.53369141 C37.51661641 23.57454083 15.25542446 12.85689663 -9.39599609 8.47094727 C-11.07811476 8.1667276 -12.75636796 7.83987626 -14.42871094 7.48583984 C-23.15561112 5.77702059 -31.72398502 5.69499925 -40.57910156 5.73925781 C-43.09985913 5.74989392 -45.61989018 5.73935311 -48.140625 5.7265625 C-63.83793666 5.710747 -79.02482966 7.12850959 -94.3125 10.8125 Z " fill="#B93A3B" transform="translate(317,71)"/>
<path d="M0 0 C-0.48228251 10.24850343 -2.51348855 22.19898278 -8 31 C-10.49609375 32.72265625 -10.49609375 32.72265625 -13.4375 34.0625 C-14.50871094 34.5575 -15.57992187 35.0525 -16.68359375 35.5625 C-21.76746745 37.76611074 -26.86267421 39.92377507 -32 42 C-39.99513249 45.20596138 -39.99513249 45.20596138 -47.75 48.9375 C-51.44620789 50.84229425 -55.28795285 52.26362077 -59.1875 53.6875 C-65.87906287 56.13706132 -72.45055975 58.81776744 -79 61.625 C-79.87164795 61.99713623 -80.7432959 62.36927246 -81.64135742 62.75268555 C-85.55116441 64.44009961 -89.40652217 66.17578214 -93.19921875 68.11328125 C-97.70151848 70.40573142 -102.39200222 72.05458462 -107.14453125 73.75390625 C-110.48518136 75.21172757 -112.27104178 76.56677276 -113.93122864 79.83091736 C-116.18148959 86.32646175 -116.47167861 92.41764381 -116.51171875 99.25390625 C-116.52966995 100.39536606 -116.54762115 101.53682587 -116.56611633 102.71287537 C-116.6199442 106.32938025 -116.65402723 109.94575524 -116.6875 113.5625 C-116.72069729 116.02671068 -116.75518916 118.49090427 -116.79101562 120.95507812 C-116.87565481 126.96993552 -116.94412038 132.98481032 -117 139 C-116.01 139 -115.02 139 -114 139 C-114 130.42 -114 121.84 -114 113 C-94.95851414 107.68719036 -75.90861937 102.40525414 -56.84094238 97.18713379 C-54.86210433 96.64528872 -52.88350731 96.10256264 -50.90515137 95.55895996 C-48.12234194 94.79461372 -45.33865001 94.03357153 -42.5546875 93.2734375 C-41.71672638 93.0426651 -40.87876526 92.8118927 -40.01541138 92.5741272 C-34.22869607 91 -34.22869607 91 -32 91 C-36.99121064 102.84355066 -50.91695105 113.39097976 -62.39453125 118.13671875 C-66.51124441 119.50072716 -70.71972223 120.55948775 -74.94824219 121.51855469 C-79.24062887 122.53099861 -79.24062887 122.53099861 -82 126 C-80.80503906 126.30292969 -79.61007812 126.60585937 -78.37890625 126.91796875 C-66.97450191 129.88922659 -56.22644341 132.980009 -48 142 C-48 142.66 -48 143.32 -48 144 C-49.23637207 144.16081055 -50.47274414 144.32162109 -51.74658203 144.48730469 C-56.48135334 145.10327426 -61.2160452 145.71985273 -65.95071411 146.33660889 C-68.06175904 146.61153284 -70.1728226 146.88631381 -72.28390503 147.16094971 C-82.71142384 148.51766428 -93.1387401 149.87449823 -103.55859375 151.2890625 C-104.25915894 151.38388916 -104.95972412 151.47871582 -105.68151855 151.57641602 C-108.86330868 152.00736082 -112.044563 152.44170862 -115.22509766 152.88183594 C-116.32772949 153.03168945 -117.43036133 153.18154297 -118.56640625 153.3359375 C-119.97321655 153.53002197 -119.97321655 153.53002197 -121.40844727 153.72802734 C-123.96047029 153.99585152 -126.4361099 154.04925543 -129 154 C-128.99476318 153.35675781 -128.98952637 152.71351563 -128.98413086 152.05078125 C-128.86777775 135.53158563 -128.85747172 119.52009453 -131.9375 103.25 C-132.45298646 100.4353657 -132.96570405 97.62025397 -133.47607422 94.8046875 C-133.82406525 92.94181658 -134.19017757 91.08223568 -134.57470703 89.2265625 C-137.00684322 77.26088104 -137.00684322 77.26088104 -136 72 C-133.24268572 67.96669454 -130.14303442 65.58907614 -125.93212891 63.16748047 C-123.64596175 61.78607393 -121.5372889 60.22326117 -119.3828125 58.64453125 C-113.61129014 54.5793673 -107.49245483 51.51937369 -101.125 48.5 C-100.53330017 48.21664795 -99.94160034 47.9332959 -99.33197021 47.64135742 C-91.31164889 43.80958445 -83.26683036 40.48767253 -74.81054688 37.75097656 C-66.85239107 35.11011007 -59.25531456 31.70214194 -51.625 28.25 C-50.98999573 27.96310303 -50.35499146 27.67620605 -49.70074463 27.38061523 C-38.63142669 22.5399879 -38.63142669 22.5399879 -28.15234375 16.58203125 C-27.47051025 16.13577393 -26.78867676 15.6895166 -26.08618164 15.22973633 C-25.3771167 14.76204834 -24.66805176 14.29436035 -23.9375 13.8125 C-22.43555799 12.83231795 -20.93294588 11.85316199 -19.4296875 10.875 C-18.68686523 10.39160156 -17.94404297 9.90820312 -17.17871094 9.41015625 C-13.99181135 7.34745656 -10.78611271 5.31726645 -7.5625 3.3125 C-6.53253906 2.66925781 -5.50257813 2.02601562 -4.44140625 1.36328125 C-2 0 -2 0 0 0 Z " fill="#B8393B" transform="translate(376,123)"/>
<path d="M0 0 C4.15669638 7.47048603 6.38170808 14.60593298 8 23 C4.62376935 25.82637094 1.25965521 28.10389649 -2.60546875 30.20703125 C-3.67216797 30.79419922 -4.73886719 31.38136719 -5.83789062 31.98632812 C-8.05098254 33.19288261 -10.26451633 34.39862699 -12.47851562 35.60351562 C-21.53317733 40.59037736 -30.07738586 45.89636316 -37.625 53 C-40.73205676 55.9019561 -43.84990923 58.72775228 -47.125 61.4375 C-52.9220856 66.45605137 -57.75700758 72.63551137 -62 79 C-68.74106041 77.01546648 -75.42903773 74.90648236 -82.09375 72.6796875 C-83.00709106 72.37555939 -83.92043213 72.07143127 -84.8614502 71.75808716 C-86.77083476 71.12185058 -88.67997155 70.48486996 -90.58886719 69.84716797 C-93.51943464 68.86850984 -96.45106933 67.8930984 -99.3828125 66.91796875 C-101.24485591 66.29706763 -103.10683736 65.67598066 -104.96875 65.0546875 C-105.84575562 64.76302704 -106.72276123 64.47136658 -107.62634277 64.17086792 C-108.83900818 63.76507004 -108.83900818 63.76507004 -110.07617188 63.35107422 C-110.78769409 63.11363495 -111.49921631 62.87619568 -112.2322998 62.63156128 C-114 62 -114 62 -116 61 C-114.39220155 55.72999396 -112.5087573 50.84525684 -110.125 45.875 C-107.87363777 41.13441664 -106.11672481 36.44897736 -104.5625 31.4375 C-102.33584471 24.45291028 -99.29910549 16.29910549 -94 11 C-91.48062218 10.57617595 -88.97381144 10.20948678 -86.44189453 9.87670898 C-85.25385979 9.71555603 -85.25385979 9.71555603 -84.04182434 9.55114746 C-81.40606953 9.19496868 -78.76950819 8.84523468 -76.1328125 8.49609375 C-74.2996909 8.25106656 -72.46659183 8.00587077 -70.6335144 7.76051331 C-66.77852555 7.24565788 -62.92310169 6.73421166 -59.06738281 6.22485352 C-54.14957954 5.57472415 -49.23323071 4.91424763 -44.31720161 4.25085354 C-40.52407174 3.74054134 -36.73007853 3.23689124 -32.93581772 2.73506355 C-31.12481346 2.49454189 -29.31410805 2.25175798 -27.50372696 2.00658989 C-18.31227233 0.76478246 -9.30212192 -0.44784958 0 0 Z " fill="#B8383B" transform="translate(335,276)"/>
<path d="M0 0 C8.86658329 1.7957637 17.14988197 4.79479228 25.61035156 7.9375 C33.65917222 10.91548092 41.77702103 13.54959939 50 16 C50 25.0097437 39.8366265 33.85729363 34 40 C33.48308594 40.62648438 32.96617187 41.25296875 32.43359375 41.8984375 C27.28330653 47.842111 20.17709112 50.72327698 13.18359375 53.97070312 C11.0400086 54.98114085 8.92564736 56.0369428 6.8125 57.109375 C-8.17298724 64.61174153 -23.48624597 69.19737099 -40.3125 69.125 C-41.23095703 69.12886719 -42.14941406 69.13273437 -43.09570312 69.13671875 C-43.96775391 69.13542969 -44.83980469 69.13414062 -45.73828125 69.1328125 C-46.53274658 69.13168457 -47.32721191 69.13055664 -48.14575195 69.12939453 C-50 69 -50 69 -51 68 C-51.57999422 64.95503034 -51.59129765 62.90314641 -49.859375 60.2578125 C-43.84916695 53.69326488 -35.59408479 49.92297127 -27.125 47.5625 C-20.02753649 45.26888522 -17.41025448 39.98808252 -14.09057617 33.60205078 C-10.91556493 27.30329896 -7.98627274 20.88390875 -5.125 14.4375 C-4.83890869 13.79562744 -4.55281738 13.15375488 -4.25805664 12.49243164 C-2.47245734 8.38110131 -1.14542549 4.32036703 0 0 Z " fill="#B8383B" transform="translate(215,346)"/>
<path d="M0 0 C-3.39646358 8.68680778 -7.26827095 16.95606062 -12 25 C-12.4021875 25.73734375 -12.804375 26.4746875 -13.21875 27.234375 C-17.07787531 33.02306296 -23.42598564 33.78289657 -29.83203125 35.078125 C-32.62527736 35.65151392 -35.25763947 36.38835164 -37.9465332 37.33422852 C-43.89968428 39.34812895 -49.95419544 40.95123174 -56.0234375 42.57421875 C-57.24656647 42.90291458 -58.46969543 43.23161041 -59.72988892 43.57026672 C-62.29954686 44.25990165 -64.86948063 44.94838572 -67.43994141 45.63500977 C-70.73299058 46.51490398 -74.02440959 47.40073729 -77.31543541 48.28816509 C-80.46716782 49.13700731 -83.62037741 49.98032399 -86.7734375 50.82421875 C-87.95465179 51.14291428 -89.13586609 51.4616098 -90.35287476 51.78996277 C-91.44476105 52.08059097 -92.53664734 52.37121918 -93.66162109 52.6706543 C-94.6226474 52.92807907 -95.58367371 53.18550385 -96.57382202 53.45072937 C-99 54 -99 54 -102 54 C-102 50.04 -102 46.08 -102 42 C-93.88704495 37.81517755 -85.58896298 34.18004551 -77.1875 30.625 C-74.1056672 29.31768909 -71.02506654 28.00751295 -67.9453125 26.6953125 C-67.11070999 26.33975281 -66.27610748 25.98419312 -65.41621399 25.61785889 C-57.93843277 22.42167747 -50.49599516 19.14721185 -43.0546875 15.8671875 C-39.42809052 14.27394161 -35.8010931 12.68161071 -32.17398071 11.08953857 C-29.76692035 10.03010739 -27.36161903 8.96667053 -24.95809937 7.89923096 C-21.56115799 6.39120691 -18.15828395 4.89739424 -14.75390625 3.40625 C-13.21239395 2.71521683 -13.21239395 2.71521683 -11.63973999 2.01022339 C-10.69071808 1.59757233 -9.74169617 1.18492126 -8.76391602 0.75976562 C-7.93682632 0.39419556 -7.10973663 0.02862549 -6.25758362 -0.34802246 C-3.73119297 -1.07762997 -2.44509118 -0.87617283 0 0 Z " fill="#B93A3B" transform="translate(364,180)"/>
<path d="M0 0 C-0.020625 0.86625 -0.04125 1.7325 -0.0625 2.625 C-0.10285145 5.96961391 -0.10285145 5.96961391 0.625 9.0625 C1.07314115 12.57293898 0.72993188 13.92615409 -1 17 C-3.73828125 18.703125 -3.73828125 18.703125 -7.3125 20.25 C-7.96259033 20.53665527 -8.61268066 20.82331055 -9.2824707 21.11865234 C-11.51440645 22.0967295 -13.75679053 23.04808454 -16 24 C-17.74788409 24.75668566 -19.49526144 25.51454269 -21.2421875 26.2734375 C-28.53272167 29.42881641 -35.84365474 32.53316383 -43.1875 35.5625 C-53.00952103 39.63504531 -62.86427673 43.80155094 -72.3125 48.6875 C-76.96473323 51.07346524 -81.77387241 52.90171389 -86.66796875 54.73046875 C-91.04213622 56.39706245 -95.33773129 58.23147373 -99.63671875 60.08203125 C-102 61 -102 61 -104 61 C-104.53032232 53.94376692 -104.26644455 47.87688872 -100 42 C-92.96312875 37.26719677 -84.26245449 34.51768689 -76.42758179 31.29626465 C-72.49006038 29.67690446 -68.55781245 28.04481793 -64.625 26.4140625 C-63.78643967 26.06666016 -62.94787933 25.71925781 -62.08390808 25.36132812 C-51.26421714 20.87389812 -40.47655013 16.31047917 -29.6875 11.75 C-27.72224992 10.91975776 -25.75699928 10.08951684 -23.79174805 9.25927734 C-21.94837288 8.48021909 -20.10502832 7.70108844 -18.26171875 6.921875 C-17.4277356 6.56934662 -16.59375244 6.21681824 -15.73449707 5.85360718 C-14.94901489 5.52132111 -14.16353271 5.18903503 -13.35424805 4.84667969 C-12.61612885 4.53516968 -11.87800964 4.22365967 -11.11752319 3.90270996 C-9.72158648 3.30761566 -8.32936902 2.70370913 -6.9413147 2.0904541 C-2.19992353 0 -2.19992353 0 0 0 Z " fill="#B9393B" transform="translate(366,158)"/>
<path d="M0 0 C-1 2 -1 2 -2.74505615 2.71862793 C-3.48628723 2.93974243 -4.22751831 3.16085693 -4.99121094 3.38867188 C-9.83995484 4.91784147 -14.46818814 6.78439511 -19.140625 8.78125 C-20.43798332 9.33022446 -20.43798332 9.33022446 -21.7615509 9.89028931 C-25.57554447 11.50563622 -29.3852584 13.1309468 -33.1947937 14.7567749 C-36.23740809 16.05523736 -39.28060521 17.35231881 -42.32421875 18.6484375 C-43.35699448 19.08848114 -44.3897702 19.52852478 -45.45384216 19.98190308 C-51.82699338 22.68636901 -58.2248682 25.31816772 -64.6524353 27.89056396 C-68.79951488 29.5515611 -72.93734148 31.23495423 -77.0748291 32.91967773 C-79.05643369 33.71912058 -81.04253579 34.50750996 -83.03308105 35.28442383 C-85.81694302 36.37233751 -88.5826249 37.49805162 -91.34765625 38.6328125 C-92.57897026 39.09610458 -92.57897026 39.09610458 -93.8351593 39.5687561 C-98.3311446 41.46375743 -100.44429156 43.07857979 -102.50268555 47.58129883 C-103.75057831 50.89758498 -104.549662 54.00650055 -104.75 57.5625 C-104.83507812 58.83287109 -104.83507812 58.83287109 -104.921875 60.12890625 C-104.96054687 61.05509766 -104.96054687 61.05509766 -105 62 C-102.93526568 61.23517162 -100.8732979 60.46287235 -98.8125 59.6875 C-97.66394531 59.25824219 -96.51539063 58.82898438 -95.33203125 58.38671875 C-92.33077842 57.13766276 -89.76077499 55.69577404 -87 54 C-85.49510839 53.33753471 -83.97328951 52.71229006 -82.4375 52.125 C-81.56351562 51.78339844 -80.68953125 51.44179687 -79.7890625 51.08984375 C-78.40847656 50.55037109 -78.40847656 50.55037109 -77 50 C-69.21319284 46.87000889 -61.60172077 43.45847929 -54.03125 39.84375 C-50.91111579 38.38610443 -47.75029954 37.05445871 -44.56640625 35.7421875 C-39.6510097 33.71199866 -34.78662281 31.58749933 -29.93359375 29.4140625 C-28.52805943 28.78761538 -27.12245998 28.16131435 -25.71679688 27.53515625 C-23.55531004 26.57201695 -21.39535782 25.60595295 -19.23901367 24.63134766 C-17.12023211 23.67499756 -14.99632547 22.73097412 -12.87109375 21.7890625 C-12.22426132 21.49335358 -11.57742889 21.19764465 -10.91099548 20.89297485 C-6.34124175 18.88625275 -6.34124175 18.88625275 -3 20 C-3 20.66 -3 21.32 -3 22 C-3.68755371 22.25217285 -4.37510742 22.5043457 -5.08349609 22.76416016 C-15.09084205 26.51870846 -24.85730997 30.78237455 -34.64523315 35.06985474 C-39.73357177 37.29855966 -44.82594526 39.5180114 -49.91796875 41.73828125 C-50.93784378 42.18322433 -51.95771881 42.62816742 -53.00849915 43.08659363 C-62.63511693 47.28357985 -72.28184269 51.43283027 -81.9375 55.5625 C-82.66439026 55.87346619 -83.39128052 56.18443237 -84.14019775 56.50482178 C-87.33384108 57.87083764 -90.52789402 59.23588417 -93.72241211 60.59985352 C-97.14944996 62.06384324 -100.57492953 63.53141449 -104 65 C-104.33 68.96 -104.66 72.92 -105 77 C-103.72382813 76.62746094 -102.44765625 76.25492187 -101.1328125 75.87109375 C-99.46365009 75.39285059 -97.79437327 74.91500662 -96.125 74.4375 C-94.86236328 74.0672168 -94.86236328 74.0672168 -93.57421875 73.68945312 C-92.76855469 73.46064453 -91.96289062 73.23183594 -91.1328125 72.99609375 C-90.38918457 72.78138428 -89.64555664 72.5666748 -88.87939453 72.34545898 C-87 72 -87 72 -85 73 C-87.72783111 75.72783111 -90.80543688 76.2024628 -94.4375 77.125 C-95.11876953 77.30675781 -95.80003906 77.48851562 -96.50195312 77.67578125 C-99.41655708 78.43511979 -101.97561204 79 -105 79 C-105 87.58 -105 96.16 -105 105 C-105.99 105 -106.98 105 -108 105 C-108.10205147 97.7959412 -108.17173735 90.59207124 -108.21972656 83.38745117 C-108.2397483 80.9404402 -108.26697398 78.49347651 -108.30175781 76.04663086 C-108.35069163 72.51404093 -108.37306416 68.98208771 -108.390625 65.44921875 C-108.41127014 64.36855637 -108.43191528 63.28789398 -108.45318604 62.17448425 C-108.45525114 55.06407089 -107.7126477 48.22159393 -104 42 C-100.00326959 39.19266981 -95.80577752 37.7884297 -91.20703125 36.2578125 C-88.55256042 35.21671676 -86.13138094 34.07656763 -83.6015625 32.77734375 C-77.40373608 29.62953535 -71.01840874 26.95785936 -64.60522461 24.28833008 C-62.56756155 23.43960822 -60.53268134 22.58446868 -58.49804688 21.72851562 C-51.80798216 18.9255873 -45.10391406 16.22669629 -38.24975586 13.84399414 C-35.4015201 12.77548074 -32.7754806 11.40673166 -30.0859375 9.99609375 C-27.64923368 8.83249923 -25.17441108 7.95158033 -22.625 7.0625 C-17.90257664 5.40504779 -13.52322909 3.37338149 -9.09375 1.05078125 C-5.59627104 -0.70448338 -3.70504401 -1.14984124 0 0 Z " fill="#EA8352" transform="translate(367,157)"/>
</svg>
