<?xml version="1.0" encoding="UTF-8"?>
<svg version="1.1" xmlns="http://www.w3.org/2000/svg" width="540" height="540">
<path d="M0 0 C0.92336151 0.00087616 1.84672302 0.00175232 2.79806519 0.00265503 C18.08207827 0.0503428 32.73854206 0.93246431 47.6875 4.375 C48.71504395 4.61105957 49.74258789 4.84711914 50.80126953 5.09033203 C100.59667952 16.98142994 146.84092452 46.38420318 176.6875 88.375 C177.10402832 88.95781738 177.52055664 89.54063477 177.94970703 90.14111328 C204.34649796 127.47328365 218.16870471 171.00459479 218.0625 216.6875 C218.06162384 217.61086151 218.06074768 218.53422302 218.05984497 219.48556519 C218.0121572 234.76957827 217.13003569 249.42604206 213.6875 264.375 C213.45144043 265.40254395 213.21538086 266.43008789 212.97216797 267.48876953 C201.08107006 317.28417952 171.67829682 363.52842452 129.6875 393.375 C129.10468262 393.79152832 128.52186523 394.20805664 127.92138672 394.63720703 C90.58921635 421.03399796 47.05790521 434.85620471 1.375 434.75 C-0.01004227 434.74868576 -0.01004227 434.74868576 -1.42306519 434.74734497 C-16.70707827 434.6996572 -31.36354206 433.81753569 -46.3125 430.375 C-47.34004395 430.13894043 -48.36758789 429.90288086 -49.42626953 429.65966797 C-99.22167952 417.76857006 -145.46592452 388.36579682 -175.3125 346.375 C-175.72902832 345.79218262 -176.14555664 345.20936523 -176.57470703 344.60888672 C-202.97149796 307.27671635 -216.79370471 263.74540521 -216.6875 218.0625 C-216.68662384 217.13913849 -216.68574768 216.21577698 -216.68484497 215.26443481 C-216.6371572 199.98042173 -215.75503569 185.32395794 -212.3125 170.375 C-212.07644043 169.34745605 -211.84038086 168.31991211 -211.59716797 167.26123047 C-199.70607006 117.46582048 -170.30329682 71.22157548 -128.3125 41.375 C-127.72968262 40.95847168 -127.14686523 40.54194336 -126.54638672 40.11279297 C-89.21421635 13.71600204 -45.68290521 -0.10620471 0 0 Z " fill="#F1A857" transform="translate(269.3125,52.625)"/>
<path d="M0 0 C15.72486279 13.50958189 27.70200384 28.75400389 37.4375 47 C37.96988281 47.96035156 38.50226563 48.92070312 39.05078125 49.91015625 C56.74217 83.14436716 58.97697393 124.56958165 48.61523438 160.38134766 C36.28829639 200.19522589 9.43082849 232.22759634 -27.015625 252.1640625 C-63.69263862 271.43175474 -106.32305324 273.87897151 -145.625 261.66015625 C-182.40084636 249.61706128 -214.25541041 223.4683432 -232.19921875 189.046875 C-250.95443966 151.69997591 -254.95937063 110.07069293 -242.5625 70 C-242.15656616 68.66291992 -242.15656616 68.66291992 -241.74243164 67.29882812 C-239.42891287 59.97614132 -236.47291798 53.27708547 -232.875 46.5 C-232.34463135 45.49533691 -231.8142627 44.49067383 -231.26782227 43.45556641 C-227.27970375 36.04210322 -223.0028798 29.44403608 -217.5625 23 C-216.70146758 21.92971668 -215.84217029 20.85803576 -214.984375 19.78515625 C-189.93078104 -11.15196221 -153.23055716 -29.78026774 -113.9140625 -34.49609375 C-72.82304078 -38.73683079 -31.78988385 -26.37795781 0 0 Z " fill="#5985A1" transform="translate(367.5625,150)"/>
<path d="M0 0 C0.92336151 0.00087616 1.84672302 0.00175232 2.79806519 0.00265503 C18.08207827 0.0503428 32.73854206 0.93246431 47.6875 4.375 C48.71504395 4.61105957 49.74258789 4.84711914 50.80126953 5.09033203 C100.59667952 16.98142994 146.84092452 46.38420318 176.6875 88.375 C177.10402832 88.95781738 177.52055664 89.54063477 177.94970703 90.14111328 C204.34649796 127.47328365 218.16870471 171.00459479 218.0625 216.6875 C218.06162384 217.61086151 218.06074768 218.53422302 218.05984497 219.48556519 C218.0121572 234.76957827 217.13003569 249.42604206 213.6875 264.375 C213.45144043 265.40254395 213.21538086 266.43008789 212.97216797 267.48876953 C201.08107006 317.28417952 171.67829682 363.52842452 129.6875 393.375 C129.10468262 393.79152832 128.52186523 394.20805664 127.92138672 394.63720703 C90.58921635 421.03399796 47.05790521 434.85620471 1.375 434.75 C-0.01004227 434.74868576 -0.01004227 434.74868576 -1.42306519 434.74734497 C-16.70707827 434.6996572 -31.36354206 433.81753569 -46.3125 430.375 C-47.34004395 430.13894043 -48.36758789 429.90288086 -49.42626953 429.65966797 C-99.22167952 417.76857006 -145.46592452 388.36579682 -175.3125 346.375 C-175.72902832 345.79218262 -176.14555664 345.20936523 -176.57470703 344.60888672 C-202.97149796 307.27671635 -216.79370471 263.74540521 -216.6875 218.0625 C-216.68662384 217.13913849 -216.68574768 216.21577698 -216.68484497 215.26443481 C-216.6371572 199.98042173 -215.75503569 185.32395794 -212.3125 170.375 C-212.07644043 169.34745605 -211.84038086 168.31991211 -211.59716797 167.26123047 C-199.70607006 117.46582048 -170.30329682 71.22157548 -128.3125 41.375 C-127.72968262 40.95847168 -127.14686523 40.54194336 -126.54638672 40.11279297 C-89.21421635 13.71600204 -45.68290521 -0.10620471 0 0 Z M-49.3125 29.375 C-50.1979248 29.61605469 -51.08334961 29.85710937 -51.99560547 30.10546875 C-72.3034538 35.74881863 -92.12731132 45.17535402 -109.3125 57.375 C-110.25609375 58.02855469 -111.1996875 58.68210938 -112.171875 59.35546875 C-119.13582647 64.28334966 -126.0871624 69.52991862 -132.3125 75.375 C-132.3125 76.035 -132.3125 76.695 -132.3125 77.375 C-132.90675781 77.64441406 -133.50101563 77.91382813 -134.11328125 78.19140625 C-160.19091255 92.22608171 -178.1916399 136.59543822 -186.3125 163.375 C-194.10368227 190.9222155 -196.38836428 221.04192707 -191.3125 249.375 C-191.17827637 250.12458984 -191.04405273 250.87417969 -190.90576172 251.64648438 C-188.10538848 266.89192719 -184.09145094 281.39341369 -177.3125 295.375 C-176.64318892 296.84254683 -175.97677532 298.31141691 -175.3125 299.78125 C-166.48937143 319.13741578 -154.99631451 335.93703188 -140.3125 351.375 C-139.52214355 352.21417969 -139.52214355 352.21417969 -138.71582031 353.0703125 C-125.55144247 366.96645531 -111.08394658 378.15288249 -94.3125 387.375 C-93.6947168 387.7148291 -93.07693359 388.0546582 -92.44042969 388.40478516 C-76.63381135 396.96295163 -59.8755718 403.40065726 -42.25292969 406.97363281 C-40.35233264 407.36676084 -38.46103964 407.80404405 -36.5703125 408.2421875 C-23.85836281 411.16287616 -11.25506592 411.61238381 1.75 411.625 C2.47638672 411.62600708 3.20277344 411.62701416 3.95117188 411.62805176 C15.44786814 411.61730836 26.44728679 410.88047637 37.6875 408.375 C38.40744141 408.22514648 39.12738281 408.07529297 39.86914062 407.92089844 C52.83107464 405.22192809 65.65069239 401.79268674 77.390625 395.5390625 C79.64310343 394.3975003 81.87531759 393.54015442 84.25 392.6875 C100.78519205 386.22397909 116.3568845 374.77596176 129.2109375 362.69921875 C132.07082007 360.01525955 135.03348585 357.4730882 138.03125 354.9453125 C139.85349263 353.2176202 141.29879007 351.46653264 142.6875 349.375 C142.6875 348.715 142.6875 348.055 142.6875 347.375 C143.29335938 347.10171875 143.89921875 346.8284375 144.5234375 346.546875 C164.01028204 335.99443211 179.36553469 297.74044647 185.5 277.87109375 C192.42334086 253.06159237 192.42334086 253.06159237 194.78515625 227.59765625 C194.7837413 226.78630722 194.78232635 225.97495819 194.78086853 225.13902283 C194.77531357 222.57180953 194.76276967 220.00468652 194.75 217.4375 C194.74497917 215.68685023 194.74041729 213.93619907 194.73632812 212.18554688 C194.72535893 207.9153303 194.70812582 203.64518041 194.6875 199.375 C194.0275 199.375 193.3675 199.375 192.6875 199.375 C192.74550781 198.77558594 192.80351562 198.17617187 192.86328125 197.55859375 C194.71244373 160.41684446 171.87106006 117.85875842 147.80395508 90.93481445 C145.95014027 88.90346798 144.06441268 86.90484881 142.16308594 84.91796875 C141.17160187 83.88120844 140.18533023 82.8394404 139.20410156 81.79296875 C118.71740209 59.99352931 91.14862071 41.64960592 62.1875 33.375 C58.6875 32.375 58.6875 32.375 55.125 30.9375 C49.18403532 28.66662933 42.92746327 27.51560822 36.6875 26.375 C35.84388916 26.20363525 35.00027832 26.03227051 34.13110352 25.85571289 C23.15271546 23.85629295 12.12664592 23.93410926 1 23.9375 C-0.04540955 23.93676483 -1.09081909 23.93602966 -2.16790771 23.93527222 C-18.41352394 23.96529504 -33.61094152 24.8651301 -49.3125 29.375 Z " fill="#ECA659" transform="translate(269.3125,52.625)"/>
<path d="M0 0 C24.42 0 48.84 0 74 0 C76 7 76 7 76.859375 10.140625 C81.73009225 27.14540978 91.31314685 40.91274606 106.96484375 49.65625 C115.1608366 53.70954101 121.48459063 54.96098371 131 57 C131 83.07 131 109.14 131 136 C90.65695733 133.47855983 57.91652707 117.04927686 31 87 C27.28681722 82.57706581 24.05823924 77.89291592 21 73 C20.61263672 72.38721191 20.22527344 71.77442383 19.82617188 71.14306641 C6.36375508 49.51337616 0 25.37265011 0 0 Z " fill="#F2A857" transform="translate(133,268)"/>
<path d="M0 0 C1.27685165 0.00222061 2.55370331 0.00444122 3.86924744 0.00672913 C4.57165054 0.0065831 5.27405365 0.00643707 5.9977417 0.00628662 C8.32985983 0.00698579 10.66189904 0.01477835 12.9940033 0.02259827 C14.60683142 0.02446243 16.21966012 0.02588634 17.83248901 0.02688599 C22.08550062 0.03071129 26.33847828 0.04054167 30.59147644 0.05158997 C34.92812135 0.06180383 39.26477171 0.06638355 43.60142517 0.07142639 C52.11641474 0.08216393 60.63137667 0.09924049 69.14634705 0.12025452 C69.15938946 2.19087566 69.16867035 4.2615207 69.17637634 6.33216858 C69.18195053 7.48525513 69.18752472 8.63834167 69.19326782 9.82637024 C69.13477756 13.93244394 68.69079876 17.83691539 67.95884705 21.87025452 C67.82575134 22.62483948 67.69265564 23.37942444 67.55552673 24.15687561 C62.66404156 50.44724058 51.23072577 73.43784527 33.14634705 93.12025452 C32.3574408 93.99166077 31.56853455 94.86306702 30.75572205 95.76087952 C8.7828644 118.89786207 -25.13375945 135.20040028 -57.1466217 136.22572327 C-59.85365295 136.12025452 -59.85365295 136.12025452 -60.85365295 135.12025452 C-60.94862003 132.71677166 -60.97924157 130.3421447 -60.96717834 127.93836975 C-60.96732437 127.18719879 -60.9674704 126.43602783 -60.96762085 125.66209412 C-60.96692159 123.16764993 -60.9591286 120.67327949 -60.9513092 118.17884827 C-60.94944507 116.45391887 -60.94802115 114.72898895 -60.94702148 113.00405884 C-60.94319593 108.45512948 -60.93336533 103.90623185 -60.9223175 99.35731506 C-60.91210419 94.71905446 -60.90752404 90.08078874 -60.90248108 85.44252014 C-60.89174309 76.3350843 -60.87466622 67.22767204 -60.85365295 58.12025452 C-59.77245178 57.81176575 -58.69125061 57.50327698 -57.57728577 57.18544006 C-46.59607879 54.04414672 -37.09379893 51.03583547 -27.85365295 44.12025452 C-27.0750592 43.54791077 -26.29646545 42.97556702 -25.49427795 42.38587952 C-13.5716288 32.76553502 -6.48938319 18.2069429 -4.2481842 3.27259827 C-3.64917897 0.00475781 -3.41750977 0.14401576 0 0 Z " fill="#F1A857" transform="translate(335.85365295410156,267.87974548339844)"/>
<path d="M0 0 C0.86351074 0.16628906 1.72702148 0.33257812 2.61669922 0.50390625 C22.42709773 4.47702239 41.27125459 11.33064127 59 21 C59.8957373 21.47904785 59.8957373 21.47904785 60.80957031 21.96777344 C107.65548147 47.11394373 142.00298513 91.01886732 157.78613281 141.51513672 C166.89469871 172.43372611 169.11449705 205.27803746 163 237 C162.83371094 237.86351074 162.66742188 238.72702148 162.49609375 239.61669922 C158.52297761 259.42709773 151.66935873 278.27125459 142 296 C141.68063477 296.5971582 141.36126953 297.19431641 141.03222656 297.80957031 C115.88605627 344.65548147 71.98113268 379.00298513 21.48486328 394.78613281 C-9.43372611 403.89469871 -42.27803746 406.11449705 -74 400 C-74.86351074 399.83371094 -75.72702148 399.66742188 -76.61669922 399.49609375 C-96.42709773 395.52297761 -115.27125459 388.66935873 -133 379 C-133.5971582 378.68063477 -134.19431641 378.36126953 -134.80957031 378.03222656 C-181.65548147 352.88605627 -216.00298513 308.98113268 -231.78613281 258.48486328 C-240.89469871 227.56627389 -243.11449705 194.72196254 -237 163 C-236.83371094 162.13648926 -236.66742188 161.27297852 -236.49609375 160.38330078 C-232.52297761 140.57290227 -225.66935873 121.72874541 -216 104 C-215.68063477 103.4028418 -215.36126953 102.80568359 -215.03222656 102.19042969 C-189.88605627 55.34451853 -145.98113268 20.99701487 -95.48486328 5.21386719 C-64.56627389 -3.89469871 -31.72196254 -6.11449705 0 0 Z M-87 12 C-87.8854248 12.24105469 -88.77084961 12.48210937 -89.68310547 12.73046875 C-109.9909538 18.37381863 -129.81481132 27.80035402 -147 40 C-147.94359375 40.65355469 -148.8871875 41.30710938 -149.859375 41.98046875 C-156.82332647 46.90834966 -163.7746624 52.15491862 -170 58 C-170 58.66 -170 59.32 -170 60 C-170.59425781 60.26941406 -171.18851563 60.53882813 -171.80078125 60.81640625 C-197.87841255 74.85108171 -215.8791399 119.22043822 -224 146 C-231.79118227 173.5472155 -234.07586428 203.66692707 -229 232 C-228.86577637 232.74958984 -228.73155273 233.49917969 -228.59326172 234.27148438 C-225.79288848 249.51692719 -221.77895094 264.01841369 -215 278 C-214.33068892 279.46754683 -213.66427532 280.93641691 -213 282.40625 C-204.17687143 301.76241578 -192.68381451 318.56203188 -178 334 C-177.20964355 334.83917969 -177.20964355 334.83917969 -176.40332031 335.6953125 C-163.23894247 349.59145531 -148.77144658 360.77788249 -132 370 C-131.3822168 370.3398291 -130.76443359 370.6796582 -130.12792969 371.02978516 C-114.32131135 379.58795163 -97.5630718 386.02565726 -79.94042969 389.59863281 C-78.03983264 389.99176084 -76.14853964 390.42904405 -74.2578125 390.8671875 C-61.54586281 393.78787616 -48.94256592 394.23738381 -35.9375 394.25 C-35.21111328 394.25100708 -34.48472656 394.25201416 -33.73632812 394.25305176 C-22.23963186 394.24230836 -11.24021321 393.50547637 0 391 C0.71994141 390.85014648 1.43988281 390.70029297 2.18164062 390.54589844 C15.14357464 387.84692809 27.96319239 384.41768674 39.703125 378.1640625 C41.95560343 377.0225003 44.18781759 376.16515442 46.5625 375.3125 C63.09769205 368.84897909 78.6693845 357.40096176 91.5234375 345.32421875 C94.38332007 342.64025955 97.34598585 340.0980882 100.34375 337.5703125 C102.16599263 335.8426202 103.61129007 334.09153264 105 332 C105 331.34 105 330.68 105 330 C105.60585938 329.72671875 106.21171875 329.4534375 106.8359375 329.171875 C126.32278204 318.61943211 141.67803469 280.36544647 147.8125 260.49609375 C154.73584086 235.68659237 154.73584086 235.68659237 157.09765625 210.22265625 C157.0962413 209.41130722 157.09482635 208.59995819 157.09336853 207.76402283 C157.08781357 205.19680953 157.07526967 202.62968652 157.0625 200.0625 C157.05747917 198.31185023 157.05291729 196.56119907 157.04882812 194.81054688 C157.03785893 190.5403303 157.02062582 186.27018041 157 182 C156.34 182 155.68 182 155 182 C155.05800781 181.40058594 155.11601562 180.80117187 155.17578125 180.18359375 C157.02494373 143.04184446 134.18356006 100.48375842 110.11645508 73.55981445 C108.26264027 71.52846798 106.37691268 69.52984881 104.47558594 67.54296875 C103.48410187 66.50620844 102.49783023 65.4644404 101.51660156 64.41796875 C81.02990209 42.61852931 53.46112071 24.27460592 24.5 16 C21 15 21 15 17.4375 13.5625 C11.49653532 11.29162933 5.23996327 10.14060822 -1 9 C-1.84361084 8.82863525 -2.68722168 8.65727051 -3.55639648 8.48071289 C-14.53478454 6.48129295 -25.56085408 6.55910926 -36.6875 6.5625 C-37.73290955 6.56176483 -38.77831909 6.56102966 -39.85540771 6.56027222 C-56.10102394 6.59029504 -71.29844152 7.4901301 -87 12 Z " fill="#5984A0" transform="translate(307,70)"/>
<path d="M0 0 C0 22.77 0 45.54 0 69 C-4.62 69.99 -9.24 70.98 -14 72 C-16.94712541 73.12684207 -19.5075242 74.17014337 -22.25 75.625 C-22.91765381 75.97054932 -23.58530762 76.31609863 -24.27319336 76.67211914 C-38.17557948 84.17198005 -47.60805693 96.29917042 -53 111 C-54.02442662 114.72612841 -54.76620621 118.49524384 -55.45703125 122.296875 C-56 125 -56 125 -57 126 C-59.12584201 126.11005321 -61.25537822 126.14913565 -63.3840332 126.16113281 C-64.05075043 126.16609772 -64.71746765 126.17106262 -65.40438843 126.17617798 C-67.61986305 126.19083557 -69.83526602 126.19760831 -72.05078125 126.203125 C-73.58676659 126.2088745 -75.1227519 126.21463225 -76.65873718 126.22039795 C-79.88439266 126.23091886 -83.11002313 126.23675404 -86.33569336 126.24023438 C-90.46855284 126.24571454 -94.60108209 126.26972746 -98.73383808 126.29820633 C-101.90885886 126.3168357 -105.08380026 126.32203851 -108.25887108 126.32357025 C-109.78230783 126.3265978 -111.30574315 126.33462982 -112.82912636 126.34775543 C-114.96226652 126.36481916 -117.09460239 126.36293517 -119.2277832 126.35644531 C-120.44166214 126.36009094 -121.65554108 126.36373657 -122.90620422 126.36749268 C-126.2715189 125.96774797 -127.69531714 125.46394285 -130 123 C-130.51566381 117.51310528 -129.74613434 112.53189326 -128.4375 107.1875 C-128.26114014 106.46248291 -128.08478027 105.73746582 -127.90307617 104.99047852 C-121.71938632 80.71943106 -110.21327059 60.19930082 -93 42 C-91.80310547 40.68902344 -91.80310547 40.68902344 -90.58203125 39.3515625 C-73.80999335 21.64069646 -50.98678369 8.6426033 -27 4 C-25.60974609 3.51660156 -25.60974609 3.51660156 -24.19140625 3.0234375 C-20.80523225 1.93754082 -17.58261983 1.36509403 -14.0625 0.875 C-12.89847656 0.70742187 -11.73445313 0.53984375 -10.53515625 0.3671875 C-7 0 -7 0 0 0 Z " fill="#F2A857" transform="translate(264,131)"/>
<path d="M0 0 C7.68282357 0.41480033 14.90891917 1.61262817 22.390625 3.3671875 C23.26106445 3.56779785 24.13150391 3.7684082 25.02832031 3.97509766 C30.16842198 5.23619064 34.84826823 6.91011372 39.6418457 9.15112305 C41.80982664 10.16281104 44.0171036 10.99006607 46.265625 11.8046875 C77.20545046 24.13264896 102.22866505 50.90823664 115.6875 80.94824219 C119.67757634 90.38529774 122.51872254 100.24067817 124.953125 110.1796875 C125.20497559 111.19083618 125.20497559 111.19083618 125.46191406 112.22241211 C126.55375833 116.96768994 126.63144587 121.2263257 126.578125 126.0546875 C117.20776562 126.07781254 107.83741599 126.09560341 98.46703434 126.10649967 C94.11644041 126.11172815 89.76586593 126.11882515 85.4152832 126.13012695 C81.22022242 126.14095709 77.02518041 126.1469646 72.83010674 126.14956474 C71.22605532 126.15141876 69.62200497 126.15503894 68.0179615 126.16041756 C65.77895985 126.16762969 63.5400367 126.16867837 61.30102539 126.16821289 C60.02417374 126.1704335 58.74732208 126.17265411 57.43177795 126.17494202 C54.578125 126.0546875 54.578125 126.0546875 53.578125 125.0546875 C53.18615643 122.99534491 52.8152109 120.9319938 52.453125 118.8671875 C48.96783359 102.31626261 39.56572525 88.51568825 25.578125 79.0546875 C17.69477499 74.20339519 9.69316017 71.80193311 0.75390625 69.81640625 C-2.421875 69.0546875 -2.421875 69.0546875 -3.421875 68.0546875 C-3.52131472 65.97393341 -3.54987096 63.88976902 -3.55126953 61.80664062 C-3.55302185 61.15461166 -3.55477417 60.5025827 -3.55657959 59.83079529 C-3.56099704 57.66581597 -3.55806051 55.50091771 -3.5546875 53.3359375 C-3.55536057 51.83760563 -3.55633062 50.33927387 -3.55758667 48.84094238 C-3.5590635 45.69684817 -3.55690958 42.55278233 -3.55224609 39.40869141 C-3.5465488 35.36982211 -3.54982789 31.33101926 -3.55581856 27.2921524 C-3.55942458 24.1970367 -3.55828539 21.10193685 -3.55569077 18.00682068 C-3.55502161 16.51720675 -3.55584952 15.0275914 -3.55817032 13.53797913 C-3.56069753 11.45952515 -3.55685533 9.38118019 -3.55126953 7.30273438 C-3.55047394 6.11772339 -3.54967834 4.9327124 -3.54885864 3.71179199 C-3.37511344 0.07621224 -3.37511344 0.07621224 0 0 Z " fill="#F1A857" transform="translate(278.421875,130.9453125)"/>
<path d="M0 0 C0.9215538 0.00222061 1.8431076 0.00444122 2.79258728 0.00672913 C3.83359085 0.00680466 4.87459442 0.00688019 5.94714355 0.00695801 C7.07941879 0.01211929 8.21169403 0.01728058 9.37828064 0.02259827 C10.53106003 0.02401321 11.68383942 0.02542816 12.87155151 0.02688599 C16.57043503 0.03250446 20.26925903 0.0450601 23.96812439 0.05775452 C26.46877456 0.06276714 28.96942567 0.06733045 31.47007751 0.07142639 C37.61528027 0.0824799 43.76044808 0.099236 49.90562439 0.12025452 C49.76209185 1.54581667 49.61428252 2.97094857 49.46470642 4.39588928 C49.38286102 5.18955399 49.30101562 5.98321869 49.21669006 6.80093384 C47.30324273 21.06768949 38.62209342 33.00951049 27.90562439 42.12025452 C24.68143013 44.35089042 21.3680385 46.28547097 17.90562439 48.12025452 C16.29687439 48.98650452 16.29687439 48.98650452 14.65562439 49.87025452 C10.03225534 51.9717859 6.30112572 53.23119141 1.20640564 53.17103577 C0.39985535 53.16370422 -0.40669495 53.15637268 -1.23768616 53.14881897 C-1.85039368 53.1393927 -2.4631012 53.12996643 -3.09437561 53.12025452 C-3.11964253 45.7329735 -3.13720721 38.34570354 -3.14930725 30.95838928 C-3.15434924 28.44308557 -3.16118264 25.9277848 -3.16981506 23.41249084 C-3.18188655 19.80595677 -3.1876051 16.19946129 -3.19203186 12.59291077 C-3.19719315 11.46063553 -3.20235443 10.32836029 -3.20767212 9.16177368 C-3.20774765 8.12077011 -3.20782318 7.07976654 -3.207901 6.00721741 C-3.21012161 5.0856636 -3.21234222 4.1641098 -3.21463013 3.21463013 C-3.05177799 0.37836622 -2.83626391 0.16285214 0 0 Z " fill="#F0A858" transform="translate(278.09437561035156,267.87974548339844)"/>
<path d="M0 0 C17.16 0 34.32 0 52 0 C52 17.49 52 34.98 52 53 C37.49615614 53 26.1181843 46.87762624 15.64453125 36.8984375 C5.95390783 26.27739972 0 14.55017757 0 0 Z " fill="#F1A857" transform="translate(212,268)"/>
<path d="M0 0 C16.88283159 1.29867935 29.04553789 6.66556941 40.28125 19.6328125 C47.92174524 29.63958052 50.88989474 38.33936847 53 51 C35.51 51 18.02 51 0 51 C0 34.17 0 17.34 0 0 Z " fill="#F0A857" transform="translate(275,206)"/>
<path d="M0 0 C0 16.83 0 33.66 0 51 C-17.16 51 -34.32 51 -52 51 C-52 37.62202288 -45.39293372 25.49578409 -36.3125 15.8125 C-25.76605489 5.85993238 -14.57514335 0 0 0 Z " fill="#F1A857" transform="translate(264,206)"/>
<path d="M0 0 C2.02350324 3.03525486 2.32124018 4.19426202 2.625 7.6875 C2.69976562 8.49574219 2.77453125 9.30398437 2.8515625 10.13671875 C2.92503906 11.05904297 2.92503906 11.05904297 3 12 C2.01 11.67 1.02 11.34 0 11 C-0.99 11.495 -0.99 11.495 -2 12 C-3.35384615 4.61538462 -3.35384615 4.61538462 -1.5625 1.5 C-1.046875 1.005 -0.53125 0.51 0 0 Z " fill="#6B8798" transform="translate(329,242)"/>
<path d="M0 0 C1.66666667 0 3.33333333 0 5 0 C4.34 2.97 3.68 5.94 3 9 C2.01 9 1.02 9 0 9 C-0.84454356 5.62182575 -1.10844919 3.32534757 0 0 Z " fill="#6C8797" transform="translate(326,277)"/>
<path d="M0 0 C0.99 0.33 1.98 0.66 3 1 C-0.3 4.3 -3.6 7.6 -7 11 C-7.33 10.01 -7.66 9.02 -8 8 C-5.36 5.36 -2.72 2.72 0 0 Z " fill="#63879C" transform="translate(165,156)"/>
<path d="M0 0 C1.093125 0.226875 2.18625 0.45375 3.3125 0.6875 C1.67837557 2.39590281 0.44343906 3.62203047 -1.6875 4.6875 C-4.3125 3.75 -4.3125 3.75 -6.6875 2.6875 C-4.58035839 -0.41123767 -3.86755884 -0.32775922 0 0 Z " fill="#708894" transform="translate(251.6875,318.3125)"/>
<path d="M0 0 C0.66 0 1.32 0 2 0 C2.66 1.98 3.32 3.96 4 6 C3.01 6.33 2.02 6.66 1 7 C-0.0625 4.625 -0.0625 4.625 -1 2 C-0.67 1.34 -0.34 0.68 0 0 Z " fill="#65879A" transform="translate(325,235)"/>
<path d="M0 0 C0.66 0.99 1.32 1.98 2 3 C1.67 3.99 1.34 4.98 1 6 C0.34 6 -0.32 6 -1 6 C-1.66 6.66 -2.32 7.32 -3 8 C-2.45276317 4.62537285 -1.9451 2.91765 0 0 Z " fill="#758992" transform="translate(329,242)"/>
<path d="M0 0 C0 0.66 0 1.32 0 2 C-1.98 2 -3.96 2 -6 2 C-6.33 1.34 -6.66 0.68 -7 0 C-4.3333581 -1.33332095 -2.83319697 -0.67102033 0 0 Z " fill="#5684A2" transform="translate(289,321)"/>
</svg>
