<?xml version="1.0" encoding="UTF-8"?>
<svg version="1.1" xmlns="http://www.w3.org/2000/svg" width="540" height="540">
<path d="M0 0 C0.92336151 0.00087616 1.84672302 0.00175232 2.79806519 0.00265503 C18.08207827 0.0503428 32.73854206 0.93246431 47.6875 4.375 C48.71504395 4.61105957 49.74258789 4.84711914 50.80126953 5.09033203 C100.59667952 16.98142994 146.84092452 46.38420318 176.6875 88.375 C177.10402832 88.95781738 177.52055664 89.54063477 177.94970703 90.14111328 C204.34649796 127.47328365 218.16870471 171.00459479 218.0625 216.6875 C218.06162384 217.61086151 218.06074768 218.53422302 218.05984497 219.48556519 C218.0121572 234.76957827 217.13003569 249.42604206 213.6875 264.375 C213.45144043 265.40254395 213.21538086 266.43008789 212.97216797 267.48876953 C201.08107006 317.28417952 171.67829682 363.52842452 129.6875 393.375 C129.10468262 393.79152832 128.52186523 394.20805664 127.92138672 394.63720703 C90.58921635 421.03399796 47.05790521 434.85620471 1.375 434.75 C-0.01004227 434.74868576 -0.01004227 434.74868576 -1.42306519 434.74734497 C-16.70707827 434.6996572 -31.36354206 433.81753569 -46.3125 430.375 C-47.34004395 430.13894043 -48.36758789 429.90288086 -49.42626953 429.65966797 C-99.22167952 417.76857006 -145.46592452 388.36579682 -175.3125 346.375 C-175.72902832 345.79218262 -176.14555664 345.20936523 -176.57470703 344.60888672 C-202.97149796 307.27671635 -216.79370471 263.74540521 -216.6875 218.0625 C-216.68662384 217.13913849 -216.68574768 216.21577698 -216.68484497 215.26443481 C-216.6371572 199.98042173 -215.75503569 185.32395794 -212.3125 170.375 C-212.07644043 169.34745605 -211.84038086 168.31991211 -211.59716797 167.26123047 C-199.70607006 117.46582048 -170.30329682 71.22157548 -128.3125 41.375 C-127.72968262 40.95847168 -127.14686523 40.54194336 -126.54638672 40.11279297 C-89.21421635 13.71600204 -45.68290521 -0.10620471 0 0 Z " fill="#F2A857" transform="translate(269.3125,52.625)"/>
<path d="M0 0 C0.92336151 0.00087616 1.84672302 0.00175232 2.79806519 0.00265503 C18.08207827 0.0503428 32.73854206 0.93246431 47.6875 4.375 C48.71504395 4.61105957 49.74258789 4.84711914 50.80126953 5.09033203 C100.59667952 16.98142994 146.84092452 46.38420318 176.6875 88.375 C177.10402832 88.95781738 177.52055664 89.54063477 177.94970703 90.14111328 C204.34649796 127.47328365 218.16870471 171.00459479 218.0625 216.6875 C218.06162384 217.61086151 218.06074768 218.53422302 218.05984497 219.48556519 C218.0121572 234.76957827 217.13003569 249.42604206 213.6875 264.375 C213.45144043 265.40254395 213.21538086 266.43008789 212.97216797 267.48876953 C201.08107006 317.28417952 171.67829682 363.52842452 129.6875 393.375 C129.10468262 393.79152832 128.52186523 394.20805664 127.92138672 394.63720703 C90.58921635 421.03399796 47.05790521 434.85620471 1.375 434.75 C-0.01004227 434.74868576 -0.01004227 434.74868576 -1.42306519 434.74734497 C-16.70707827 434.6996572 -31.36354206 433.81753569 -46.3125 430.375 C-47.34004395 430.13894043 -48.36758789 429.90288086 -49.42626953 429.65966797 C-99.22167952 417.76857006 -145.46592452 388.36579682 -175.3125 346.375 C-175.72902832 345.79218262 -176.14555664 345.20936523 -176.57470703 344.60888672 C-202.97149796 307.27671635 -216.79370471 263.74540521 -216.6875 218.0625 C-216.68662384 217.13913849 -216.68574768 216.21577698 -216.68484497 215.26443481 C-216.6371572 199.98042173 -215.75503569 185.32395794 -212.3125 170.375 C-212.07644043 169.34745605 -211.84038086 168.31991211 -211.59716797 167.26123047 C-199.70607006 117.46582048 -170.30329682 71.22157548 -128.3125 41.375 C-127.72968262 40.95847168 -127.14686523 40.54194336 -126.54638672 40.11279297 C-89.21421635 13.71600204 -45.68290521 -0.10620471 0 0 Z M-56.3125 31.375 C-57.77212158 31.84800537 -57.77212158 31.84800537 -59.26123047 32.33056641 C-78.20814823 38.6200404 -96.16448486 47.64357545 -112.3125 59.375 C-112.8698584 59.77686523 -113.4272168 60.17873047 -114.00146484 60.59277344 C-145.68775502 83.63566011 -169.37452793 115.42557852 -182.3125 152.375 C-182.57740234 153.12491211 -182.84230469 153.87482422 -183.11523438 154.64746094 C-186.8192296 165.27066274 -189.28077264 175.63584857 -190.76953125 186.7890625 C-191.3125 190.375 -191.3125 190.375 -192.3125 191.375 C-193.57162084 199.60425406 -193.55351077 207.88052 -193.5625 216.1875 C-193.56383942 216.91843872 -193.56517883 217.64937744 -193.56655884 218.40246582 C-193.56184638 230.28371131 -192.76555039 241.73095633 -190.3125 253.375 C-190.08433594 254.51710938 -189.85617188 255.65921875 -189.62109375 256.8359375 C-188.92878249 260.04034961 -188.13833152 263.20246173 -187.3125 266.375 C-187.15056152 267.0364502 -186.98862305 267.69790039 -186.82177734 268.37939453 C-183.8858759 280.34800477 -179.72778247 291.31238642 -174.3125 302.375 C-173.96171387 303.09574707 -173.61092773 303.81649414 -173.24951172 304.55908203 C-151.9356161 347.82150598 -113.77077539 382.93526427 -68.3125 399.375 C-67.66055664 399.61299316 -67.00861328 399.85098633 -66.33691406 400.09619141 C-57.80275689 403.17335003 -49.22032779 405.64688141 -40.3125 407.375 C-39.07306641 407.62878418 -39.07306641 407.62878418 -37.80859375 407.88769531 C-2.74616819 414.92730326 32.00993238 412.09859953 65.6875 400.375 C66.92628906 399.9521875 68.16507812 399.529375 69.44140625 399.09375 C91.80616284 390.97108994 112.809125 378.21423406 130.0546875 361.85546875 C132.23489474 359.80141594 134.44707531 357.85018013 136.75 355.9375 C139.15053658 353.8434149 141.04228863 352.0847599 142.6875 349.375 C142.6875 348.715 142.6875 348.055 142.6875 347.375 C143.28804199 347.10937256 143.88858398 346.84374512 144.50732422 346.57006836 C156.69020347 339.89199513 166.52809078 319.27833883 172.6875 307.375 C173.05472168 306.66649902 173.42194336 305.95799805 173.80029297 305.22802734 C182.83554714 287.54772075 188.14469641 269.36828296 192.15185547 249.96728516 C192.5004257 248.28035778 192.86828619 246.59726368 193.25830078 244.91943359 C195.16598961 236.00836164 195.0824033 227.07082019 195.0625 218 C195.06262085 217.15628845 195.0627417 216.3125769 195.06286621 215.44329834 C195.03611714 202.33283107 194.02105905 190.09500776 190.6875 177.375 C190.3444523 175.91381099 190.00585444 174.4515696 189.671875 172.98828125 C187.80396929 164.96108566 185.45166457 157.1381856 182.6875 149.375 C182.0275 149.375 181.3675 149.375 180.6875 149.375 C180.58373047 148.8188501 180.47996094 148.2627002 180.37304688 147.68969727 C179.26068721 142.18316784 177.63341024 137.36024953 175.1875 132.3125 C174.84146729 131.58933594 174.49543457 130.86617188 174.13891602 130.12109375 C168.55953469 118.74759711 161.71355716 108.16791752 153.6875 98.375 C153.16800781 97.67246094 152.64851563 96.96992188 152.11328125 96.24609375 C132.09709526 69.66279954 103.98954998 50.41798764 73.6875 37.375 C72.61757813 36.90578125 71.54765625 36.4365625 70.4453125 35.953125 C64.12148262 33.34635543 57.67590901 31.45183437 51.0625 29.75 C50.31830811 29.55575439 49.57411621 29.36150879 48.80737305 29.16137695 C32.09046687 25.06172574 15.55016809 23.73092651 -1.625 23.75 C-3.196483 23.74830811 -3.196483 23.74830811 -4.79971313 23.74658203 C-22.91285105 23.78791932 -39.05756127 25.64525436 -56.3125 31.375 Z " fill="#EDA759" transform="translate(269.3125,52.625)"/>
<path d="M0 0 C3.47847677 3.43483997 6.83054855 6.94843759 10.125 10.5625 C11.09107972 11.62115409 12.05722756 12.67974601 13.0234375 13.73828125 C13.51424805 14.27662598 14.00505859 14.8149707 14.51074219 15.36962891 C15.97485935 16.97247717 17.44352893 18.57100698 18.9140625 20.16796875 C23.42362094 25.066947 27.90121508 29.98616214 32.265625 35.015625 C35.04224694 38.19248074 37.87305087 41.31999249 40.703125 44.44921875 C42.1608288 46.06806328 43.6098464 47.69480592 45.046875 49.33203125 C54.3343858 59.85904067 64.26134978 69.94993612 75 79 C76.15515921 80.00477318 77.30862851 81.01149061 78.4609375 82.01953125 C79.09733154 82.57511719 79.73372559 83.13070312 80.3894043 83.703125 C81.70990549 84.8565543 83.02908694 86.01149631 84.34692383 87.16796875 C88.00857885 90.35784862 91.7405496 93.28904305 95.6875 96.125 C100.12572231 99.58593164 101.6993136 103.01688846 103.18359375 108.38671875 C104.08453047 111.27057839 105.42849373 113.42458308 107 116 C107.73331337 117.69767067 108.46532166 119.39603417 109.17431641 121.10400391 C110.05592507 123.12841931 111.03075767 125.08072861 112.04296875 127.04296875 C112.56987305 128.06487305 112.56987305 128.06487305 113.10742188 129.10742188 C113.83475896 130.50817052 114.5666249 131.90657578 115.30273438 133.30273438 C117.12789759 136.86163334 118 138.92575455 118 143 C118.99 143.33 119.98 143.66 121 144 C121 144.66 121 145.32 121 146 C121.99580078 145.49339844 121.99580078 145.49339844 123.01171875 144.9765625 C123.89472656 144.53054688 124.77773438 144.08453125 125.6875 143.625 C126.55761719 143.18414062 127.42773438 142.74328125 128.32421875 142.2890625 C130.84772799 141.07335732 133.38737532 140.00739042 136 139 C147.70615034 151.48519362 147.70615034 151.48519362 152 158 C150.04414675 159.00484204 148.08523763 160.00373805 146.125 161 C145.03445313 161.556875 143.94390625 162.11375 142.8203125 162.6875 C140 164 140 164 138 164 C143.3663921 170.64023264 148.83323743 177.17856754 154.40185547 183.64916992 C158.3776699 188.26907894 162.32588367 192.91135606 166.25268555 197.57299805 C168.698613 200.47440211 171.17704396 203.34192453 173.6875 206.1875 C176 209 176 209 176 211 C176.66 211 177.32 211 178 211 C179.59375 212.765625 179.59375 212.765625 181.5 215.25 C184.59609858 219.23390906 187.78100136 223.10490999 191.0625 226.9375 C194.78159698 231.34982212 198.01416861 235.89465876 201.01953125 240.8203125 C203.09105388 244.14618907 205.26520838 247.38601688 207.46044922 250.63085938 C212.38049897 257.90671473 217.05274532 265.14011568 221 273 C219.12641553 274.10656688 217.25106361 275.21014146 215.375 276.3125 C213.80878906 277.23482422 213.80878906 277.23482422 212.2109375 278.17578125 C209.18394532 279.89549579 206.12471062 281.46680866 203 283 C202.10796875 283.45761719 201.2159375 283.91523438 200.296875 284.38671875 C199.45640625 284.81597656 198.6159375 285.24523437 197.75 285.6875 C196.89921875 286.12449219 196.0484375 286.56148438 195.171875 287.01171875 C193 288 193 288 191 288 C191 288.66 191 289.32 191 290 C183.80886228 292.55004884 176.68693584 295 169 295 C168.76925781 293.73285156 168.53851563 292.46570313 168.30078125 291.16015625 C166.20286427 279.30438053 166.20286427 279.30438053 160.953125 268.59375 C160 267 160 267 160 264 C159.34 264 158.68 264 158 264 C156.68234137 262.25748883 155.44929574 260.45099539 154.25 258.625 C150.5221455 253.07527332 146.56633425 247.75740933 142.4375 242.5 C141.2290755 240.95840479 140.02074462 239.41673619 138.8125 237.875 C137.88050781 236.68583984 137.88050781 236.68583984 136.9296875 235.47265625 C127.77588016 223.74318247 118.80201292 211.88342913 110.15991211 199.77148438 C108.05070645 196.81755829 105.94482385 193.93276548 103.640625 191.125 C102 189 102 189 102 187 C101.34 187 100.68 187 100 187 C100 186.34 100 185.68 100 185 C98.90300781 185.56589844 97.80601562 186.13179687 96.67578125 186.71484375 C95.22151727 187.45604926 93.76708107 188.19691695 92.3125 188.9375 C91.59126953 189.31068359 90.87003906 189.68386719 90.12695312 190.06835938 C89.42119141 190.42607422 88.71542969 190.78378906 87.98828125 191.15234375 C87.02208862 191.6472229 87.02208862 191.6472229 86.03637695 192.15209961 C84 193 84 193 79 194 C77.02 189.05 75.04 184.1 73 179 C73.66 178.67 74.32 178.34 75 178 C75 177.34 75 176.68 75 176 C76.84375 174.625 76.84375 174.625 79.5 173 C80.48613281 172.39027344 81.47226563 171.78054688 82.48828125 171.15234375 C83.04080566 170.81444824 83.59333008 170.47655273 84.16259766 170.12841797 C86.95173429 168.41550414 89.72271856 166.6738237 92.49609375 164.93554688 C95.66119289 162.95242326 98.83067185 160.97635645 102 159 C100.22821947 159.956581 98.45760924 160.91532988 96.6875 161.875 C95.70136719 162.40867187 94.71523438 162.94234375 93.69921875 163.4921875 C90.90413542 165.00722126 90.90413542 165.00722126 88 167 C87.01 167 86.02 167 85 167 C83.86065346 165.61897389 82.72812682 164.23188071 81.6262207 162.82080078 C79.73191249 160.69983536 77.67677855 159.09460547 75.41796875 157.3671875 C70.03659129 153.12142855 65.19405339 148.49145391 60.375 143.625 C59.5809375 142.83867187 58.786875 142.05234375 57.96875 141.2421875 C52.54470042 135.80035416 47.68571239 130.08439502 43 124 C42.47083984 123.32485352 41.94167969 122.64970703 41.39648438 121.95410156 C35.79146017 114.77657713 30.46756646 107.48319494 25.75 99.6875 C25.367229 99.05948486 24.98445801 98.43146973 24.59008789 97.78442383 C22.93280711 94.96824884 22 93.32569499 22 90 C21.34 90 20.68 90 20 90 C10.32268268 69.44184112 4.87083113 49.38183543 1 27 C0.73714092 25.56247041 0.47414534 24.12496577 0.2109375 22.6875 C-1.08543434 14.94383887 -0.95735595 7.78822005 0 0 Z " fill="#5984A0" transform="translate(174,125)"/>
<path d="M0 0 C0.86351074 0.16628906 1.72702148 0.33257812 2.61669922 0.50390625 C22.42709773 4.47702239 41.27125459 11.33064127 59 21 C59.8957373 21.47904785 59.8957373 21.47904785 60.80957031 21.96777344 C107.65548147 47.11394373 142.00298513 91.01886732 157.78613281 141.51513672 C166.89469871 172.43372611 169.11449705 205.27803746 163 237 C162.83371094 237.86351074 162.66742188 238.72702148 162.49609375 239.61669922 C158.52297761 259.42709773 151.66935873 278.27125459 142 296 C141.68063477 296.5971582 141.36126953 297.19431641 141.03222656 297.80957031 C115.88605627 344.65548147 71.98113268 379.00298513 21.48486328 394.78613281 C-9.43372611 403.89469871 -42.27803746 406.11449705 -74 400 C-74.86351074 399.83371094 -75.72702148 399.66742188 -76.61669922 399.49609375 C-96.42709773 395.52297761 -115.27125459 388.66935873 -133 379 C-133.5971582 378.68063477 -134.19431641 378.36126953 -134.80957031 378.03222656 C-181.65548147 352.88605627 -216.00298513 308.98113268 -231.78613281 258.48486328 C-240.89469871 227.56627389 -243.11449705 194.72196254 -237 163 C-236.83371094 162.13648926 -236.66742188 161.27297852 -236.49609375 160.38330078 C-232.52297761 140.57290227 -225.66935873 121.72874541 -216 104 C-215.68063477 103.4028418 -215.36126953 102.80568359 -215.03222656 102.19042969 C-189.88605627 55.34451853 -145.98113268 20.99701487 -95.48486328 5.21386719 C-64.56627389 -3.89469871 -31.72196254 -6.11449705 0 0 Z M-94 14 C-95.45962158 14.47300537 -95.45962158 14.47300537 -96.94873047 14.95556641 C-115.89564823 21.2450404 -133.85198486 30.26857545 -150 42 C-150.5573584 42.40186523 -151.1147168 42.80373047 -151.68896484 43.21777344 C-183.37525502 66.26066011 -207.06202793 98.05057852 -220 135 C-220.26490234 135.74991211 -220.52980469 136.49982422 -220.80273438 137.27246094 C-224.5067296 147.89566274 -226.96827264 158.26084857 -228.45703125 169.4140625 C-229 173 -229 173 -230 174 C-231.25912084 182.22925406 -231.24101077 190.50552 -231.25 198.8125 C-231.25133942 199.54343872 -231.25267883 200.27437744 -231.25405884 201.02746582 C-231.24934638 212.90871131 -230.45305039 224.35595633 -228 236 C-227.77183594 237.14210938 -227.54367188 238.28421875 -227.30859375 239.4609375 C-226.61628249 242.66534961 -225.82583152 245.82746173 -225 249 C-224.83806152 249.6614502 -224.67612305 250.32290039 -224.50927734 251.00439453 C-221.5733759 262.97300477 -217.41528247 273.93738642 -212 285 C-211.64921387 285.72074707 -211.29842773 286.44149414 -210.93701172 287.18408203 C-189.6231161 330.44650598 -151.45827539 365.56026427 -106 382 C-105.34805664 382.23799316 -104.69611328 382.47598633 -104.02441406 382.72119141 C-95.49025689 385.79835003 -86.90782779 388.27188141 -78 390 C-76.76056641 390.25378418 -76.76056641 390.25378418 -75.49609375 390.51269531 C-40.43366819 397.55230326 -5.67756762 394.72359953 28 383 C29.23878906 382.5771875 30.47757812 382.154375 31.75390625 381.71875 C54.11866284 373.59608994 75.121625 360.83923406 92.3671875 344.48046875 C94.54739474 342.42641594 96.75957531 340.47518013 99.0625 338.5625 C101.46303658 336.4684149 103.35478863 334.7097599 105 332 C105 331.34 105 330.68 105 330 C105.60054199 329.73437256 106.20108398 329.46874512 106.81982422 329.19506836 C119.00270347 322.51699513 128.84059078 301.90333883 135 290 C135.36722168 289.29149902 135.73444336 288.58299805 136.11279297 287.85302734 C145.14804714 270.17272075 150.45719641 251.99328296 154.46435547 232.59228516 C154.8129257 230.90535778 155.18078619 229.22226368 155.57080078 227.54443359 C157.47848961 218.63336164 157.3949033 209.69582019 157.375 200.625 C157.37512085 199.78128845 157.3752417 198.9375769 157.37536621 198.06829834 C157.34861714 184.95783107 156.33355905 172.72000776 153 160 C152.6569523 158.53881099 152.31835444 157.0765696 151.984375 155.61328125 C150.11646929 147.58608566 147.76416457 139.7631856 145 132 C144.34 132 143.68 132 143 132 C142.89623047 131.4438501 142.79246094 130.8877002 142.68554688 130.31469727 C141.57318721 124.80816784 139.94591024 119.98524953 137.5 114.9375 C137.15396729 114.21433594 136.80793457 113.49117188 136.45141602 112.74609375 C130.87203469 101.37259711 124.02605716 90.79291752 116 81 C115.48050781 80.29746094 114.96101563 79.59492188 114.42578125 78.87109375 C94.40959526 52.28779954 66.30204998 33.04298764 36 20 C34.93007813 19.53078125 33.86015625 19.0615625 32.7578125 18.578125 C26.43398262 15.97135543 19.98840901 14.07683437 13.375 12.375 C12.63080811 12.18075439 11.88661621 11.98650879 11.11987305 11.78637695 C-5.59703313 7.68672574 -22.13733191 6.35592651 -39.3125 6.375 C-40.883983 6.37330811 -40.883983 6.37330811 -42.48721313 6.37158203 C-60.60035105 6.41291932 -76.74506127 8.27025436 -94 14 Z " fill="#5A85A0" transform="translate(307,70)"/>
</svg>
