<svg width="79" height="71" viewBox="0 0 79 71" fill="none" xmlns="http://www.w3.org/2000/svg">
<path d="M26.4909 49.7642C26.3355 49.7643 26.1857 49.7116 26.0717 49.6165C25.9578 49.5215 25.888 49.3913 25.8764 49.252C25.8702 49.1794 25.88 49.1063 25.9053 49.0371C25.9305 48.9679 25.9708 48.9039 26.0236 48.8486C26.0764 48.7934 26.1409 48.7481 26.2132 48.7153C26.2856 48.6824 26.3644 48.6628 26.4452 48.6574L72.9053 45.5171L77.6515 18.863H17.2856C16.9444 18.863 16.6684 18.6151 16.6684 18.3085C16.6683 18.2356 16.6843 18.1635 16.7153 18.0962C16.7463 18.0289 16.7917 17.9677 16.8491 17.9162C16.9064 17.8647 16.9744 17.8239 17.0493 17.796C17.1242 17.7682 17.2045 17.7539 17.2856 17.7539H78.3745C78.4638 17.754 78.552 17.7714 78.633 17.8051C78.7141 17.8387 78.7861 17.8878 78.844 17.9488C78.902 18.0099 78.9445 18.0815 78.9687 18.1587C78.9929 18.2359 78.9982 18.317 78.9843 18.3962L74.0478 46.1249C74.0256 46.2482 73.9579 46.3611 73.8556 46.4456C73.7533 46.5301 73.6223 46.5811 73.4837 46.5906L26.5378 49.7631C26.5222 49.7642 26.5065 49.7642 26.4909 49.7642ZM24.0726 49.9191C23.9369 49.9191 23.8051 49.8789 23.6974 49.8046C23.5898 49.7304 23.5124 49.6263 23.4773 49.5085L9.902 4.03316C9.88096 3.96283 9.87556 3.88946 9.8861 3.81725C9.89664 3.74504 9.92292 3.67541 9.96343 3.61234C10.0039 3.54927 10.0579 3.49399 10.1222 3.44968C10.1865 3.40536 10.2599 3.37288 10.3382 3.35409C10.6673 3.27615 11.0058 3.44949 11.0938 3.74611L24.669 49.2217C24.69 49.2921 24.6954 49.3654 24.6848 49.4376C24.6742 49.5098 24.648 49.5795 24.6074 49.6425C24.5669 49.7056 24.513 49.7609 24.4487 49.8052C24.3844 49.8495 24.3111 49.882 24.2328 49.9008C24.1805 49.9132 24.1267 49.9194 24.0726 49.9191Z" fill="#FF9D00"/>
<path d="M26.4914 49.7664C26.3557 49.7664 26.2239 49.7261 26.1163 49.6519C26.0086 49.5777 25.9312 49.4737 25.8961 49.3559L11.6554 1.81533C11.6153 1.67398 11.6387 1.5241 11.7206 1.39817C11.8026 1.27223 11.9364 1.18038 12.0932 1.1425C12.2499 1.10462 12.417 1.12377 12.5581 1.19579C12.6993 1.26782 12.8032 1.38692 12.8474 1.52731L27.0879 49.0678C27.1303 49.2099 27.1083 49.3613 27.0266 49.4888C26.9449 49.6163 26.8103 49.7095 26.6523 49.748C26.5998 49.7605 26.5457 49.7667 26.4914 49.7664ZM10.4979 4.44413H1.8591C1.77805 4.44419 1.69779 4.42988 1.6229 4.40203C1.54801 4.37418 1.47996 4.33334 1.42265 4.28183C1.36535 4.23033 1.3199 4.16917 1.28891 4.10187C1.25792 4.03456 1.242 3.96242 1.24207 3.88958C1.24203 3.81675 1.25796 3.74462 1.28895 3.67732C1.31995 3.61003 1.3654 3.54888 1.4227 3.49738C1.48 3.44588 1.54804 3.40503 1.62292 3.37717C1.6978 3.34932 1.77806 3.335 1.8591 3.33504H10.4979C10.5789 3.335 10.6592 3.34932 10.734 3.37717C10.8089 3.40503 10.877 3.44588 10.9343 3.49738C10.9916 3.54888 11.037 3.61003 11.068 3.67732C11.099 3.74462 11.1149 3.81675 11.1149 3.88958C11.1149 3.96242 11.099 4.03455 11.068 4.10184C11.037 4.16914 10.9916 4.23029 10.9343 4.28179C10.877 4.33329 10.8089 4.37414 10.734 4.40199C10.6592 4.42985 10.5789 4.44417 10.4979 4.44413Z" fill="#FF9D00"/>
<path d="M12.2515 2.22594H1.8591C1.77806 2.22597 1.6978 2.21165 1.62292 2.1838C1.54804 2.15594 1.48 2.1151 1.4227 2.06359C1.36539 2.01209 1.31995 1.95094 1.28895 1.88365C1.25796 1.81635 1.24202 1.74422 1.24207 1.67139C1.24207 1.36478 1.51795 1.1167 1.8591 1.1167H12.2516C12.3327 1.11666 12.4129 1.13099 12.4878 1.15885C12.5627 1.18672 12.6308 1.22757 12.6881 1.27909C12.7454 1.33061 12.7908 1.39177 12.8218 1.45908C12.8528 1.5264 12.8687 1.59854 12.8686 1.67139C12.8686 1.74422 12.8527 1.81635 12.8217 1.88364C12.7906 1.95093 12.7452 2.01206 12.6879 2.06356C12.6306 2.11506 12.5625 2.1559 12.4876 2.18376C12.4128 2.21162 12.3325 2.22595 12.2515 2.22594Z" fill="#FF9D00"/>
<path d="M1.85907 4.44413C0.838238 4.44413 0.0078125 3.6978 0.0078125 2.78048C0.0078125 1.86303 0.838238 1.1167 1.85907 1.1167C1.94012 1.11666 2.02039 1.13099 2.09528 1.15885C2.17017 1.18672 2.23821 1.22757 2.29552 1.27909C2.35283 1.33061 2.39827 1.39177 2.42926 1.45908C2.46024 1.5264 2.47616 1.59854 2.4761 1.67139C2.47614 1.74422 2.46021 1.81635 2.42921 1.88365C2.39822 1.95094 2.35277 2.01209 2.29546 2.06359C2.23816 2.1151 2.17012 2.15594 2.09524 2.1838C2.02036 2.21165 1.94011 2.22597 1.85907 2.22594C1.69544 2.22601 1.53855 2.28446 1.42285 2.38844C1.30715 2.49242 1.24211 2.63343 1.24203 2.78048C1.24216 2.92753 1.3072 3.06851 1.42289 3.17249C1.53858 3.27646 1.69546 3.33492 1.85907 3.33503C1.94011 3.335 2.02036 3.34932 2.09524 3.37717C2.17012 3.40503 2.23816 3.44587 2.29546 3.49738C2.35277 3.54888 2.39822 3.61002 2.42921 3.67732C2.46021 3.74462 2.47614 3.81675 2.4761 3.88958C2.47614 3.96242 2.46021 4.03454 2.42921 4.10184C2.39822 4.16914 2.35277 4.23029 2.29546 4.28179C2.23816 4.33329 2.17012 4.37414 2.09524 4.40199C2.02036 4.42985 1.94011 4.44417 1.85907 4.44413ZM73.4378 25.518H23.2608C23.1798 25.518 23.0995 25.5037 23.0246 25.4758C22.9498 25.448 22.8817 25.4071 22.8244 25.3556C22.7671 25.3041 22.7217 25.243 22.6907 25.1757C22.6597 25.1084 22.6437 25.0362 22.6438 24.9634C22.6437 24.8906 22.6597 24.8184 22.6907 24.7511C22.7217 24.6839 22.7671 24.6227 22.8244 24.5712C22.8817 24.5197 22.9498 24.4789 23.0246 24.451C23.0995 24.4231 23.1798 24.4088 23.2608 24.4089H73.4378C73.779 24.4089 74.055 24.6568 74.055 24.9634C74.0551 25.0363 74.0391 25.1084 74.0081 25.1757C73.9771 25.243 73.9317 25.3042 73.8743 25.3557C73.817 25.4072 73.749 25.448 73.6741 25.4759C73.5992 25.5037 73.5189 25.518 73.4378 25.518ZM70.9697 33.2819H26.9632C26.6222 33.2819 26.3461 33.034 26.3461 32.7274C26.3461 32.4208 26.6222 32.1728 26.9632 32.1728H70.9697C71.3109 32.1728 71.5867 32.4208 71.5867 32.7274C71.5867 33.034 71.3109 33.2819 70.9697 33.2819ZM68.5014 41.046H29.4315C29.3504 41.0461 29.2701 41.0317 29.1952 41.0039C29.1203 40.976 29.0523 40.9351 28.995 40.8836C28.9377 40.8321 28.8922 40.7709 28.8613 40.7036C28.8303 40.6363 28.8144 40.5642 28.8144 40.4913C28.8144 40.4185 28.8303 40.3464 28.8613 40.2791C28.8923 40.2118 28.9377 40.1506 28.9951 40.0991C29.0524 40.0476 29.1204 40.0068 29.1953 39.9789C29.2702 39.9511 29.3504 39.9367 29.4315 39.9368H68.5014C68.5825 39.9367 68.6627 39.9511 68.7376 39.9789C68.8125 40.0068 68.8805 40.0476 68.9378 40.0991C68.9951 40.1506 69.0406 40.2118 69.0716 40.2791C69.1026 40.3464 69.1185 40.4185 69.1185 40.4913C69.1185 40.7979 68.8426 41.046 68.5014 41.046ZM22.8385 56.5741C22.7458 56.5742 22.6543 56.5553 22.571 56.5189C22.498 56.4873 22.4326 56.4431 22.3787 56.3889C22.3247 56.3346 22.2832 56.2713 22.2565 56.2025C22.2299 56.1338 22.2185 56.061 22.2232 55.9884C22.2278 55.9157 22.2484 55.8446 22.2837 55.7791L25.9366 48.9714C26.0841 48.6964 26.4531 48.5814 26.7604 48.7126C26.9078 48.7767 27.0208 48.8907 27.0747 49.0296C27.1285 49.1685 27.1189 49.3209 27.0477 49.4534L23.3947 56.2611C23.3443 56.3551 23.2653 56.4343 23.1668 56.4897C23.0684 56.5451 22.9546 56.5743 22.8385 56.5741ZM20.3949 56.5741C20.3023 56.5742 20.2108 56.5553 20.1275 56.5189C20.0545 56.4874 19.9891 56.4432 19.9352 56.3889C19.8812 56.3346 19.8396 56.2713 19.8129 56.2026C19.7862 56.1339 19.7749 56.0611 19.7795 55.9884C19.7842 55.9157 19.8048 55.8446 19.8401 55.7791L23.493 48.9714C23.6407 48.6964 24.0095 48.5814 24.3168 48.7126C24.4642 48.7767 24.5772 48.8907 24.6311 49.0296C24.685 49.1685 24.6754 49.3209 24.6043 49.4534L20.9513 56.2611C20.9008 56.3551 20.8218 56.4343 20.7233 56.4897C20.6249 56.5451 20.511 56.5743 20.3949 56.5741ZM70.9697 61.0106H26.5415C26.4604 61.0106 26.3802 60.9963 26.3053 60.9685C26.2304 60.9406 26.1624 60.8998 26.1051 60.8483C26.0478 60.7968 26.0023 60.7356 25.9713 60.6683C25.9403 60.601 25.9244 60.5289 25.9244 60.4561C25.9244 60.1495 26.2003 59.9014 26.5415 59.9014H70.9697C71.0508 59.9013 71.131 59.9157 71.2059 59.9435C71.2808 59.9714 71.3489 60.0122 71.4062 60.0638C71.4635 60.1153 71.5089 60.1764 71.5399 60.2438C71.5709 60.3111 71.5868 60.3832 71.5867 60.4561C71.5868 60.5289 71.5709 60.601 71.5399 60.6683C71.5089 60.7356 71.4634 60.7968 71.4061 60.8483C71.3488 60.8998 71.2808 60.9406 71.2059 60.9685C71.131 60.9963 71.0508 61.0106 70.9697 61.0106ZM70.9697 58.7923H26.5415C26.4604 58.7923 26.3802 58.778 26.3053 58.7502C26.2304 58.7223 26.1623 58.6815 26.105 58.63C26.0477 58.5785 26.0023 58.5173 25.9713 58.45C25.9403 58.3827 25.9244 58.3106 25.9244 58.2377C25.9244 58.1649 25.9403 58.0928 25.9713 58.0255C26.0023 57.9582 26.0478 57.897 26.1051 57.8455C26.1624 57.794 26.2304 57.7532 26.3053 57.7253C26.3802 57.6975 26.4604 57.6831 26.5415 57.6832H70.9697C71.0508 57.6831 71.131 57.6975 71.2059 57.7253C71.2808 57.7532 71.3488 57.794 71.4061 57.8455C71.4634 57.897 71.5089 57.9582 71.5399 58.0255C71.5709 58.0928 71.5868 58.1649 71.5867 58.2377C71.5868 58.3106 71.5709 58.3827 71.5399 58.45C71.5089 58.5173 71.4635 58.5785 71.4062 58.63C71.3488 58.6815 71.2808 58.7223 71.2059 58.7502C71.131 58.778 71.0508 58.7923 70.9697 58.7923Z" fill="#FF9D00"/>
<path d="M26.5416 61.0106C22.7988 61.0106 19.7539 58.7716 19.7539 56.0194C19.7539 55.9466 19.7698 55.8744 19.8008 55.8071C19.8318 55.7398 19.8772 55.6787 19.9345 55.6272C19.9918 55.5757 20.0599 55.5348 20.1348 55.507C20.2096 55.4791 20.2899 55.4648 20.3709 55.4648C20.452 55.4648 20.5322 55.4791 20.6071 55.507C20.682 55.5348 20.75 55.5757 20.8073 55.6272C20.8646 55.6787 20.9101 55.7398 20.9411 55.8071C20.9721 55.8744 20.988 55.9466 20.988 56.0194C20.988 58.1598 23.4793 59.9014 26.5416 59.9014C26.6226 59.9013 26.7029 59.9157 26.7778 59.9435C26.8527 59.9714 26.9207 60.0122 26.978 60.0638C27.0353 60.1153 27.0808 60.1764 27.1118 60.2438C27.1428 60.3111 27.1587 60.3832 27.1586 60.4561C27.1587 60.5289 27.1427 60.601 27.1117 60.6683C27.0807 60.7356 27.0353 60.7968 26.978 60.8483C26.9207 60.8998 26.8526 60.9406 26.7778 60.9685C26.7029 60.9963 26.6226 61.0106 26.5416 61.0106Z" fill="#FF9D00"/>
<path d="M26.5416 58.7923C24.5024 58.7923 22.2222 57.6062 22.2222 56.0194C22.2221 55.9466 22.2381 55.8745 22.2691 55.8072C22.3 55.7399 22.3455 55.6787 22.4028 55.6272C22.4601 55.5757 22.5281 55.5349 22.603 55.507C22.6779 55.4792 22.7582 55.4648 22.8392 55.4649C22.9202 55.4648 23.0005 55.4792 23.0754 55.507C23.1503 55.5349 23.2183 55.5757 23.2756 55.6272C23.3329 55.6787 23.3784 55.7399 23.4093 55.8072C23.4403 55.8745 23.4563 55.9466 23.4562 56.0194C23.4562 56.8286 25.0423 57.6832 26.5416 57.6832C26.6226 57.6832 26.7029 57.6975 26.7777 57.7253C26.8526 57.7532 26.9206 57.794 26.978 57.8455C27.0353 57.897 27.0807 57.9582 27.1117 58.0255C27.1427 58.0928 27.1586 58.1649 27.1586 58.2377C27.1586 58.3106 27.1427 58.3827 27.1117 58.45C27.0807 58.5173 27.0353 58.5785 26.978 58.63C26.9206 58.6815 26.8526 58.7223 26.7777 58.7502C26.7029 58.778 26.6226 58.7923 26.5416 58.7923ZM70.9698 61.0106C70.8888 61.0107 70.8085 60.9963 70.7336 60.9685C70.6587 60.9406 70.5907 60.8998 70.5334 60.8483C70.4761 60.7968 70.4306 60.7356 70.3997 60.6683C70.3687 60.601 70.3527 60.5289 70.3528 60.4561C70.3528 60.1495 70.6287 59.9014 70.9698 59.9014C71.1334 59.9014 71.2903 59.8429 71.406 59.739C71.5217 59.635 71.5868 59.494 71.5868 59.347C71.5868 59.0415 71.3097 58.7923 70.9698 58.7923C70.8888 58.7924 70.8085 58.778 70.7336 58.7502C70.6587 58.7223 70.5907 58.6815 70.5334 58.63C70.4761 58.5785 70.4306 58.5173 70.3996 58.45C70.3686 58.3827 70.3527 58.3106 70.3528 58.2377C70.3527 58.1649 70.3687 58.0928 70.3997 58.0255C70.4306 57.9582 70.4761 57.897 70.5334 57.8455C70.5907 57.794 70.6587 57.7532 70.7336 57.7253C70.8085 57.6975 70.8888 57.6832 70.9698 57.6832C71.9905 57.6832 72.8209 58.4295 72.8209 59.347C72.8209 60.2643 71.9905 61.0106 70.9698 61.0106ZM66.0334 43.2642C65.9523 43.2643 65.8721 43.25 65.7972 43.2221C65.7223 43.1942 65.6543 43.1534 65.597 43.1019C65.5397 43.0504 65.4942 42.9892 65.4632 42.922C65.4322 42.8547 65.4163 42.7825 65.4163 42.7097V22.7451C65.4163 22.6723 65.4322 22.6001 65.4632 22.5328C65.4942 22.4655 65.5397 22.4044 65.597 22.3529C65.6543 22.3014 65.7223 22.2605 65.7972 22.2327C65.8721 22.2048 65.9523 22.1905 66.0334 22.1906C66.1144 22.1905 66.1947 22.2048 66.2696 22.2327C66.3444 22.2605 66.4125 22.3014 66.4698 22.3529C66.5271 22.4044 66.5725 22.4655 66.6035 22.5328C66.6345 22.6001 66.6505 22.6723 66.6504 22.7451V42.7098C66.6504 42.7827 66.6345 42.8548 66.6035 42.922C66.5725 42.9893 66.527 43.0505 66.4697 43.1019C66.4124 43.1534 66.3444 43.1943 66.2695 43.2221C66.1947 43.25 66.1144 43.2643 66.0334 43.2642ZM57.3945 43.2642C57.3134 43.2643 57.2332 43.25 57.1583 43.2221C57.0834 43.1942 57.0154 43.1534 56.9581 43.1019C56.9008 43.0504 56.8554 42.9892 56.8244 42.9219C56.7934 42.8546 56.7775 42.7825 56.7776 42.7097V22.7451C56.7775 22.6723 56.7934 22.6001 56.8244 22.5329C56.8554 22.4656 56.9008 22.4044 56.9581 22.3529C57.0154 22.3014 57.0834 22.2606 57.1583 22.2327C57.2332 22.2048 57.3134 22.1905 57.3945 22.1906C57.7356 22.1906 58.0116 22.4386 58.0116 22.7451V42.7098C58.0117 42.7827 57.9957 42.8548 57.9647 42.9221C57.9337 42.9894 57.8882 43.0505 57.8309 43.102C57.7736 43.1535 57.7055 43.1943 57.6306 43.2222C57.5558 43.25 57.4755 43.2643 57.3945 43.2642ZM48.7555 43.2642C48.6745 43.2643 48.5942 43.25 48.5193 43.2221C48.4445 43.1942 48.3764 43.1534 48.3191 43.1019C48.2618 43.0504 48.2164 42.9892 48.1854 42.922C48.1544 42.8547 48.1384 42.7825 48.1385 42.7097V22.7451C48.1384 22.6723 48.1544 22.6001 48.1854 22.5328C48.2164 22.4655 48.2618 22.4044 48.3191 22.3529C48.3764 22.3014 48.4445 22.2605 48.5193 22.2327C48.5942 22.2048 48.6745 22.1905 48.7555 22.1906C49.0967 22.1906 49.3727 22.4386 49.3727 22.7451V42.7098C49.3727 42.7827 49.3568 42.8548 49.3258 42.9221C49.2948 42.9894 49.2493 43.0505 49.192 43.102C49.1346 43.1535 49.0666 43.1943 48.9917 43.2222C48.9168 43.25 48.8366 43.2643 48.7555 43.2642ZM40.1168 43.2642C40.0357 43.2643 39.9555 43.25 39.8806 43.2221C39.8057 43.1942 39.7377 43.1534 39.6804 43.1019C39.623 43.0504 39.5776 42.9892 39.5466 42.922C39.5156 42.8547 39.4997 42.7825 39.4997 42.7097V22.7451C39.4997 22.6723 39.5156 22.6001 39.5466 22.5328C39.5776 22.4655 39.623 22.4044 39.6804 22.3529C39.7377 22.3014 39.8057 22.2605 39.8806 22.2327C39.9555 22.2048 40.0357 22.1905 40.1168 22.1906C40.4579 22.1906 40.7339 22.4386 40.7339 22.7451V42.7098C40.734 42.7827 40.718 42.8548 40.687 42.9221C40.656 42.9894 40.6105 43.0505 40.5532 43.102C40.4959 43.1535 40.4278 43.1943 40.3529 43.2222C40.278 43.25 40.1978 43.2643 40.1168 43.2642ZM31.478 43.2642C31.3969 43.2643 31.3167 43.25 31.2418 43.2221C31.1669 43.1942 31.0989 43.1534 31.0416 43.1019C30.9843 43.0504 30.9388 42.9892 30.9078 42.922C30.8768 42.8547 30.8609 42.7825 30.8609 42.7097V22.7451C30.8609 22.6723 30.8768 22.6001 30.9078 22.5328C30.9388 22.4655 30.9843 22.4044 31.0416 22.3529C31.0989 22.3014 31.1669 22.2605 31.2418 22.2327C31.3167 22.2048 31.3969 22.1905 31.478 22.1906C31.559 22.1905 31.6393 22.2048 31.7142 22.2327C31.789 22.2605 31.8571 22.3014 31.9144 22.3529C31.9717 22.4044 32.0171 22.4655 32.0481 22.5328C32.0791 22.6001 32.095 22.6723 32.095 22.7451V42.7098C32.095 42.7827 32.0791 42.8548 32.0481 42.9221C32.0171 42.9894 31.9717 43.0505 31.9144 43.102C31.8571 43.1535 31.789 43.1943 31.7141 43.2222C31.6393 43.25 31.559 43.2643 31.478 43.2642ZM30.8609 69.8837C28.139 69.8837 25.9245 67.8939 25.9245 65.4472C25.9245 65.0162 25.9932 64.5892 26.1293 64.1798C26.1761 64.0391 26.2832 63.9207 26.4271 63.8508C26.5709 63.781 26.7397 63.7652 26.8964 63.8071C26.9741 63.8277 27.0465 63.8619 27.1094 63.9078C27.1724 63.9536 27.2246 64.0101 27.2632 64.0742C27.3018 64.1382 27.3259 64.2084 27.3342 64.2808C27.3425 64.3532 27.3349 64.4264 27.3117 64.4962C27.21 64.8048 27.1585 65.1251 27.1586 65.447C27.1586 67.2818 28.8194 68.7745 30.8609 68.7745C32.9024 68.7745 34.5633 67.2818 34.5633 65.447C34.5633 65.1231 34.5115 64.8036 34.4102 64.4962C34.387 64.4264 34.3793 64.3532 34.3876 64.2808C34.3959 64.2084 34.4201 64.1382 34.4586 64.0742C34.4972 64.0102 34.5494 63.9536 34.6123 63.9078C34.6753 63.862 34.7476 63.8277 34.8253 63.8071C34.9029 63.7861 34.9843 63.7791 35.065 63.7865C35.1456 63.7939 35.2238 63.8155 35.2951 63.8501C35.3664 63.8848 35.4294 63.9317 35.4804 63.9883C35.5314 64.0449 35.5695 64.11 35.5925 64.1798C35.7288 64.5911 35.7979 65.018 35.7974 65.4472C35.7974 67.894 33.5827 69.8837 30.8609 69.8837Z" fill="#FF9D00"/>
<path d="M30.8609 67.1109C29.4732 67.1109 28.0987 64.1906 27.1905 61.7406C27.1649 61.6715 27.1546 61.5987 27.1604 61.5261C27.1661 61.4535 27.1876 61.3826 27.2238 61.3176C27.26 61.2525 27.3101 61.1944 27.3713 61.1468C27.4325 61.0991 27.5035 61.0627 27.5803 61.0397C27.6571 61.0164 27.7382 61.0069 27.8191 61.0119C27.8999 61.0169 27.9789 61.0362 28.0515 61.0687C28.124 61.1012 28.1886 61.1463 28.2417 61.2013C28.2948 61.2564 28.3352 61.3203 28.3607 61.3895C29.211 63.6814 30.4007 65.8391 30.9055 66.0069C31.3212 65.8391 32.5108 63.6814 33.361 61.3895C33.3865 61.3203 33.4269 61.2564 33.48 61.2013C33.5331 61.1463 33.5977 61.1012 33.6703 61.0687C33.7428 61.0362 33.8218 61.0169 33.9026 61.0119C33.9835 61.0069 34.0647 61.0164 34.1414 61.0397C34.2183 61.0627 34.2894 61.099 34.3506 61.1467C34.4118 61.1943 34.4619 61.2524 34.4981 61.3175C34.5343 61.3826 34.5559 61.4534 34.5616 61.526C34.5673 61.5986 34.557 61.6715 34.5314 61.7406C33.6232 64.1906 32.2487 67.1109 30.8609 67.1109ZM62.9481 69.8837C60.2267 69.8837 58.0116 67.8939 58.0116 65.4471C58.0116 65.015 58.0815 64.5882 58.2165 64.1788C58.2641 64.0382 58.3716 63.9202 58.5156 63.8506C58.6597 63.7809 58.8285 63.7654 58.9853 63.8072C59.1418 63.8497 59.2733 63.9461 59.351 64.0754C59.4287 64.2047 59.4463 64.3564 59.4 64.4974C59.2975 64.8038 59.2457 65.1233 59.2457 65.4473C59.2457 67.282 60.9066 68.7747 62.9481 68.7747C64.9896 68.7747 66.6504 67.282 66.6504 65.4473C66.6504 65.1233 66.5998 64.8038 66.4973 64.4964C66.4512 64.3553 66.4691 64.2036 66.547 64.0743C66.6249 63.945 66.7565 63.8486 66.9132 63.8062C66.991 63.7855 67.0725 63.7788 67.1532 63.7864C67.2339 63.7941 67.3121 63.8159 67.3834 63.8507C67.4547 63.8855 67.5176 63.9326 67.5687 63.9893C67.6197 64.046 67.6578 64.1111 67.6808 64.1811C67.8161 64.5921 67.8847 65.0186 67.8845 65.4473C67.8845 67.894 65.6694 69.8837 62.9481 69.8837Z" fill="#FF9D00"/>
<path d="M62.948 67.1109C61.5597 67.1109 60.1858 64.1906 59.277 61.7406C59.2255 61.6011 59.2377 61.4489 59.3109 61.3175C59.3842 61.1861 59.5124 61.0862 59.6675 61.0397C59.7443 61.0165 59.8255 61.0071 59.9064 61.0122C59.9872 61.0172 60.0662 61.0365 60.1387 61.069C60.2112 61.1015 60.2759 61.1465 60.3291 61.2015C60.3822 61.2565 60.4228 61.3203 60.4484 61.3894C61.2981 63.6814 62.4878 65.8391 62.9926 66.0069C63.4083 65.8391 64.5978 63.6814 65.4476 61.3894C65.4732 61.3203 65.5138 61.2564 65.5669 61.2014C65.62 61.1464 65.6847 61.1013 65.7573 61.0688C65.8298 61.0363 65.9088 61.017 65.9897 61.012C66.0705 61.007 66.1517 61.0164 66.2285 61.0397C66.3837 61.0861 66.5121 61.186 66.5853 61.3174C66.6585 61.4489 66.6707 61.6011 66.6191 61.7406C65.7103 64.1906 64.3364 67.1109 62.948 67.1109Z" fill="#FF9D00"/>
</svg>
