<svg width="65" height="67" viewBox="0 0 65 67" fill="none" xmlns="http://www.w3.org/2000/svg">
<g clip-path="url(#clip0_214311_529)">
<path d="M37.6421 18.9086H37.5816C37.0207 18.9086 36.5962 19.3774 36.5962 19.9555C36.5962 20.5336 37.0812 21.0024 37.6421 21.0024C38.203 21.0024 38.6577 20.5336 38.6577 19.9555C38.6577 19.3774 38.2029 18.9086 37.6421 18.9086Z" fill="#FF9D00"/>
<path d="M45.8845 18.9086H45.828C45.2671 18.9086 44.8406 19.3774 44.8406 19.9555C44.8406 20.5336 45.3236 21.0024 45.8844 21.0024C46.4453 21.0024 46.9001 20.5336 46.9001 19.9555C46.9001 19.3774 46.4455 18.9086 45.8845 18.9086Z" fill="#FF9D00"/>
<path d="M54.1311 18.9086H54.0706C53.5097 18.9086 53.0852 19.3774 53.0852 19.9555C53.0852 20.5336 53.5702 21.0024 54.1311 21.0024C54.692 21.0024 55.1467 20.5336 55.1467 19.9555C55.1467 19.3774 54.692 18.9086 54.1311 18.9086Z" fill="#FF9D00"/>
<path d="M45.9032 49.44C40.6738 46.4001 39.1077 46.6485 35.1201 48.9723C33.074 50.3739 30.6103 49.5193 26.3285 45.9247C25.488 45.2188 24.6434 44.4315 23.8211 43.5882C22.9994 42.7376 22.2363 41.8671 21.5518 41.0001C18.324 36.9174 17.4452 33.1915 18.4936 32.0685C21.5831 28.6441 20.8819 25.8322 18.1549 20.8488C16.5124 17.6463 14.7088 14.4587 12.3081 13.7272C10.5674 13.2002 7.98278 14.5808 7.21314 15.1074C5.23348 16.4666 3.35346 18.8706 2.30655 21.3821C0.38093 26.0026 0.891688 31.5712 2.01202 35.2424C3.85234 41.2609 8.26939 48.2302 13.8286 53.8858C19.3174 59.6186 26.0786 64.1705 31.915 66.0623C33.7587 66.6619 36.096 67.0928 38.5453 67.0928C40.824 67.0928 43.1999 66.7197 45.3626 65.7623C47.7989 64.6811 50.1297 62.7433 51.4449 60.7052C51.9567 59.9144 53.3011 57.2507 52.7839 55.4489C52.0783 52.9788 48.9858 51.1192 45.9032 49.44ZM44.9297 51.2776C46.8107 52.3025 50.3123 54.2107 50.8355 56.0422C50.9427 56.4153 50.8123 57.0953 50.5716 57.802L36.831 50.3807C39.4154 48.9058 40.4619 48.6801 44.9297 51.2776ZM11.7335 15.7354C13.5133 16.2778 15.3645 19.8877 16.3723 21.8521C19.0345 26.717 19.0261 28.2521 17.3141 30.2877L9.90201 16.0539C10.4667 15.8387 11.0242 15.6967 11.4244 15.6967C11.5425 15.6966 11.6466 15.709 11.7335 15.7354ZM44.5602 63.8386C40.5815 65.6011 35.5911 65.0628 32.525 64.0651C26.9881 62.2703 20.5373 57.9131 15.2698 52.4104C15.2663 52.4068 15.2634 52.4038 15.2598 52.4001C9.92384 46.9725 5.69529 40.3228 3.94963 34.6135C2.98509 31.4525 2.46489 26.307 4.17327 22.208C5.03056 20.1514 6.5217 18.1994 8.10364 17.028L16.1504 32.4818C15.7074 34.9662 17.0837 38.6623 19.9769 42.3225C20.7034 43.2426 21.5127 44.1657 22.3851 45.0685C23.2579 45.9646 24.153 46.7987 25.0456 47.5482C28.1817 50.1814 31.4748 52.3913 34.5586 51.5174L49.6618 59.6747C48.5372 61.3465 46.6009 62.9334 44.5602 63.8386Z" fill="#FF9D00"/>
<path d="M61.9075 11.2759C57.2653 2.15562 46.2878 -1.37193 37.4363 3.40946C28.5883 8.19609 25.1645 19.5123 29.8047 28.6346C30.141 29.2955 30.5248 29.9484 30.9497 30.5832L28.2063 35.4301C28.0149 35.7681 28.0223 36.1882 28.2261 36.5185C28.4289 36.8492 28.7945 37.0327 29.1728 37.0004L37.0439 36.2832C39.7957 37.8607 42.8227 38.652 45.8542 38.652C48.7359 38.652 51.6216 37.9363 54.2768 36.5005C63.1254 31.7145 66.5487 20.3988 61.9075 11.2759ZM53.3332 34.6465C48.4102 37.3087 42.5957 37.1814 37.7785 34.3061C37.6238 34.2136 37.4477 34.165 37.2696 34.165C37.2399 34.165 37.2101 34.1665 37.1804 34.1691L30.9507 34.7365L33.036 31.0525C33.2409 30.6901 33.2165 30.2367 32.9735 29.9003C32.4523 29.1781 31.9916 28.4251 31.6039 27.6624C27.4834 19.5624 30.5227 9.51442 38.38 5.26348C46.2387 1.01516 55.9858 4.15065 60.1088 12.2486C64.2298 20.3492 61.1898 30.3966 53.3332 34.6465Z" fill="#FF9D00"/>
</g>
<defs>
<clipPath id="clip0_214311_529">
<rect width="65" height="67" fill="white"/>
</clipPath>
</defs>
</svg>
