<svg width="64" height="64" viewBox="0 0 64 64" fill="none" xmlns="http://www.w3.org/2000/svg">
<path fill-rule="evenodd" clip-rule="evenodd" d="M53.3334 61.3334H32C30.5272 61.3334 29.3334 60.1395 29.3334 58.6667C29.3334 57.1939 30.5272 56 32 56H53.3334C54.8062 56 56 54.8062 56 53.3334V10.6667C56 9.19392 54.8062 8.00002 53.3334 8.00002H32C30.5272 8.00002 29.3334 6.8061 29.3334 5.33336C29.3334 3.86061 30.5272 2.66669 32 2.66669L53.3334 2.66669C57.7518 2.66669 61.3334 6.24842 61.3334 10.6667V53.3334C61.3334 57.7518 57.7518 61.3334 53.3334 61.3334Z" fill="#FF9D00"/>
<path fill-rule="evenodd" clip-rule="evenodd" d="M49.8349 28.507C51.5723 30.5115 51.5723 33.4883 49.8349 35.4928L38.6971 48.3443C35.4635 52.0752 29.3333 49.7886 29.3333 44.8515V40H13.3333C10.3878 40 8 37.6123 8 34.6667V29.3334C8 26.3878 10.3878 24 13.3333 24H29.3333V19.1486C29.3333 14.2115 35.4635 11.9247 38.6971 15.6556L49.8349 28.507ZM44.2909 33.7464C45.1595 32.744 45.1595 31.2558 44.2909 30.2534L34.6667 19.1486V25.3333C34.6667 27.5424 32.8757 29.3334 30.6667 29.3334H13.3333V34.6667H30.6667C32.8757 34.6667 34.6667 36.4576 34.6667 38.6667V44.8515L44.2909 33.7464Z" fill="#FF9D00"/>
</svg>
