<!DOCTYPE svg PUBLIC "-//W3C//DTD SVG 1.1//EN" "http://www.w3.org/Graphics/SVG/1.1/DTD/svg11.dtd">
<!-- Uploaded to: SVG Repo, www.svgrepo.com, Transformed by: SVG Repo Mixer Tools -->
<svg fill="#ff9d00" width="800px" height="800px" viewBox="0 0 256 256" id="Flat" xmlns="http://www.w3.org/2000/svg" stroke="#ff9d00">
<g id="SVGRepo_bgCarrier" stroke-width="0"/>
<g id="SVGRepo_tracerCarrier" stroke-linecap="round" stroke-linejoin="round"/>
<g id="SVGRepo_iconCarrier"> <path d="M218.82861,130.82812l-41.98877,42a4.00009,4.00009,0,1,1-5.65771-5.65624L206.34473,132H104a4,4,0,0,1,0-8H206.34473l-35.1626-35.17188a4.00009,4.00009,0,1,1,5.65771-5.65624l41.98877,42A3.99942,3.99942,0,0,1,218.82861,130.82812ZM104,212H48a4.00427,4.00427,0,0,1-4-4V48a4.00427,4.00427,0,0,1,4-4h56a4,4,0,0,0,0-8H48A12.01343,12.01343,0,0,0,36,48V208a12.01343,12.01343,0,0,0,12,12h56a4,4,0,0,0,0-8Z"/> </g>
</svg>