<svg width="64" height="61" viewBox="0 0 64 61" fill="none" xmlns="http://www.w3.org/2000/svg">
<path fill-rule="evenodd" clip-rule="evenodd" d="M38.4273 11.4323C38.3456 12.0154 38.2709 12.602 38.2709 13.21C38.2709 13.818 38.3456 14.4154 38.4345 15.0092C36.5607 14.9665 34.6691 15.6456 33.2433 17.0714C30.4736 19.8412 30.4736 24.3567 33.2433 27.1265C34.63 28.5132 36.4505 29.2065 38.2709 29.2065C40.0913 29.2065 41.9118 28.5132 43.2985 27.1265C46.0682 24.3567 46.0682 19.8412 43.2985 17.0714C43.0247 16.7976 42.7189 16.5665 42.4131 16.3496L42.3882 16.282C42.0185 15.2865 41.8265 14.2518 41.8265 13.21C41.8265 12.5949 41.9047 12.0083 42.0327 11.4323H47.1598C48.1376 11.4323 48.9376 12.2323 48.9376 13.21V34.0598L27.6576 55.3434L5.02647 32.7123L26.31 11.4323H38.4273ZM38.2709 18.5469C38.7651 18.5469 39.2451 18.6678 39.7038 18.8705C40.2371 19.9265 40.9198 20.8865 41.7518 21.7398C41.862 22.7674 41.5705 23.8269 40.7847 24.6127C39.3945 26.0029 37.1473 26.0029 35.7571 24.6127C34.3705 23.226 34.3705 20.9718 35.7571 19.5852C36.4505 18.8918 37.3607 18.5469 38.2709 18.5469ZM50.7153 0.765597C45.8407 0.765597 41.4993 3.61003 39.526 7.8767H24.838L-0.00109863 32.7123L27.6576 60.3709L52.4931 35.5318V13.21C52.4931 10.2696 50.1002 7.87666 47.1598 7.87666H43.6149C45.2433 5.68646 47.8531 4.32113 50.7153 4.32113C55.6185 4.32113 59.6042 8.3069 59.6042 13.21H63.1598C63.1598 6.3478 57.5776 0.765597 50.7153 0.765597Z" fill="#FF9D00"/>
</svg>
